<mxfile host="Electron" modified="2024-06-03T21:22:19.925Z" agent="Mozilla/5.0 (Windows NT 10.0; Win64; x64) AppleWebKit/537.36 (KHTML, like Gecko) draw.io/24.4.8 Chrome/124.0.6367.207 Electron/30.0.6 Safari/537.36" etag="eHUkhI4Jo430AndYpi3_" version="24.4.8" type="device" pages="11">
  <diagram name="C1" id="kPI0S30a3JTOGSrIHBgv">
    <mxGraphModel dx="584" dy="-256" grid="1" gridSize="10" guides="1" tooltips="1" connect="1" arrows="1" fold="1" page="1" pageScale="1" pageWidth="850" pageHeight="1100" math="0" shadow="0">
      <root>
        <mxCell id="0" />
        <mxCell id="1" parent="0" />
        <object placeholders="1" c4Name="NexusMeals" c4Type="Software System" c4Description="A system that connects customers to local chefs who cook meals from home." label="&lt;font style=&quot;font-size: 16px&quot;&gt;&lt;b&gt;%c4Name%&lt;/b&gt;&lt;/font&gt;&lt;div&gt;[%c4Type%]&lt;/div&gt;&lt;br&gt;&lt;div&gt;&lt;font style=&quot;font-size: 11px&quot;&gt;&lt;font color=&quot;#cccccc&quot;&gt;%c4Description%&lt;/font&gt;&lt;/div&gt;" id="w6xOuOf0DuLS4dTlmU8N-15">
          <mxCell style="rounded=1;whiteSpace=wrap;html=1;labelBackgroundColor=none;fillColor=#1061B0;fontColor=#ffffff;align=center;arcSize=10;strokeColor=#0D5091;metaEdit=1;resizable=0;points=[[0.25,0,0],[0.5,0,0],[0.75,0,0],[1,0.25,0],[1,0.5,0],[1,0.75,0],[0.75,1,0],[0.5,1,0],[0.25,1,0],[0,0.75,0],[0,0.5,0],[0,0.25,0]];" parent="1" vertex="1">
            <mxGeometry x="1155" y="1590" width="240" height="120" as="geometry" />
          </mxCell>
        </object>
        <mxCell id="gsXS03PVRyQy-m5rla5Y-3" style="edgeStyle=orthogonalEdgeStyle;rounded=0;orthogonalLoop=1;jettySize=auto;html=1;exitX=0.5;exitY=1;exitDx=0;exitDy=0;exitPerimeter=0;entryX=0.5;entryY=0;entryDx=0;entryDy=0;entryPerimeter=0;" parent="1" source="w6xOuOf0DuLS4dTlmU8N-20" target="w6xOuOf0DuLS4dTlmU8N-15" edge="1">
          <mxGeometry relative="1" as="geometry" />
        </mxCell>
        <mxCell id="gsXS03PVRyQy-m5rla5Y-4" value="browse chefs/&lt;br&gt;place orders" style="edgeLabel;html=1;align=center;verticalAlign=middle;resizable=0;points=[];" parent="gsXS03PVRyQy-m5rla5Y-3" vertex="1" connectable="0">
          <mxGeometry x="0.25" relative="1" as="geometry">
            <mxPoint x="-14" as="offset" />
          </mxGeometry>
        </mxCell>
        <object placeholders="1" c4Name="Customer" c4Type="Person" c4Description="Responsible for placing orders." label="&lt;font style=&quot;font-size: 16px&quot;&gt;&lt;b&gt;%c4Name%&lt;/b&gt;&lt;/font&gt;&lt;div&gt;[%c4Type%]&lt;/div&gt;&lt;br&gt;&lt;div&gt;&lt;font style=&quot;font-size: 11px&quot;&gt;&lt;font color=&quot;#cccccc&quot;&gt;%c4Description%&lt;/font&gt;&lt;/div&gt;" id="w6xOuOf0DuLS4dTlmU8N-20">
          <mxCell style="html=1;fontSize=11;dashed=0;whiteSpace=wrap;fillColor=#083F75;strokeColor=#06315C;fontColor=#ffffff;shape=mxgraph.c4.person2;align=center;metaEdit=1;points=[[0.5,0,0],[1,0.5,0],[1,0.75,0],[0.75,1,0],[0.5,1,0],[0.25,1,0],[0,0.75,0],[0,0.5,0]];resizable=0;rounded=1;" parent="1" vertex="1">
            <mxGeometry x="980" y="1310" width="200" height="180" as="geometry" />
          </mxCell>
        </object>
        <mxCell id="gsXS03PVRyQy-m5rla5Y-1" style="edgeStyle=orthogonalEdgeStyle;rounded=0;orthogonalLoop=1;jettySize=auto;html=1;exitX=0.5;exitY=1;exitDx=0;exitDy=0;exitPerimeter=0;entryX=0.5;entryY=0;entryDx=0;entryDy=0;entryPerimeter=0;" parent="1" source="w6xOuOf0DuLS4dTlmU8N-23" target="w6xOuOf0DuLS4dTlmU8N-15" edge="1">
          <mxGeometry relative="1" as="geometry" />
        </mxCell>
        <mxCell id="gsXS03PVRyQy-m5rla5Y-2" value="Manage menu/orders" style="edgeLabel;html=1;align=center;verticalAlign=middle;resizable=0;points=[];" parent="gsXS03PVRyQy-m5rla5Y-1" vertex="1" connectable="0">
          <mxGeometry x="0.2679" y="1" relative="1" as="geometry">
            <mxPoint x="18" as="offset" />
          </mxGeometry>
        </mxCell>
        <object placeholders="1" c4Name="Chef" c4Type="Person" c4Description="Responsible for CRUD-ing orders." label="&lt;font style=&quot;font-size: 16px&quot;&gt;&lt;b&gt;%c4Name%&lt;/b&gt;&lt;/font&gt;&lt;div&gt;[%c4Type%]&lt;/div&gt;&lt;br&gt;&lt;div&gt;&lt;font style=&quot;font-size: 11px&quot;&gt;&lt;font color=&quot;#cccccc&quot;&gt;%c4Description%&lt;/font&gt;&lt;/div&gt;" id="w6xOuOf0DuLS4dTlmU8N-23">
          <mxCell style="html=1;fontSize=11;dashed=0;whiteSpace=wrap;fillColor=#083F75;strokeColor=#06315C;fontColor=#ffffff;shape=mxgraph.c4.person2;align=center;metaEdit=1;points=[[0.5,0,0],[1,0.5,0],[1,0.75,0],[0.75,1,0],[0.5,1,0],[0.25,1,0],[0,0.75,0],[0,0.5,0]];resizable=0;rounded=1;" parent="1" vertex="1">
            <mxGeometry x="1420" y="1310" width="200" height="180" as="geometry" />
          </mxCell>
        </object>
        <object placeholders="1" c4Name="Payment Processing Platform" c4Type="External System" c4Description="Point of sale terminal for payment with credit/debit card." label="&lt;font style=&quot;font-size: 16px&quot;&gt;&lt;b&gt;%c4Name%&lt;/b&gt;&lt;/font&gt;&lt;div&gt;[%c4Type%]&lt;/div&gt;&lt;br&gt;&lt;div&gt;&lt;font style=&quot;font-size: 11px&quot;&gt;&lt;font color=&quot;#cccccc&quot;&gt;%c4Description%&lt;/font&gt;&lt;/div&gt;" id="5BOrjEECzt7zwEBn4cW5-1">
          <mxCell style="rounded=1;whiteSpace=wrap;html=1;labelBackgroundColor=none;fillColor=#8C8496;fontColor=#ffffff;align=center;arcSize=10;strokeColor=#736782;metaEdit=1;resizable=0;points=[[0.25,0,0],[0.5,0,0],[0.75,0,0],[1,0.25,0],[1,0.5,0],[1,0.75,0],[0.75,1,0],[0.5,1,0],[0.25,1,0],[0,0.75,0],[0,0.5,0],[0,0.25,0]];" parent="1" vertex="1">
            <mxGeometry x="1400" y="1720" width="240" height="120" as="geometry" />
          </mxCell>
        </object>
        <mxCell id="5BOrjEECzt7zwEBn4cW5-2" style="edgeStyle=orthogonalEdgeStyle;rounded=0;orthogonalLoop=1;jettySize=auto;html=1;exitX=1;exitY=0.5;exitDx=0;exitDy=0;exitPerimeter=0;entryX=0.5;entryY=0;entryDx=0;entryDy=0;entryPerimeter=0;" parent="1" source="w6xOuOf0DuLS4dTlmU8N-15" target="5BOrjEECzt7zwEBn4cW5-1" edge="1">
          <mxGeometry relative="1" as="geometry" />
        </mxCell>
        <mxCell id="5BOrjEECzt7zwEBn4cW5-3" value="Uses" style="edgeLabel;html=1;align=center;verticalAlign=middle;resizable=0;points=[];" parent="5BOrjEECzt7zwEBn4cW5-2" vertex="1" connectable="0">
          <mxGeometry x="-0.2" y="-2" relative="1" as="geometry">
            <mxPoint as="offset" />
          </mxGeometry>
        </mxCell>
      </root>
    </mxGraphModel>
  </diagram>
  <diagram id="OotKf--GLSo4dBcUAN7l" name="C2">
    <mxGraphModel dx="1418" dy="828" grid="0" gridSize="10" guides="1" tooltips="1" connect="1" arrows="1" fold="1" page="0" pageScale="1" pageWidth="850" pageHeight="1100" math="0" shadow="0">
      <root>
        <mxCell id="0" />
        <mxCell id="1" parent="0" />
        <object placeholders="1" c4Name="Frontend" c4Type="Container" c4Technology="React, TypeScript" c4Description="Web interface utilizing NexusMeals backend functionalities" label="&lt;font style=&quot;font-size: 16px&quot;&gt;&lt;b&gt;%c4Name%&lt;/b&gt;&lt;/font&gt;&lt;div&gt;[%c4Type%: %c4Technology%]&lt;/div&gt;&lt;br&gt;&lt;div&gt;&lt;font style=&quot;font-size: 11px&quot;&gt;&lt;font color=&quot;#E6E6E6&quot;&gt;%c4Description%&lt;/font&gt;&lt;/div&gt;" id="javZEo8Pop0UP9xMLVNB-1">
          <mxCell style="rounded=1;whiteSpace=wrap;html=1;fontSize=11;labelBackgroundColor=none;fillColor=#23A2D9;fontColor=#ffffff;align=center;arcSize=10;strokeColor=#0E7DAD;metaEdit=1;resizable=0;points=[[0.25,0,0],[0.5,0,0],[0.75,0,0],[1,0.25,0],[1,0.5,0],[1,0.75,0],[0.75,1,0],[0.5,1,0],[0.25,1,0],[0,0.75,0],[0,0.5,0],[0,0.25,0]];" parent="1" vertex="1">
            <mxGeometry x="36" y="299.91" width="240" height="120" as="geometry" />
          </mxCell>
        </object>
        <mxCell id="ka-tV2bJt2WIA6ilYnPo-15" style="edgeStyle=orthogonalEdgeStyle;rounded=0;orthogonalLoop=1;jettySize=auto;html=1;exitX=1;exitY=0.5;exitDx=0;exitDy=0;exitPerimeter=0;entryX=0;entryY=0.5;entryDx=0;entryDy=0;" parent="1" source="javZEo8Pop0UP9xMLVNB-2" target="javZEo8Pop0UP9xMLVNB-11" edge="1">
          <mxGeometry relative="1" as="geometry" />
        </mxCell>
        <mxCell id="ka-tV2bJt2WIA6ilYnPo-16" value="send/receive messages" style="edgeLabel;html=1;align=center;verticalAlign=middle;resizable=0;points=[];" parent="ka-tV2bJt2WIA6ilYnPo-15" vertex="1" connectable="0">
          <mxGeometry x="-0.3691" y="-2" relative="1" as="geometry">
            <mxPoint x="29" y="-2" as="offset" />
          </mxGeometry>
        </mxCell>
        <mxCell id="1SsYikCAc0eKjyBBxgKa-6" style="edgeStyle=orthogonalEdgeStyle;rounded=0;orthogonalLoop=1;jettySize=auto;html=1;exitX=0.5;exitY=1;exitDx=0;exitDy=0;exitPerimeter=0;entryX=0.5;entryY=0;entryDx=0;entryDy=0;" parent="1" source="javZEo8Pop0UP9xMLVNB-2" target="YrJhX_K_WhylSJP6Jxo8-2" edge="1">
          <mxGeometry relative="1" as="geometry" />
        </mxCell>
        <mxCell id="1SsYikCAc0eKjyBBxgKa-7" value="save/get session data" style="edgeLabel;html=1;align=center;verticalAlign=middle;resizable=0;points=[];" parent="1SsYikCAc0eKjyBBxgKa-6" vertex="1" connectable="0">
          <mxGeometry x="0.0317" y="-2" relative="1" as="geometry">
            <mxPoint as="offset" />
          </mxGeometry>
        </mxCell>
        <mxCell id="9_Uz39phtjB1Z9_ed3OA-5" style="edgeStyle=orthogonalEdgeStyle;rounded=0;orthogonalLoop=1;jettySize=auto;html=1;exitX=1;exitY=0.75;exitDx=0;exitDy=0;exitPerimeter=0;entryX=0.088;entryY=0.712;entryDx=0;entryDy=0;entryPerimeter=0;" edge="1" parent="1" source="javZEo8Pop0UP9xMLVNB-2" target="4mAMlsJQMf3aUo06--Eg-14">
          <mxGeometry relative="1" as="geometry">
            <mxPoint x="838" y="790" as="targetPoint" />
            <Array as="points">
              <mxPoint x="276" y="784" />
            </Array>
          </mxGeometry>
        </mxCell>
        <mxCell id="9_Uz39phtjB1Z9_ed3OA-6" value="tcp" style="edgeLabel;html=1;align=center;verticalAlign=middle;resizable=0;points=[];" vertex="1" connectable="0" parent="9_Uz39phtjB1Z9_ed3OA-5">
          <mxGeometry x="0.0859" y="1" relative="1" as="geometry">
            <mxPoint x="7" y="1" as="offset" />
          </mxGeometry>
        </mxCell>
        <object placeholders="1" c4Name="API Gateway" c4Type="Container" c4Technology="NestJS" c4Description="Receives requests and routes them to microservices." label="&lt;font style=&quot;font-size: 16px&quot;&gt;&lt;b&gt;%c4Name%&lt;/b&gt;&lt;/font&gt;&lt;div&gt;[%c4Type%: %c4Technology%]&lt;/div&gt;&lt;br&gt;&lt;div&gt;&lt;font style=&quot;font-size: 11px&quot;&gt;&lt;font color=&quot;#E6E6E6&quot;&gt;%c4Description%&lt;/font&gt;&lt;/div&gt;" id="javZEo8Pop0UP9xMLVNB-2">
          <mxCell style="rounded=1;whiteSpace=wrap;html=1;fontSize=11;labelBackgroundColor=none;fillColor=#23A2D9;fontColor=#ffffff;align=center;arcSize=10;strokeColor=#0E7DAD;metaEdit=1;resizable=0;points=[[0.25,0,0],[0.5,0,0],[0.75,0,0],[1,0.25,0],[1,0.5,0],[1,0.75,0],[0.75,1,0],[0.5,1,0],[0.25,1,0],[0,0.75,0],[0,0.5,0],[0,0.25,0]];" parent="1" vertex="1">
            <mxGeometry x="36" y="506.84000000000003" width="240" height="120" as="geometry" />
          </mxCell>
        </object>
        <mxCell id="javZEo8Pop0UP9xMLVNB-11" value="" style="shape=image;verticalLabelPosition=bottom;labelBackgroundColor=default;verticalAlign=top;aspect=fixed;imageAspect=0;image=https://miro.medium.com/v2/resize:fit:940/1*0HvJ7oQ21H4D79n1QT188A.jpeg;" parent="1" vertex="1">
          <mxGeometry x="436" y="512.9699999999999" width="217.8" height="107.74" as="geometry" />
        </mxCell>
        <mxCell id="ka-tV2bJt2WIA6ilYnPo-3" style="edgeStyle=orthogonalEdgeStyle;rounded=0;orthogonalLoop=1;jettySize=auto;html=1;exitX=0.5;exitY=1;exitDx=0;exitDy=0;exitPerimeter=0;entryX=0.5;entryY=0;entryDx=0;entryDy=0;entryPerimeter=0;" parent="1" source="javZEo8Pop0UP9xMLVNB-1" target="javZEo8Pop0UP9xMLVNB-2" edge="1">
          <mxGeometry relative="1" as="geometry" />
        </mxCell>
        <mxCell id="ka-tV2bJt2WIA6ilYnPo-4" value="https" style="edgeLabel;html=1;align=center;verticalAlign=middle;resizable=0;points=[];" parent="ka-tV2bJt2WIA6ilYnPo-3" vertex="1" connectable="0">
          <mxGeometry x="-0.2638" y="-2" relative="1" as="geometry">
            <mxPoint as="offset" />
          </mxGeometry>
        </mxCell>
        <mxCell id="YrJhX_K_WhylSJP6Jxo8-1" value="" style="group" parent="1" vertex="1" connectable="0">
          <mxGeometry x="86" y="695" width="140" height="115.89999999999998" as="geometry" />
        </mxCell>
        <mxCell id="YrJhX_K_WhylSJP6Jxo8-2" value="" style="shape=image;verticalLabelPosition=bottom;labelBackgroundColor=default;verticalAlign=top;aspect=fixed;imageAspect=0;image=data:image/png,iVBORw0KGgoAAAANSUhEUgAAAlQAAAIACAMAAABzWQL6AAAABGdBTUEAALGPC/xhBQAAAAFzUkdCAK7OHOkAAAMAUExURUdwTKcoKLcwJZAmJpEmJqc2NqwoKJEmJuEAAI8lJY8mJsYvKpAlJY8nJ8YvKsYvKsYwKpIjI8UvKpEnJ5AjI8YvKZImJo8mJsUuK5AlJZElJZElJccuLJAlJZQlJccvKsYvKsYvKsUuKsUwKZEmJsYtKMgxKo8kJJElJZAlJcMuKMYvKpElJZAlJcYvKsYuK48jI5ElJZAlJcUvKsYvKcYvKpAlJZElJcUvKZElJY4mJpAlJZElJcYuKZElJZEkJJAlJcYvK8YuKpAlJY8jI8YvK8UvKsUyKMYvKsUuKsQvKMcvK8YvKpAlJZElJcYwKZElJcUvKsYvKZAmJpElJccvKpElJZAlJcUxK5AkJMYvKsUvKsUvKsUvKpElJZElJcYvKsMwK5AkJJAlJcUxKpEkJJElJcMtKsYvKpAlJZElJZEkJJAlJcYvKY4mJpEkJMQuK8MuKJElJbssJ8UtK8MtKI4mJpEkJI4mJo4jI6YqKJslJa0rKLMqKbItKbYqJ6UrKKAoJ54nJbcsKJEmJsYwK////5opKGIbHMUwK5ImJponJr8vKpYnJpQmJsMvKrIsKaApJ6wrKMIvKrgtKaIpJ7wuKqUpKKgqKLQsKa8sKbUtKb4uKsEvKpknJp4oJ64rKKkqKMAuKrktKsQwK7otKacqKLArKJwoJ50oJ5QnJ5MmJaoqKKMpJ8YvKscyLZcnJsQvKpsoJsYxLLctKY8lI8g1MP/+/s5LR9RiXv35+dt7eN6EgdFYVM9QTMtCPfnp6d+Jhtduatp3c+u1s40kI/329uGRj//9/ck6NfDIxtVmY9ZqZu/Ew/fg39NcWNBUUOahn+CNi9x/fPvw8Pbb29lzcO7Av+mvrcg3Mso9OOqysOKVkvjm5WMbHPHKyco/O/fj4vz09PPS0fHNzIskI81IRNhxbsxFQfrt7eisqueopf76+uSbmey5uOSem3EeHuakomsdHWccHe29vPPU03cfH+OYlfTX1n0gIIIhIPLPzv78/PTZ2IUiIYgjIZywpiYAAACEdFJOUwAGCP7iAwzoAeD3ZtQTS5xaD1Im+rYY8S2SOqwcKwondZLrOCD8FBxzqPWBRcCvvPN9mMhEPYJY3l78eLPMh9m3e5bF7fiNGdPn4yBwz1LwTDLYMqNgP2kP56qGoqduNsL5jcgj3rzxbZ4vnGK/6u/a1mb61fr4Mdze8Orz9vf1Hv375ypRf0YAACAASURBVHja7J1bTJPZFsfRCIeEBAwJCQ9kuAUeJMEHIPGFB0m8mxhMSAxigomJvJhoxnmZc87bt7+C0aPoKDOgx6NUzjjqMA5SoC2UtiiXcr9f5aog18OIeJ2Z0wKjXNrS9tt77f21+/dcWr7df9Ze/a+11/by4nA49PAJjU8JOx4ekJaWFhB+PCzFP9iHLwrHVY4lZCSlH0AbOZCe5Be5lS8Qxym8g/3SjiK7RCWGB0bzleI4hG9oRmwEcoz9e/15xOJstuUFBhxETrEnyG8fXzeOLUIydn6DXCEu7BBfPc5GgncnIgkkhoXwNeSsTqOCY44iyaT78cSds0JozDmEh29iA3nezvEKCUtEOIlIivTlq+rRv/VSzigRds6H8Z+DnsoW/9Q9iAxRQYFb+AJ7XmqeHB6BSBKxN5ivsoclUucQeRL9jvGl9hC+2h6kRDDsSYv35gvu/tteQsBpBMmu3dwUdfNtb/dZBI6SZ+3uy1a4bY9n7Z6x7UUmHUE0ifPjDaPuxb6w84g6OwISuNfuLmwJjI1CbHA0jJec3YHgvRGIIaJi/bnJIG+O+SUi5jgYwzv6ZIt3/Ik9iEmUO3mHjCw5FLMLMQw3GWRoSe1EzBOXwk0G+VhSyUmnkSw4EsAb+mRB9OH9SEbsP8xNBtZzc//Uk0hmnDzBOxkY5lTMQSRLeCcDs7n5GSRflEHcE3WL3HyiiCldHTh+in+Rss/NyxqrdWzFq53buSfKRm4e73Ju3iXWLBgK2TIZwrknyoBvLiE3r6gRRbFyppR7ohx8vnm3uESdUSVZCoVNLZ3cE5U9yeGSWzkn1MuqEtvnmyUpqmy+UlT34vREM7gnCs6xDCw9LXPiZ0bbal1UlGnqleUNujGf7jrB+0Rhc3NcPS297V9UJY5MNjltMqjqJ/96i3Ls2dVZPpMBipDdGHta9OIaOvRDzijK0P1FlKO8T1SubAnEe8xKNbBWVaK6yuSYydAzXjWy+g81vE9UnoTi7zfXiBsYrp7Y7K9qO2dH1v7RKxUiBT+MSg6flDgC31jhu42qEmu67HmitcYF9YY/mSPcJxrKBYAd38gAQmdBTaJVbHmivZoutTUZviTtiabzEg5eoklO/qkTbTBo7Fn30qG2hmnrr10AsNpP8xIOPgPBPzWK5HdVLtpkjSeq09bV2HylCaaEwydeYeEQ+ca7KtEOK57ohH6wxs6rGsHK0jt4CUciMIdiSqftqUp81m3Sfyyx+xJRz9vaZUJwONCclnlRIljLfg6VcHhbu0vFPcAD60MjEkXVjcDZxUs4zhoICWk7IL+haomiKkcU4CUcZ9gXdhT4++mplKSpj7T6+XgJx1EDgcYwqTZJotIgavASzuacOn6AyndT2CFBUwTLfryEIw8DwToGCaKaQbThJRzaBoJVisZc1hT5sh8v4TBvIFij4u2Ay6JaQGyQyMcfUzQQ1qPTj0pJ002IFXgJ5y+iwQ2EtW6CseuTpJ9+jUydRuUlHFoGwpcffaY+qWY6bNmPl3BY6ECwR3NLpSidlpeINTy3hEN5LOdE6+8iHkrqNLWsycozSzjB4TRH5tdq6kpEjIx0lxWxpitPK+H4+MVRXG2VYVYtYme4n7lt0INKOL6RARQNhKKm5TPqJBhkbxv0jBJO9OFzFNe4tL9RJAmL26C7l3C841O/obe6Q9qPInmG+0tZk5U7l3BCaBoIqs6FaREIBrdB9zyFg3sGgnMeZ9lkuwjJSF9ZIWOycr8STijNO/cqZgZEeAbeMrcNnnejEo5PSjrNYvE7kRbsbYMnU92ihOObTPE+7FpNQ41Ik2fsbYPyv1ziWAbVy4dUpU0Gbf/U7FhjOzVdsbcNKoMC5RuufBPS9jCzkqqX5Ya26vnZwQ54fY21sbYNyvVyiX1hZxGbqCbK6zXVLVV1Ha9KwLZBE2vb4BnZeaKU26Qc9xp0zSZNa0tfw7tKYslXTeXowlS1poK5h5fX5RK0zllJ09dQs8mon+s26wuLS9re0dA9ozWU6woZfug4mbS1y+L24k2Kzr0VZS4ehFcPj1W1tBrLSntk8qxy8ETpnrPCKaw6p3a4NwtT/W31zb1FMnxUttva6bZJ4fbhpx3Y4er6ZrTjTROFMn9WZi/cpdsmRYA5eyaBnHY42XqiMrti3SE7foCx0UHkPVGW+kS940+cdMNV7mRmdFDWDShPlJU+UaxXxTCVqzfYEpUR9P+4m3v7xWL2LZgPS0/5yrPbpGjl6pCjg7K+K1AoFC8yM1+/uALziaeTkqmaDEsuZ5HbigrN0B4ddDH3tkKxLCozi7fvApkMGbT6RLduP4PcnJ4BmqODsp7kKFZYFpU5XP353yyQz6Zzdt5tXE67jNMbHXTz6n2FYr2ozPzvV6BwBW0yuJXL6XSuDjA6SJmXo1jNKlFlZj7/4z8w4QrQZHA7l9MeVi6DID86aE2Q2igqS7j6902Y54/YC9HJEH34PESE6C1tbqofN2q0Wr0ZbZvG2GkwNVXowF3sjbl6K+kg9UixgfWisoSrhzDhCsURPt3lHZ9K0uVUlZo0/VMLY43ttpubptsbB5f7AGAKbhtydbI3hty4+qNC4YioLOHqFyBPdEcauXvnybmcRaWG1snBAef65D4NN0zp61+SdjQMcDeGXP7husI6VkVlDlcf7jyWc9ZOyuVUlWsnR6VMs2sfm28rJ+hGFnUBlf1sBCl7ojLz24N7MLJSBuHuPybTy6nrnB/FcxZd/XHOQGpbKl0zd2iUzIdcu3JdYQfbojKHq/cFQEWNIxi9diIuZ61hqgNvL3hJx5SBSB7/lviNITceKuxjT1RL4Sof6HfLfjyDH0m4nKWtY5+IHDJQN+jxn7Jbnau39xAIUtkKhTRRmXn/CChcKYMCt7Lnclb0dxA9DvV7Ne4yyqpcfQ7zW2fd+17hAJuLyhyuip8gsG2QKZdzSPsG4vSmdgjrf/05Vy/BGwev5WYrHOJppkMsXr8GpCsXb5cg0MtZ1NSnFmFQd+P8lfY5V+/C+KY/53+vcJQXmQ7y+ukPQLI6HX7KaZcTfy9noXFUhGTMiM8e7V95z3ps73jL0SDlnKgs4Qqqn08ZG+nMiXUCLqeqbRh8hkEjNln1LP/zw5jeb7nzjpCoAPv50M4EiifWizobRRp0jGMy3Osxlv2cC1IuiMoSru4DNcgEOZCzHyLicjaPibQYwzTDYMGSqGFI/7OeFCicx2lRwfXzKQOiNynFEDmxrpqjOXlMXY2lhmPJ1fskv8vdlfZgAFEt9fNdhJBVxHbbPvu+GDJjNZo7RLp0YAlW5ly9Sdo7PH6So3CRp5mu8fyPqxDhKs3HxoCy1CgyH6hRi7QZMeCIt8NvJP39xQ2ddwCigurn2x9iLTkn1R5c9FZkgJJ+DPl6fZuExMNa5x2MqCwNMuT7+Q6uv1zJezuxI+uFUyIbtGBQlct+wg0pQUq6qCzh6hLpfr6ja9pDff0J3jbbIrJCP6LEZYlBaoniTKkQ7+cLWKWpZJKH97QiO2ipSMpe5x2oqMj3830+IeGTRLJhonyaIVE9g588rbTfeQe4/UH084WvaCqB6GiNwjciSwwCjybbtPMOXlRLDTLfEXrexOVsKoZsX5dGZAvIWS2OdN5RERW5fr4dS/55GuGFfceYqOqgFJWVf0eBF6yisoQrApXBry2d56SHCFeIrAGTVd3CG6TwJeqrmq7yCDz3P8yiCiC9uHrmRAXwA9CZzjtKonp//TIRm/vvXl4pxNd3kjlRzREPUrnZCiI8xbfxkWpkv7LNayv5Sx0XmBPVLGmfE48pRS5Svc8h9tPs2qVtXn7kd4Iq5kRFfrCUEod9TkhURA8HZmUL27xiyYvqLXOimoTI0y9KLvSRENXzDwVEqzQFgllU58ivrsYTE3ULj/NyGBPVbw8I15PNmjKL6mvya6v7xJqogGZ1Itc7PEmI6vmHh4RHwygfCUui+ifAyrKWqY9BFmlc60XHLyqAIVa37gvLovoWYF1NjInKgGC5hS9cuSgqkG7i/EvCiqj+BnGCZ5atKg38wPes/AKKogJpJP756gXhs6gKANZU186QpkboXLqOxw91XlSv/wQZYXzzR0H4IioB4sy9oYYZTZWMI0rgqNw4K6pFmGHrX8LUiqj+BTGFlB1bQY8oIrnGXOxckLoCM7j43q+CsFZUAshsW1aqytWILhK7YZwQ1eJtoPkc13IuCBtEJVy6BxGr1AxI6lMboo+Uvj1HRfX6BdQkoazcnwTBiqiEB3kAn14+QF1Tr8oQG7jcYeyYqBazoWaeobxfBMG6qIQLdwA2X10DbS9Bh5jBxbMQxY40teSBPUX+fUGwKSpBuA8wwqHI+IqmlaBl7EJCV05tbSoqsDmylgfIFgS7ohJ+ygX4N4a6qWmqSoeYw/kGmWJKJ2SsSerRBWEzUZmDFcSvwPIuOseyWL2W/aZzDTLFLMzmX5JUjg1JrROV8ODh/9k799im7iuOX2h4bcA6tUPTGO02jRUmDU1jncTUtRJjrJ1aqWWdVtFJm/YH07pp0lZ10x7aX8ed7NiJ7cROYucdx0kcJ3GekJKEEqLyCgRCSRpSNB4VUFpAlaiIRCftOg/iJH7cx+/8zrlOzt+QXN98fM75nd/3nCPjqYZOyEeq28bXQnoEMp3kW0SmA19KpOZDBeCSUi0bGpDZsXzs9pCNuWnX8wHxvqOp9NwD6Ww+VAC5Uga7H3r/bVlVhFvXbBYwu0Z3BSSTXOYWERoAdEIFUCHFj3YNDlxBJ+rj2/1dNquYM9BgACoZM6cS4XfnAhiACsAjJzyPHRnFrLJ/PHrwgs1SpmEANswXtUh1UqFADMAgVNKwso3138Sps384fv24zYKWSX7cSbGXe+Z6yZsHYAIqNQjKqni09w2PipVbXTl1tLfdZlVLr+frlD1xeLb2EXYAmIQKoK2kWdYDt/T1DIjxWBdvH+5tsVnc0uj5OuXORk848GlFCmBNGqgAYgGJ1TTbhe7D4xPGaw3Hzt8+OnjJlh3WnGpRW+eUqKVa7tOUtIEOSw8VQCQq9/FtXX39wzdP6NrMvf/iB+NHR8502bLLkgtkOiXum9GVneuACsDR5Cd4o13XhkYO3xk/8enpD1P4risXJ04MnB0+2H0g22iaza78C/V89bI2Yz04OVRFAERDFb8TDNop3+3Yob7eoe7uk/3XR65f7x88OdTbd+N4i21R2Fx3VRFwSv79aW74TEKlJleV+bYl03Xy6B8W1LTzQCAT7pD83bZnrJ2bggqgMVy6hIoWuzR07s7d02rMHhVW1QiV+P7jCUhObvWnUvqhUpMrT8cSMhmOGO/df1Bxe1eofMvZLPnTGEiljEClWrnUEoN1nFP3uTujp+dNIRmx8ieqbXIASIIKIFLlXIIowTldP5rgnOboTC1cIytpAFOmF6r4teBSFJx0TmcXOKcEe/uCVT+Z8VTKDFSLOwrGndP41Yx3lYMW/Xil4TwAEqjUKFi86M6C7YcmnZO2Uv9Na37GDo8DgAyqRXUW1OicEm+1rai6aa3LBTFmGKrJKJif9c6p5+zoZd0Da/Z3W++zVkfzABhAFa+I+rPUOZ0Z0emcEu3sIishiIUqruULNmebc/rk1GVT07ROj1nrM9vdbSDUTEMFEPMWZANOY6pzGrgqoBfj2JClPneB1wXADio1aS+qtbJzumHeOSXaLSt9eEMqBClQqVbvtlvSOb0/8KngRrEJ68i77MEKwDBRUAG4qqot5JxOqs7p4n6MvrAzVnkJ+ZUxAOZQqebrsIBzOiLeOXGa/qi9dN4IYAWoAMrr8hk7p49wnFOi3beGIlVQ6VwOVBxLV2O9qnOawG+xj9s7ByxAVChQDqgmHKq4pL3Ezsc5nZA6aLSHP1LO4giA9aBSk3ZvGbVzujcw8c5i2E+i02p8gG84UMUbu2qo3tuhm1RTkK8wH1rU6s4FsDBU8UFXVKqrlsHR/SRQHWSNVHVVHoDVoQLIK6ZK2g/cIdiwdJdz8Cv0OQCyASrK++axg1clM/XuIbZE2SXFPUlQxe+bqZL23vekLi5h2z5THXWBVFuLDhVAI9l984XDp+WNaed63mtygGTbKgGqeNJeR5S0t5+8K2fTIM/2mZC7HuTbDjlQUSbt127J2F3CsX2mzBshQApWPSYLKsqkvevIB9hMMWyfqW1qBBL7iyIRKsqk/cxHqJd/7Npn7CRxb9L2rZALVbzSXkj0mo/3nMdby9zNLe65qJCCnA2KbKgoK+3t3bc/w4GKV/uMnyruxW3XJoUCKjVpJ5PH4Gwv4dQ+Y3c3AKHtei3OlLKG5JdXUGnaW64L3+F1jM/WtwLCuBe3vz8yyZSyj+j3u6JUmva+T8Qm7ffYxL0iBylS8J11U0wpW8geweEjS9rPTWRd+4zpqVLm7bfLpplS1n2X8DHIxjG0C1s5yKN9pswbo0bqTy8qs7aF9FEIk/ajQsR8w0txb9Ke2pDAlLJiH/HjNLip1Hz9p0yr+ejbZ5pLKsiJgl07VitzbN0z1I8UIUvaD5w1p+Yjb58poI97qv1+nTLfnniG/rHIZqiZU/P1UMe9CAOkXviKksQ2vMDg0WKVVNNjjKv5SNtnsEYh6I18v1yhJLXHNnJ4vEgRVdJ+afiyofaZG4RSKRZxD/769BeVVLZ6y6McHpFuekzLoAE1H137jD/MIe7BQy9/U0lnf1vLgirIq6IafKxbzUfWPsMj7gE8tUnJYMt/8EMej+rwUK2C6zpyX8/ub5r2GbwRQHqR+rmiwV77MTAxupGPZ25q7pYnaZ/BHAGkD6lfK9psxY5VXLCi65vX2oJD0T7T4WHy52nyb//8KxqpUlY+/TkuWEFbHWc1n/z2mVBdOZMv/NQp/Sd716/QiNUTf3iIDVZ0F4M37mVS8w1Kj3t5PP4okeLZ64/ndj+uEatHtgIfq6AadtU18l9G7TO4o+/0fM/n96785uHl2rDatJERVnTDrvpSt+Bcltk+0yp3FEK6A1Sy/oJvvPpVjVht5RMEweGjStqP9/yPvH1G3gigjEluqqjxxq++rDEIfu9RRu4ql2pCbXt3MjWfvPaZGh+TuJfhyn/bS9qw2vAyJ6w4qfnOS2qfCYneGmP2wJfO9mrI2b/1tT0iVp+KNEo1XyJTn8lpnymLRpi8+EhUS1q7eXf6ytXq7+99Y0peUVLPCSseaj4p7TOkLaGZs/Ok9rP1qZF65fk9Cf+ytokTVnRrJcZmWnAktM80uxvYhAddY1V2pqgvvPSFby84f0Q4YUW3EXVo/K0333yrD/vX8JAIT12W1ep89u0/TRL3nvxS0owxUM4qClKq+bDbZ5hIpeJnIyM7rPbMp2r1+u2p/q2dzV3mTNJOpebDbZ8JsnnNMYMB4dmVc5h68kcW+QpNVdqjTluWGaOA0GB8Qt3OBKQe35b5Q1eyKjHQteAglc65fGkdptKL0IOC1fJXN2s6lnBRss746MqCLEGqlk3pPM9s3Wb3zJHvWQsmksRJu0AjnKa44GxtXsW2fSpBf36zLv/GLApacoEzyxKCmlCYf5Wh302qiHfqLs4FeZ0FXVXWTdpL2Xj+iKDr1ddVppZtM/I//VwU+NZO2gu5qO8gFhCVnv5LherrBv9vPq+KqJq0hyxGlJ2N+k5o3e+fivKwiZdSyCsKWitpL/CyKSE0iXxvwRxl2XOmfoKTjS5xJmm3iLviMKhspoosVK+dH8tRfmH2h7SyUZJNuyuvBZJ2PpdeuaKPzj7IUfaKKNw1OThhRTehVuOZm00qhfCmikGF6s9CflQZ8QDvhfIYtlGwgM2riiAUYqIQh+p1USeZEl4XOHSadotUpTC+d81hmITq3wJzT14XOHS74CxwwSeidL4wrk9lijnKP4Rm/txKV15G9832YAMbL44yA8w/fduUo6wS2/9rZ9OgPVOCqeWBVCubzqQYkhy7cuYPr0IVFv3DpW8Xz2BtDO6b+RxksHKC6tmUWoXKEUS4fmhghRW1SNTJJdl0oJ1eAgk1cBUqiGAEWD4FY/LSFZtXIe7KeMFHnONE4lBBDOV7XMBMdZXrbqWRIXC5MkabpJpfPPdbMwkVuHCcIrcOnDz5qqsgE0WnA/Gq3T0/tk9BBRGsWT3c7pulRkE2yhYXYmWlY+HN7zRU4PCiHaXd9YszCtrdTGp2mC2S/mSxKOfBYu4KvHl1zJJ2Q423+pGKZX3cs5Um/8POQgURN+IlKq+k3eFDrog2M0EKdbSlM5WvSIAKwIOYx3JL2jE7cLh4KVTBojOcMvzMgQoiXszas5NXpR0te+WRSzmKML1xabqMZi5UADE3bqLBqtIeQbhXZXLii6COdPanH1k2HyrVZ+KmG7ySdoenUDBS5TziHmbEqcmUyCyECsCHq24r4CWPqRd39clDiICsy9BQzk0GlXo4wsXK3uHj5K7KxeSzZSxSRpcXs14S0uSJk0KFj5WtOspJJOoyrzDiEdZxVT75GvU7KaCSgBWvpL2x2EzOHiph8Vlwq2/ab9xSQhWvsWNPJ2ClaXd4jKrX/FUc4h7yPYEeT7xGWZX2ngxZM5lfxylpd3n1u6uyAItW2jbcG80OXZ1S6aHCvd+e1hv5OJ0FGwJ66jsFbhaCfOSFULpLb5mgwqkQzkvaeTWiVlRq+8D+QAWLMyxy3CvTP0YkM1TiK4TJTqq8GlHLw8H0DtrpLmJyQ46s5DHU+6oFKhnJFbsZalBeFKhJEgqbS4NeDxfPiq28NziRTSNUwufNJHNXgVzgZpE2X9gbcJcEg0G3uzJa5IkxqtpGcNXRxseIaIZKSltmLS81H2vLxR3EZWaMiA6oQMYY4DJvbIkXLXXOQuRkxEwFUR9UMrZk25kNPmZo2F1BZvWUeqECaCxCj4KlvFbBMTPk0Vut5kUk+qGSEgW5jXzkYygjgBIv+gW01BmCSkYUXErak0WJYtxCtKAxmwahip8Fa7CxKqtcStoTLYa7kVXcfhzDUIGMET3cWnBI4x7uWECR+3HMQCVlJQyzFhyqOifyAFOxIiRzUIGM5evchl0RxD1kqYjoHY6moRKyIM5Saj7ZhjcCaPp2THjmKgAqKdOluU2olXbeQ962UxpGmMojBCqIT5JEn6vJS80nxbAlkkh74URBJWW6NDM1H7Yh725qReulFgeVFBkDNzUfoiG/TGcUbxqdSKhAyjZjdmo+lLgXxR2hhbt5QjBUUkpX+QzVfEINWSIcwp5tKByquKQdf5txYVMWl85x77/K8PehIkAFUrYZl2Vn0t6I3Lvkb5KQPOBAJWWbsT2YdUk7+pWxnLsJLKhAyjZjfzgvi5CqwL4yluXbEaFS3VUUfQxwKFuSdgeya5c5lQYVKpAyDL8mC9R8yKLHZrlTabChikuq8/GTdmur+ZBLCAWyX89adKik3DdbOWlHrsD4i6QrPDZKgArimyyWkvbkaSduCYHmy/ZHOVAtJe0pUinUS/gQjch/10pZUIEMkai15DHINRcyZeP/2bvWprauK3owwpYpJENkQ4DY0+mQAWrTAFOb2jCYDPbUTcepOzh2/aE4L2dqO03appO6j5l+uXyQEEIPEHoBFpIACfAIqh9YCbDNQ6DHPeucJeH9A+yry7pnr7P32muPC4WgUkLaK0YeA+7G6COZo3VqQaWk0l4J8hgwlZrWONx2plOoBpWBXT9XGZp2MJXSemVpGRM6QKVk+Tqxph3sAaTX36SlLYcpYanG4swE7SAq9odPa15k8vDpNqZEj6b/P/0CrmlnW+CMbvBFdJfq7nTuYEoM6mOrc3BNO9UC5xTW4TKj3X772cVdTInmeq2lGjhpl+RkYv5khtpKxfVvOWgZEG+iT+ujuKJom3YKkSjW3jkS0J/nezr2YErUjGomGh74IKpd80Ii7JafDMHaid4HdWJfNJ/Vnhrwg6j+ZW1vHrqPLE5RO2nvFAfDZtH+VA48afdpKTM7oLVzZ4Chyvv8rsgTHQ3VXxTMCSCVN8Swe2NmKNYt9Q7WiLzRNEJx5w748VlQ4aedQmb1TQ6hT21/szgq6vpqKS7e4IkSlVlwyguUZDhJXMGHLojjou2fHCXCNNz4WEkWnELO08ZIOlA9baJAnG7lOKzQOxF3hNtYNuLy4iCFswAqMZIzf/n4g0KoEm0NBklMwtV8yNHKFDDxLa2T9DOT27W3+Pn3agqgqm78exZYrcFHcOygL94FhFRslmTGcY9u9TeXfl0AVo2t51hgpWAEB8BNgDc+O81ulQPl3A//+PsCsLK106BKwQiOZAs14I1vfp1EzZpXv/PRlQKwGhvigRVezTcvj6QAhQiJDRL/wFTgCNXu54Vg1TZCBCu4mm86JIWzrwbtsLzHsp7g2OT+i68LwWqUCFbwERy723RXFlcG8dEMnaVXjvd8+OLSqWMg9Yc/3Z7wzxHBCq7mM6doB/q++mk8bVaLaHb8/f2jIPX+u7eIWuCvb+poh9pItMwTAacHs4dp1vLMFqciufVZ3lLVO39mPHm3rx2eMDoLlt72Xw3BGN80jUNSKbOvl6yHIPXZX9VUCMtuDIJJ+3yolLNhy4sTS/G42JToyPbxQUj9Kq9alQlW+LUSzlBR51XKEwIW0Xheeunq+nf2Yuqd2wwipCLOB6zxXK5nm4kmjwOWy+ONAS8OcZ7x6nLKhJ+8uQN+ff7Yay2VAWIqAB/BmdhMhOaShz4mR9oTdfuhmi8WqVROCl1eKecnrzLfT28VIrGrTLAy8CM4O2TZn3GHvOvRQNTrDbkTTrghYIzGYat8G5HzO5j64PNiWgVcNsB4NZ/yiNO0jE1tXf9kG1NXflbk3chLRa7WNmLVBCmiAo45R7Yfcph674sSSjlcWXAL71CrKHhK56Yd2f6bxdQvPyyxYU6VBVWQdnzwWHabX1b1v38J8dvflVwhJPPVxI/ggKkUTwkhKUFqsWQR1o/KamhwZcFKJu1LPCUE0V2zDAAADiBJREFUOWqQDYu4UjYHoFo7W6mknYdMyNqPEzQs4l0TtxWulTCT8Eq77HhJo76T9/L8qSyobptp6weTVLCqLNKu05j6QMiTGPqzdNsifm62mU5VunIoqrRL6MYEWFQIroA8pVoOU1lQ/WD+7sKVBSuCtPN0Y9IrEgeAwts82yL+Y/6fYnOXduDXSpikUjR3Z7kHu3fn0mER/5byz0WiXDsWtty0WZDnZE/JnQKff3W0WMQZSRrdTS6NKHIYoTqqUmnJQujw6x+WBVVaWveMrIFjeGbYIMXT4EtKnlL07Rm+yoLKmJV4ApI1cBTsgishMiwNvjXppDO49++eA5URlfivs20zxrvHFN3ZYqEH8lfLR/Zf1LZBJRVV0k0vqqLfHKcpdMoXC8WjB/7eO6Ay5uQmWLbFaLpLVzSOLcZcQv4JfIjx7ILKSMp+6zGubcY6S1eRZQdL3pN/Ic7kSeqvQGVMSbfsWVrnIu2rekpXfhbzO8R6nEReAv0aVIYjIL3HHw9ykfYp9VmQxUfYMZsAfC9H/DjLnnW3aYAiiazfvDaXUAmpMEk7xoUoBB99BFv27VCeAzgVsJF2dVkwOMmS9zbVZvX9oDJSIcQbn5l1cGVBnwJIsZSlIG5siWOzuuXgtvcFiF2Pk2tgEH8XJIFUCmLqVagzcAhUhpGE0A420r6I9LoKc0BqEmFsay+c1fOAyjA8mO+Yx3Fpt0sPmkMNc8yuQ9rp9mJ0O3lBlX0gzCWJjLRDtvFx3PgwZpa+4ljMEaCCwYqs0u7Y8FfjKbUAOYSXilXVHwmqLLcCsY4lLnnMorwsIcE5W0reyyCu8P7ixXJnjwYVbgGtnYu0b8nRq3H4vrowO5tLskk+FlTAkg6XPCYdMl0ejFDcQjCixFJP4AKgkuArc2SNIcSkaTfXyLCHKVZkY/Ker+QaY0FQ5eYzUTuHYkzWfI7ZmbJJYhXnvXJU9UWAysCoJrZjnsqOIV2G3ijuXmT4MtIYMf5MWSKL4kAFVI1kMwcTafe4S/njbIZnKdpPHohgumxVfbGgQrriR6h24Kx53MV9P063h+K5XZjRDl/57driQZWrXKGyYJxrENWxtZ45vpjiCy+TPDEo7/nNSKBLAhVSNZLg8lAzHKvLbn8+ZM1nQnM0RBCT98wuMSkRVEjVCJuHWu7HphfnoiF3OJOJzYTdK97l2S2inngKk/c2TTdoSwaVAdROvuQi7dxh3kU4f30kav6zKQdUyAkCZ9T1Fi9FBGhAVo4bRnmgQk4QbJIZHxOGA5P3pFlOlwsqA2kB5edagsOW9zC7UCVSWhOgyjLFddRaYx/ZCA5PJDGeplJH6UyBKtcwQ7mX22c8b4+rw6QDc/WW7NRjElQGSF2/26hNvcURvkgof4mJeVAB1TETcTKfdq15Lwj5eBHO2zJAte1ePoEi7ctvawy5kjPmsj0DKQzKAVXuTgJr4EyHJk84pFLrkLIgzPpXGqiyPx039hvbOMGkHVS6cUZh8ycSQZXL+7A9oWwOtcry3iwm70GNpOWCKndSo9zL7SewMejCvM04uGkhG1Q50g5zL4+cLNIOmpDDH/ryQZWNhRWUe3ncvXVSIAUaN1Gx+xMCKqh7eeIkNAbXMIsLFe1nBIHKAGqPyUZwAAGSCCt7bzhQIVVXVU3aQVIphdIPJKjMDGgWJu3RqmwMglrGL8Mq+11YUBnIfvNm9ZF20NnuU7xh8DEaVLC5NMYRHMrSuXrX8R48qHI0IYgi7b6qIe0YZZqWpWbDSkCFJO1VMYIjc+H63l68nt1dFxSBCikSzZL2yq60w6aM9byWIaEMVGDSXrkjOKASgrYDvLdDKajAlfZKJO3SnWxfadD0Uc1rQjGo3pL2/VQKo0KI6PS+HBYaQJUl7TB5TGWR9oXQJuIlZLSOIfVb9YAKW2kPVEilfREywBfXPDDZWpfDlGjQ9Zni5DH8mnaQd04koPcaXNu1fU4J8UQboTix8hiQPDaje/z2+8tiN+5rfIoTqWnHLFqK6zcKGO14hSlh7anCj3aCbq3E6+8IUpVy6meS16/WiTdhq9f7NDCbdrYFztnAzMYw2E40PBL7YkB7QniBG0Qlco9xQOwBKDZnnOurEQeiSz91hQ2i2jMkpSuMvYaTQqv4jU0cjnGCB8NtYWd48WlIoXOG4oM5+6lV5IuBeoKHc0VR7jG6RaKrQQA731yhqMf1Dl4UR8TYYwrW4QmjjiuNG1Eh07VLHHKf6/3N4uho6iap4sDcY5x6SlcQGcIMydLgdps4NqwDN0kuSRswy0flqivIhc/OMvExNCYKRjPJYYXbs5tr4Ki80waWENcOkl7ByCNRVFy+wQKrVABVY1C2F9yFsCqLzZJ0NdvHRLFR09VCUyuEqfnsKmQMawBuGGcRTdd2XxClRGPrORpY4UZw0B98Kir/yedZzJrP9dtEqdFxr5answFT8yGX4Dii8k8pP4sEv3e4WZQTF7p5YIUzu0INB6wtSz+l7DTW3w8Hm0S5QQUrmJoPYVvhkH/j47FOuvFtjTATtic83Aqo5kvIrSKuyedSPNufRu/WCbPR+WUvEaxgaj6J80zyhQharBDyX/ja24SUaBp8SAQrmJpvfl0KZ19YkS1E0GSFkCfqW21CWtRca2CC1QJmxauMv578VjiPF/PDwUYhNayXh5hghVLzmbtfpeT7vmZoNtM1XKsR8sPWX8+EK5Sar2yTlEW37LwX51FBj1y2Ckw0DlqYYDUVxWxEnXaXflwteKU/i5PGzvTHZxcEMGoGRplg5UCR9oi3lL5gOio/GcdmWV7ymb5mgY62bqbKFU7N5/cWdV45kl75iCLaaNHw7SmhIjqvfkd1XM0lMLCa8AWXjz2wHKvRMKB55OMZqx6CUanDceraHSZYAUdwJuYz3o3JwzewqeRyKIFxEaYpndf324TSsLZ1X2eClQtE2ne7g85EMOSNLudi3evO+FFWNRM0pXPDIrsqVZFZELfAWVUQlRC+GqgReoItC6Zhaj4VsURTQrje3SY0hrXtHtVdEEfa0ZGg2Q99c7hT6I7mPqp2M5K04zgbjfrOaPjbRcEQZBVRWKUdFdM8dsoqSwgF4x/PqPqCDpzZlXyVfIDF+L231Sa4orHrMdVxlX4RrwRIxWjMuR93NQm+qLs7QgUrnNmVNCrF043p+bROkIattYUKV6tu4uOKR9D545OngjlOP2jgOq68S5yQWqJZ+fWwr1Gwh/V+O1UDB7gLrhoafPpK5yU3cLhKV7hdcBXe4Dt375GonGArXbkCERZE8aw3+e5qs6iweMolaTdwlo+lFTpZtFJ3rp0SFRhN4zeoYJUO+TRDiqbQWdt+3yoqNOouD9UywUpv6YqGnd8c7hAVHR3DN6mOq6SufnOCpXbO0jI2qbr6iqvf7NWQBTMkMoTaocrNewdi7AlXv1lxFrQHSdoxLV92iCqKxq7nXA2coLIsaHeTiIRvPDgtqizYSLuiLBhfIenwUUmlqpe0K8iC9hAHpPikUlVM2hehFVG7mwNSN8ZPi+oOMtKehvUFWSA1crdOVH80dlFV2l0BZ/XS86rOe9Sk3bEhe7DrJQekno83iZMUHcNU883JcPXR829ORN6jlsdMyurf/L+9M2hNI4qisEmtWomL0JCgElcFDShUFxOM0Ai6VQYUgxuFBANtQoUsmnbvRmKDkCYNBrpJEWpJ6KI/sKWFlLSxOvpm3pn3zvcLBC9zz9x77pnPEEaEYGbdoydY9hghmr13iWATfpdY9ugLlj3mdN5QfYzcVx373n0CSSRP+9c5whjOIEJb9O1794kbfiRxNZglfap7dY5gwPMmQqynO9GeAiqr0c33W4uHxpcQMUDAJ6FyWM9AfQNn+GHal8Hb6yHEBCF48IpV9K9oxzpEHd30J8v2Xv8cI6pMTpqiK0R7DStPu3My7I+97epeDD6iHK6z7/2X1bS3g8Xoy3BwdXH2pxt2e9f9ByOLJYEehQCxGCzvdxA5/Xbyk0/vR1g/i31vStDSY3AplBdYLtMSOyyxYiax8rLCSrEm2sGCj+Gop1dZJdYJ5VqsnXF9b5N9b1bRbmKd4KD0PVdFAAGCdjcvH7/Bvjc3i9kCK+mOUpZ9TwwVrJx2aWxtRAKsBnGLQbCwKxm0Ab4ao5poT0a1Fu1LhzEWgQ1gufmcRKEIIDyw3HxOoVgEECBYbj4HUDACCFG0g31WwlbyJq1SDi0Ga1EtFoM8jXEWtC+i2oBX65NQSaK9rLRoL9AiLEm0hxUV7StVWqXk4VNRtL/myli2aI+AneDMvzJe5L+KINq9HJ0T0aCe4FhEozRFd+D+E5wnHCHgETtys2jnCIGiXbT7jq5zinahFOm+wxft7pq0b+/QfcdJu1BSdCFw0i54G3PMv8pVor2GlFBLKaUK0J72FqWUSwH7rASnUopwjHeI+iga4f/ickIJqPSYYJi3MUqMrsw8Skn504xTVIanuwj75u0jeqWUQv6+eY/qXMnRlcQ4BtrvVEVWhtpWlRd8KndBCcHHfOFTvwtGNhxd4Ky94HGMDsSd64LFNE3C7IJiT/hyjGzhu6DYp1SOS2P93gVtnYi2+ZTSE1/jrV3ynFpKXx6bdlja1wyu+PSmKXrE0OZTiniehQWaruq8NCa/CBltGhGI8MlVQ8AZKi+uyF+afXNvvhUfc1/JQ5p99u+hlnYopcgYcZWYxctXDFfoliLjCTTD1tbNz6smP8JHJqqrZGbamHb/gckFH5myrprpwqSZaDCVq/Btj1hiOWnkx3XCVjQRYdMjsymseLKxGy202r8fW2/qS/tVI9ukAYGIqK6FmC/GZkeIRH4Aq2RQGIWzs8IAAAAASUVORK5CYII=;" parent="YrJhX_K_WhylSJP6Jxo8-1" vertex="1">
          <mxGeometry x="20" width="100" height="85.9" as="geometry" />
        </mxCell>
        <mxCell id="YrJhX_K_WhylSJP6Jxo8-3" value="&lt;font style=&quot;font-size: 18px;&quot;&gt;Redis Sessions&lt;/font&gt;" style="text;html=1;align=center;verticalAlign=middle;whiteSpace=wrap;rounded=0;fontSize=18;" parent="YrJhX_K_WhylSJP6Jxo8-1" vertex="1">
          <mxGeometry y="85.89999999999998" width="140" height="30" as="geometry" />
        </mxCell>
        <mxCell id="4mAMlsJQMf3aUo06--Eg-13" value="" style="group" parent="1" vertex="1" connectable="0">
          <mxGeometry x="827" y="663.3799999999999" width="475" height="170" as="geometry" />
        </mxCell>
        <object placeholders="1" c4Type="Inventory" c4Container="Container" c4Technology="NestJS" c4Description="Handles operations for products, including price and stock." label="&lt;font style=&quot;font-size: 16px&quot;&gt;&lt;b&gt;%c4Type%&lt;/b&gt;&lt;/font&gt;&lt;div&gt;[%c4Container%:&amp;nbsp;%c4Technology%]&lt;/div&gt;&lt;br&gt;&lt;div&gt;&lt;font style=&quot;font-size: 11px&quot;&gt;&lt;font color=&quot;#E6E6E6&quot;&gt;%c4Description%&lt;/font&gt;&lt;/div&gt;" id="4mAMlsJQMf3aUo06--Eg-14">
          <mxCell style="shape=hexagon;size=50;perimeter=hexagonPerimeter2;whiteSpace=wrap;html=1;fixedSize=1;rounded=1;labelBackgroundColor=none;fillColor=#23A2D9;fontSize=12;fontColor=#ffffff;align=center;strokeColor=#0E7DAD;metaEdit=1;points=[[0.5,0,0],[1,0.25,0],[1,0.5,0],[1,0.75,0],[0.5,1,0],[0,0.75,0],[0,0.5,0],[0,0.25,0]];resizable=0;container=0;" parent="4mAMlsJQMf3aUo06--Eg-13" vertex="1">
            <mxGeometry width="200" height="170" as="geometry" />
          </mxCell>
        </object>
        <object placeholders="1" c4Type="InventoryDB" c4Container="Container" c4Technology="PostgreSQL" c4Description="Stores data about products." label="&lt;font style=&quot;font-size: 16px&quot;&gt;&lt;b&gt;%c4Type%&lt;/b&gt;&lt;/font&gt;&lt;div&gt;[%c4Container%:&amp;nbsp;%c4Technology%]&lt;/div&gt;&lt;br&gt;&lt;div&gt;&lt;font style=&quot;font-size: 11px&quot;&gt;&lt;font color=&quot;#E6E6E6&quot;&gt;%c4Description%&lt;/font&gt;&lt;/div&gt;" id="4mAMlsJQMf3aUo06--Eg-15">
          <mxCell style="shape=cylinder3;size=15;whiteSpace=wrap;html=1;boundedLbl=1;rounded=0;labelBackgroundColor=none;fillColor=#23A2D9;fontSize=12;fontColor=#ffffff;align=center;strokeColor=#0E7DAD;metaEdit=1;points=[[0.5,0,0],[1,0.25,0],[1,0.5,0],[1,0.75,0],[0.5,1,0],[0,0.75,0],[0,0.5,0],[0,0.25,0]];resizable=0;container=0;" parent="4mAMlsJQMf3aUo06--Eg-13" vertex="1">
            <mxGeometry x="235" y="25" width="240" height="120" as="geometry" />
          </mxCell>
        </object>
        <mxCell id="4mAMlsJQMf3aUo06--Eg-16" value="" style="edgeStyle=orthogonalEdgeStyle;rounded=0;orthogonalLoop=1;jettySize=auto;html=1;exitX=1;exitY=0.5;exitDx=0;exitDy=0;exitPerimeter=0;entryX=0;entryY=0.5;entryDx=0;entryDy=0;entryPerimeter=0;endArrow=none;endFill=0;" parent="4mAMlsJQMf3aUo06--Eg-13" source="4mAMlsJQMf3aUo06--Eg-14" target="4mAMlsJQMf3aUo06--Eg-15" edge="1">
          <mxGeometry relative="1" as="geometry" />
        </mxCell>
        <mxCell id="4mAMlsJQMf3aUo06--Eg-17" value="" style="group" parent="1" vertex="1" connectable="0">
          <mxGeometry x="827" y="482.21999999999997" width="475" height="170" as="geometry" />
        </mxCell>
        <object placeholders="1" c4Type="Order" c4Container="Container" c4Technology="NestJS" c4Description="Handles operations for orders." label="&lt;font style=&quot;font-size: 16px&quot;&gt;&lt;b&gt;%c4Type%&lt;/b&gt;&lt;/font&gt;&lt;div&gt;[%c4Container%:&amp;nbsp;%c4Technology%]&lt;/div&gt;&lt;br&gt;&lt;div&gt;&lt;font style=&quot;font-size: 11px&quot;&gt;&lt;font color=&quot;#E6E6E6&quot;&gt;%c4Description%&lt;/font&gt;&lt;/div&gt;" id="4mAMlsJQMf3aUo06--Eg-18">
          <mxCell style="shape=hexagon;size=50;perimeter=hexagonPerimeter2;whiteSpace=wrap;html=1;fixedSize=1;rounded=1;labelBackgroundColor=none;fillColor=#23A2D9;fontSize=12;fontColor=#ffffff;align=center;strokeColor=#0E7DAD;metaEdit=1;points=[[0.5,0,0],[1,0.25,0],[1,0.5,0],[1,0.75,0],[0.5,1,0],[0,0.75,0],[0,0.5,0],[0,0.25,0]];resizable=0;container=0;" parent="4mAMlsJQMf3aUo06--Eg-17" vertex="1">
            <mxGeometry width="200" height="170" as="geometry" />
          </mxCell>
        </object>
        <object placeholders="1" c4Type="OrderDB" c4Container="Container" c4Technology="PostgreSQL" c4Description="Stores data about orders." label="&lt;font style=&quot;font-size: 16px&quot;&gt;&lt;b&gt;%c4Type%&lt;/b&gt;&lt;/font&gt;&lt;div&gt;[%c4Container%:&amp;nbsp;%c4Technology%]&lt;/div&gt;&lt;br&gt;&lt;div&gt;&lt;font style=&quot;font-size: 11px&quot;&gt;&lt;font color=&quot;#E6E6E6&quot;&gt;%c4Description%&lt;/font&gt;&lt;/div&gt;" id="4mAMlsJQMf3aUo06--Eg-19">
          <mxCell style="shape=cylinder3;size=15;whiteSpace=wrap;html=1;boundedLbl=1;rounded=0;labelBackgroundColor=none;fillColor=#23A2D9;fontSize=12;fontColor=#ffffff;align=center;strokeColor=#0E7DAD;metaEdit=1;points=[[0.5,0,0],[1,0.25,0],[1,0.5,0],[1,0.75,0],[0.5,1,0],[0,0.75,0],[0,0.5,0],[0,0.25,0]];resizable=0;container=0;" parent="4mAMlsJQMf3aUo06--Eg-17" vertex="1">
            <mxGeometry x="235" y="25" width="240" height="120" as="geometry" />
          </mxCell>
        </object>
        <mxCell id="4mAMlsJQMf3aUo06--Eg-20" value="" style="edgeStyle=orthogonalEdgeStyle;rounded=0;orthogonalLoop=1;jettySize=auto;html=1;exitX=1;exitY=0.5;exitDx=0;exitDy=0;exitPerimeter=0;entryX=0;entryY=0.5;entryDx=0;entryDy=0;entryPerimeter=0;endArrow=none;endFill=0;" parent="4mAMlsJQMf3aUo06--Eg-17" source="4mAMlsJQMf3aUo06--Eg-18" target="4mAMlsJQMf3aUo06--Eg-19" edge="1">
          <mxGeometry relative="1" as="geometry" />
        </mxCell>
        <mxCell id="4mAMlsJQMf3aUo06--Eg-21" value="" style="group;" parent="1" vertex="1" connectable="0">
          <mxGeometry x="822" y="300.29" width="480" height="170" as="geometry" />
        </mxCell>
        <object placeholders="1" c4Type="User" c4Container="Container" c4Technology="NestJS" c4Description="Handles user data." label="&lt;font style=&quot;font-size: 16px&quot;&gt;&lt;b&gt;%c4Type%&lt;/b&gt;&lt;/font&gt;&lt;div&gt;[%c4Container%:&amp;nbsp;%c4Technology%]&lt;/div&gt;&lt;br&gt;&lt;div&gt;&lt;font style=&quot;font-size: 11px&quot;&gt;&lt;font color=&quot;#E6E6E6&quot;&gt;%c4Description%&lt;/font&gt;&lt;/div&gt;" id="4mAMlsJQMf3aUo06--Eg-22">
          <mxCell style="shape=hexagon;size=50;perimeter=hexagonPerimeter2;whiteSpace=wrap;html=1;fixedSize=1;rounded=1;labelBackgroundColor=none;fillColor=#23A2D9;fontSize=12;fontColor=#ffffff;align=center;strokeColor=#0E7DAD;metaEdit=1;points=[[0.5,0,0],[1,0.25,0],[1,0.5,0],[1,0.75,0],[0.5,1,0],[0,0.75,0],[0,0.5,0],[0,0.25,0]];resizable=0;" parent="4mAMlsJQMf3aUo06--Eg-21" vertex="1">
            <mxGeometry width="200" height="170" as="geometry" />
          </mxCell>
        </object>
        <object placeholders="1" c4Type="UserDB" c4Container="Container" c4Technology="PostgreSQL" c4Description="Stores authentication credentials, and roles of users." label="&lt;font style=&quot;font-size: 16px&quot;&gt;&lt;b&gt;%c4Type%&lt;/b&gt;&lt;/font&gt;&lt;div&gt;[%c4Container%:&amp;nbsp;%c4Technology%]&lt;/div&gt;&lt;br&gt;&lt;div&gt;&lt;font style=&quot;font-size: 11px&quot;&gt;&lt;font color=&quot;#E6E6E6&quot;&gt;%c4Description%&lt;/font&gt;&lt;/div&gt;" id="4mAMlsJQMf3aUo06--Eg-23">
          <mxCell style="shape=cylinder3;size=15;whiteSpace=wrap;html=1;boundedLbl=1;rounded=0;labelBackgroundColor=none;fillColor=#23A2D9;fontSize=12;fontColor=#ffffff;align=center;strokeColor=#0E7DAD;metaEdit=1;points=[[0.5,0,0],[1,0.25,0],[1,0.5,0],[1,0.75,0],[0.5,1,0],[0,0.75,0],[0,0.5,0],[0,0.25,0]];resizable=0;" parent="4mAMlsJQMf3aUo06--Eg-21" vertex="1">
            <mxGeometry x="240" y="25" width="240" height="120" as="geometry" />
          </mxCell>
        </object>
        <mxCell id="4mAMlsJQMf3aUo06--Eg-24" value="" style="edgeStyle=orthogonalEdgeStyle;rounded=0;orthogonalLoop=1;jettySize=auto;html=1;exitX=1;exitY=0.5;exitDx=0;exitDy=0;exitPerimeter=0;endArrow=none;endFill=0;entryX=0;entryY=0.5;entryDx=0;entryDy=0;entryPerimeter=0;" parent="4mAMlsJQMf3aUo06--Eg-21" source="4mAMlsJQMf3aUo06--Eg-22" target="4mAMlsJQMf3aUo06--Eg-23" edge="1">
          <mxGeometry relative="1" as="geometry">
            <mxPoint x="225" y="100" as="targetPoint" />
          </mxGeometry>
        </mxCell>
        <mxCell id="1SsYikCAc0eKjyBBxgKa-2" style="edgeStyle=orthogonalEdgeStyle;rounded=0;orthogonalLoop=1;jettySize=auto;html=1;exitX=0;exitY=0.5;exitDx=0;exitDy=0;exitPerimeter=0;entryX=1;entryY=0.5;entryDx=0;entryDy=0;" parent="1" source="4mAMlsJQMf3aUo06--Eg-22" target="javZEo8Pop0UP9xMLVNB-11" edge="1">
          <mxGeometry relative="1" as="geometry">
            <Array as="points">
              <mxPoint x="740" y="385" />
              <mxPoint x="740" y="567" />
            </Array>
          </mxGeometry>
        </mxCell>
        <mxCell id="1SsYikCAc0eKjyBBxgKa-3" style="edgeStyle=orthogonalEdgeStyle;rounded=0;orthogonalLoop=1;jettySize=auto;html=1;exitX=0;exitY=0.5;exitDx=0;exitDy=0;exitPerimeter=0;entryX=1;entryY=0.5;entryDx=0;entryDy=0;" parent="1" source="4mAMlsJQMf3aUo06--Eg-18" target="javZEo8Pop0UP9xMLVNB-11" edge="1">
          <mxGeometry relative="1" as="geometry" />
        </mxCell>
        <mxCell id="1SsYikCAc0eKjyBBxgKa-4" style="edgeStyle=orthogonalEdgeStyle;rounded=0;orthogonalLoop=1;jettySize=auto;html=1;exitX=0;exitY=0.5;exitDx=0;exitDy=0;exitPerimeter=0;entryX=1;entryY=0.5;entryDx=0;entryDy=0;" parent="1" source="4mAMlsJQMf3aUo06--Eg-14" target="javZEo8Pop0UP9xMLVNB-11" edge="1">
          <mxGeometry relative="1" as="geometry" />
        </mxCell>
        <mxCell id="1SsYikCAc0eKjyBBxgKa-5" value="send/receive messages" style="edgeLabel;html=1;align=center;verticalAlign=middle;resizable=0;points=[];" parent="1SsYikCAc0eKjyBBxgKa-4" vertex="1" connectable="0">
          <mxGeometry x="0.8214" relative="1" as="geometry">
            <mxPoint x="54" as="offset" />
          </mxGeometry>
        </mxCell>
        <mxCell id="9_Uz39phtjB1Z9_ed3OA-1" style="edgeStyle=orthogonalEdgeStyle;rounded=0;orthogonalLoop=1;jettySize=auto;html=1;exitX=1;exitY=0.25;exitDx=0;exitDy=0;exitPerimeter=0;entryX=0.215;entryY=0.051;entryDx=0;entryDy=0;entryPerimeter=0;" edge="1" parent="1" source="javZEo8Pop0UP9xMLVNB-2" target="4mAMlsJQMf3aUo06--Eg-22">
          <mxGeometry relative="1" as="geometry">
            <Array as="points">
              <mxPoint x="331" y="537" />
              <mxPoint x="331" y="309" />
            </Array>
          </mxGeometry>
        </mxCell>
        <mxCell id="9_Uz39phtjB1Z9_ed3OA-2" value="tcp" style="edgeLabel;html=1;align=center;verticalAlign=middle;resizable=0;points=[];" vertex="1" connectable="0" parent="9_Uz39phtjB1Z9_ed3OA-1">
          <mxGeometry x="0.072" y="-3" relative="1" as="geometry">
            <mxPoint x="24" y="-5" as="offset" />
          </mxGeometry>
        </mxCell>
        <mxCell id="9_Uz39phtjB1Z9_ed3OA-3" style="edgeStyle=orthogonalEdgeStyle;rounded=0;orthogonalLoop=1;jettySize=auto;html=1;exitX=1;exitY=0.75;exitDx=0;exitDy=0;exitPerimeter=0;entryX=0.17;entryY=0.916;entryDx=0;entryDy=0;entryPerimeter=0;" edge="1" parent="1" source="javZEo8Pop0UP9xMLVNB-2" target="4mAMlsJQMf3aUo06--Eg-18">
          <mxGeometry relative="1" as="geometry">
            <Array as="points">
              <mxPoint x="331" y="597" />
              <mxPoint x="331" y="638" />
            </Array>
          </mxGeometry>
        </mxCell>
        <mxCell id="9_Uz39phtjB1Z9_ed3OA-4" value="tcp" style="edgeLabel;html=1;align=center;verticalAlign=middle;resizable=0;points=[];" vertex="1" connectable="0" parent="9_Uz39phtjB1Z9_ed3OA-3">
          <mxGeometry x="-0.1244" y="-1" relative="1" as="geometry">
            <mxPoint as="offset" />
          </mxGeometry>
        </mxCell>
      </root>
    </mxGraphModel>
  </diagram>
  <diagram id="yHIkmipufwCL68ZY5_5L" name="register">
    <mxGraphModel dx="1418" dy="828" grid="1" gridSize="10" guides="1" tooltips="1" connect="1" arrows="1" fold="1" page="1" pageScale="1" pageWidth="850" pageHeight="1100" math="0" shadow="0">
      <root>
        <mxCell id="0" />
        <mxCell id="1" parent="0" />
        <object placeholders="1" c4Name="Frontend" c4Type="Container" c4Technology="React, TypeScript" c4Description="Web interface utilizing NexusMeals backend functionalities" label="&lt;font style=&quot;font-size: 16px&quot;&gt;&lt;b&gt;%c4Name%&lt;/b&gt;&lt;/font&gt;&lt;div&gt;[%c4Type%: %c4Technology%]&lt;/div&gt;&lt;br&gt;&lt;div&gt;&lt;font style=&quot;font-size: 11px&quot;&gt;&lt;font color=&quot;#E6E6E6&quot;&gt;%c4Description%&lt;/font&gt;&lt;/div&gt;" id="fX_pwpKQDAoQoc5Cvztt-1">
          <mxCell style="rounded=1;whiteSpace=wrap;html=1;fontSize=11;labelBackgroundColor=none;fillColor=#23A2D9;fontColor=#ffffff;align=center;arcSize=10;strokeColor=#0E7DAD;metaEdit=1;resizable=0;points=[[0.25,0,0],[0.5,0,0],[0.75,0,0],[1,0.25,0],[1,0.5,0],[1,0.75,0],[0.75,1,0],[0.5,1,0],[0.25,1,0],[0,0.75,0],[0,0.5,0],[0,0.25,0]];" parent="1" vertex="1">
            <mxGeometry x="85" y="440" width="240" height="120" as="geometry" />
          </mxCell>
        </object>
        <object placeholders="1" c4Name="API Gateway" c4Type="Container" c4Technology="NestJS" c4Description="Receives requests and routes them to microservices." label="&lt;font style=&quot;font-size: 16px&quot;&gt;&lt;b&gt;%c4Name%&lt;/b&gt;&lt;/font&gt;&lt;div&gt;[%c4Type%: %c4Technology%]&lt;/div&gt;&lt;br&gt;&lt;div&gt;&lt;font style=&quot;font-size: 11px&quot;&gt;&lt;font color=&quot;#E6E6E6&quot;&gt;%c4Description%&lt;/font&gt;&lt;/div&gt;" id="fX_pwpKQDAoQoc5Cvztt-3">
          <mxCell style="rounded=1;whiteSpace=wrap;html=1;fontSize=11;labelBackgroundColor=none;fillColor=#23A2D9;fontColor=#ffffff;align=center;arcSize=10;strokeColor=#0E7DAD;metaEdit=1;resizable=0;points=[[0.25,0,0],[0.5,0,0],[0.75,0,0],[1,0.25,0],[1,0.5,0],[1,0.75,0],[0.75,1,0],[0.5,1,0],[0.25,1,0],[0,0.75,0],[0,0.5,0],[0,0.25,0]];" parent="1" vertex="1">
            <mxGeometry x="445" y="440" width="240" height="120" as="geometry" />
          </mxCell>
        </object>
        <mxCell id="fX_pwpKQDAoQoc5Cvztt-4" value="" style="group" parent="1" vertex="1" connectable="0">
          <mxGeometry x="444.99999999999994" y="650" width="240" height="340" as="geometry" />
        </mxCell>
        <object placeholders="1" c4Type="User" c4Container="Container" c4Technology="NestJS" c4Description="Handles user data." label="&lt;font style=&quot;font-size: 16px&quot;&gt;&lt;b&gt;%c4Type%&lt;/b&gt;&lt;/font&gt;&lt;div&gt;[%c4Container%:&amp;nbsp;%c4Technology%]&lt;/div&gt;&lt;br&gt;&lt;div&gt;&lt;font style=&quot;font-size: 11px&quot;&gt;&lt;font color=&quot;#E6E6E6&quot;&gt;%c4Description%&lt;/font&gt;&lt;/div&gt;" id="fX_pwpKQDAoQoc5Cvztt-5">
          <mxCell style="shape=hexagon;size=50;perimeter=hexagonPerimeter2;whiteSpace=wrap;html=1;fixedSize=1;rounded=1;labelBackgroundColor=none;fillColor=#23A2D9;fontSize=12;fontColor=#ffffff;align=center;strokeColor=#0E7DAD;metaEdit=1;points=[[0.5,0,0],[1,0.25,0],[1,0.5,0],[1,0.75,0],[0.5,1,0],[0,0.75,0],[0,0.5,0],[0,0.25,0]];resizable=0;" parent="fX_pwpKQDAoQoc5Cvztt-4" vertex="1">
            <mxGeometry x="20" width="200" height="170" as="geometry" />
          </mxCell>
        </object>
        <object placeholders="1" c4Type="UserDB" c4Container="Container" c4Technology="MySQL" c4Description="Stores authentication credentials, and roles of users." label="&lt;font style=&quot;font-size: 16px&quot;&gt;&lt;b&gt;%c4Type%&lt;/b&gt;&lt;/font&gt;&lt;div&gt;[%c4Container%:&amp;nbsp;%c4Technology%]&lt;/div&gt;&lt;br&gt;&lt;div&gt;&lt;font style=&quot;font-size: 11px&quot;&gt;&lt;font color=&quot;#E6E6E6&quot;&gt;%c4Description%&lt;/font&gt;&lt;/div&gt;" id="fX_pwpKQDAoQoc5Cvztt-6">
          <mxCell style="shape=cylinder3;size=15;whiteSpace=wrap;html=1;boundedLbl=1;rounded=0;labelBackgroundColor=none;fillColor=#23A2D9;fontSize=12;fontColor=#ffffff;align=center;strokeColor=#0E7DAD;metaEdit=1;points=[[0.5,0,0],[1,0.25,0],[1,0.5,0],[1,0.75,0],[0.5,1,0],[0,0.75,0],[0,0.5,0],[0,0.25,0]];resizable=0;" parent="fX_pwpKQDAoQoc5Cvztt-4" vertex="1">
            <mxGeometry y="220" width="240" height="120" as="geometry" />
          </mxCell>
        </object>
        <mxCell id="fX_pwpKQDAoQoc5Cvztt-7" value="" style="edgeStyle=orthogonalEdgeStyle;rounded=0;orthogonalLoop=1;jettySize=auto;html=1;exitX=0.5;exitY=1;exitDx=0;exitDy=0;exitPerimeter=0;endArrow=none;endFill=0;entryX=0.5;entryY=0;entryDx=0;entryDy=0;entryPerimeter=0;" parent="fX_pwpKQDAoQoc5Cvztt-4" source="fX_pwpKQDAoQoc5Cvztt-5" target="fX_pwpKQDAoQoc5Cvztt-6" edge="1">
          <mxGeometry relative="1" as="geometry">
            <mxPoint x="155" y="200" as="targetPoint" />
            <Array as="points">
              <mxPoint x="120" y="210" />
              <mxPoint x="120" y="210" />
            </Array>
          </mxGeometry>
        </mxCell>
        <mxCell id="fX_pwpKQDAoQoc5Cvztt-8" style="edgeStyle=orthogonalEdgeStyle;rounded=0;orthogonalLoop=1;jettySize=auto;html=1;exitX=1;exitY=0.5;exitDx=0;exitDy=0;exitPerimeter=0;entryX=0;entryY=0.5;entryDx=0;entryDy=0;entryPerimeter=0;" parent="1" source="fX_pwpKQDAoQoc5Cvztt-1" target="fX_pwpKQDAoQoc5Cvztt-3" edge="1">
          <mxGeometry relative="1" as="geometry" />
        </mxCell>
        <mxCell id="fX_pwpKQDAoQoc5Cvztt-9" value="https" style="edgeLabel;html=1;align=center;verticalAlign=middle;resizable=0;points=[];" parent="fX_pwpKQDAoQoc5Cvztt-8" vertex="1" connectable="0">
          <mxGeometry x="-0.2" y="-2" relative="1" as="geometry">
            <mxPoint x="12" y="-2" as="offset" />
          </mxGeometry>
        </mxCell>
        <mxCell id="fX_pwpKQDAoQoc5Cvztt-11" value="(1) register&lt;br&gt;[user info]" style="text;html=1;strokeColor=none;fillColor=#E6E6E6;align=center;verticalAlign=middle;whiteSpace=wrap;rounded=0;fontColor=#009900;fontStyle=1" parent="1" vertex="1">
          <mxGeometry x="340" y="460" width="90" height="30" as="geometry" />
        </mxCell>
        <mxCell id="fX_pwpKQDAoQoc5Cvztt-12" style="edgeStyle=orthogonalEdgeStyle;rounded=0;orthogonalLoop=1;jettySize=auto;html=1;exitX=0.5;exitY=1;exitDx=0;exitDy=0;exitPerimeter=0;entryX=0.5;entryY=0;entryDx=0;entryDy=0;entryPerimeter=0;" parent="1" source="fX_pwpKQDAoQoc5Cvztt-3" target="fX_pwpKQDAoQoc5Cvztt-5" edge="1">
          <mxGeometry relative="1" as="geometry" />
        </mxCell>
        <mxCell id="fX_pwpKQDAoQoc5Cvztt-13" value="amqp-rpc" style="edgeLabel;html=1;align=center;verticalAlign=middle;resizable=0;points=[];" parent="fX_pwpKQDAoQoc5Cvztt-12" vertex="1" connectable="0">
          <mxGeometry x="-0.0889" y="-3" relative="1" as="geometry">
            <mxPoint as="offset" />
          </mxGeometry>
        </mxCell>
        <mxCell id="fX_pwpKQDAoQoc5Cvztt-14" value="(2) register&lt;br&gt;[userinfo]&lt;br&gt;&lt;br&gt;(3) return: UserDTO" style="text;html=1;strokeColor=none;fillColor=#E6E6E6;align=center;verticalAlign=middle;whiteSpace=wrap;rounded=0;fontColor=#009900;fontStyle=1" parent="1" vertex="1">
          <mxGeometry x="605" y="570" width="160" height="70" as="geometry" />
        </mxCell>
        <mxCell id="fX_pwpKQDAoQoc5Cvztt-16" style="edgeStyle=orthogonalEdgeStyle;rounded=0;orthogonalLoop=1;jettySize=auto;html=1;exitX=0.5;exitY=1;exitDx=0;exitDy=0;exitPerimeter=0;entryX=0.5;entryY=0;entryDx=0;entryDy=0;entryPerimeter=0;" parent="1" source="fX_pwpKQDAoQoc5Cvztt-17" target="fX_pwpKQDAoQoc5Cvztt-1" edge="1">
          <mxGeometry relative="1" as="geometry">
            <mxPoint x="195" y="400" as="targetPoint" />
          </mxGeometry>
        </mxCell>
        <object placeholders="1" c4Name="Customer" c4Type="Person" c4Description="Responsible for placing orders." label="&lt;font style=&quot;font-size: 16px&quot;&gt;&lt;b&gt;%c4Name%&lt;/b&gt;&lt;/font&gt;&lt;div&gt;[%c4Type%]&lt;/div&gt;&lt;br&gt;&lt;div&gt;&lt;font style=&quot;font-size: 11px&quot;&gt;&lt;font color=&quot;#cccccc&quot;&gt;%c4Description%&lt;/font&gt;&lt;/div&gt;" id="fX_pwpKQDAoQoc5Cvztt-17">
          <mxCell style="html=1;fontSize=11;dashed=0;whiteSpace=wrap;fillColor=#083F75;strokeColor=#06315C;fontColor=#ffffff;shape=mxgraph.c4.person2;align=center;metaEdit=1;points=[[0.5,0,0],[1,0.5,0],[1,0.75,0],[0.75,1,0],[0.5,1,0],[0.25,1,0],[0,0.75,0],[0,0.5,0]];resizable=0;rounded=1;" parent="1" vertex="1">
            <mxGeometry x="545" y="90" width="200" height="180" as="geometry" />
          </mxCell>
        </object>
        <mxCell id="fX_pwpKQDAoQoc5Cvztt-18" style="edgeStyle=orthogonalEdgeStyle;rounded=0;orthogonalLoop=1;jettySize=auto;html=1;exitX=0.5;exitY=1;exitDx=0;exitDy=0;exitPerimeter=0;entryX=0.5;entryY=0;entryDx=0;entryDy=0;entryPerimeter=0;" parent="1" source="fX_pwpKQDAoQoc5Cvztt-19" target="fX_pwpKQDAoQoc5Cvztt-1" edge="1">
          <mxGeometry relative="1" as="geometry">
            <mxPoint x="185" y="380" as="targetPoint" />
          </mxGeometry>
        </mxCell>
        <object placeholders="1" c4Name="Courier" c4Type="Person" c4Description="Responsible for delivering customer orders." label="&lt;font style=&quot;font-size: 16px&quot;&gt;&lt;b&gt;%c4Name%&lt;/b&gt;&lt;/font&gt;&lt;div&gt;[%c4Type%]&lt;/div&gt;&lt;br&gt;&lt;div&gt;&lt;font style=&quot;font-size: 11px&quot;&gt;&lt;font color=&quot;#cccccc&quot;&gt;%c4Description%&lt;/font&gt;&lt;/div&gt;" id="fX_pwpKQDAoQoc5Cvztt-19">
          <mxCell style="html=1;fontSize=11;dashed=0;whiteSpace=wrap;fillColor=#083F75;strokeColor=#06315C;fontColor=#ffffff;shape=mxgraph.c4.person2;align=center;metaEdit=1;points=[[0.5,0,0],[1,0.5,0],[1,0.75,0],[0.75,1,0],[0.5,1,0],[0.25,1,0],[0,0.75,0],[0,0.5,0]];resizable=0;rounded=1;" parent="1" vertex="1">
            <mxGeometry x="105" y="90" width="200" height="180" as="geometry" />
          </mxCell>
        </object>
        <object placeholders="1" c4Name="Chef" c4Type="Person" c4Description="Responsible for CRUD-ing orders." label="&lt;font style=&quot;font-size: 16px&quot;&gt;&lt;b&gt;%c4Name%&lt;/b&gt;&lt;/font&gt;&lt;div&gt;[%c4Type%]&lt;/div&gt;&lt;br&gt;&lt;div&gt;&lt;font style=&quot;font-size: 11px&quot;&gt;&lt;font color=&quot;#cccccc&quot;&gt;%c4Description%&lt;/font&gt;&lt;/div&gt;" id="fX_pwpKQDAoQoc5Cvztt-20">
          <mxCell style="html=1;fontSize=11;dashed=0;whiteSpace=wrap;fillColor=#083F75;strokeColor=#06315C;fontColor=#ffffff;shape=mxgraph.c4.person2;align=center;metaEdit=1;points=[[0.5,0,0],[1,0.5,0],[1,0.75,0],[0.75,1,0],[0.5,1,0],[0.25,1,0],[0,0.75,0],[0,0.5,0]];resizable=0;rounded=1;" parent="1" vertex="1">
            <mxGeometry x="325" y="90" width="200" height="180" as="geometry" />
          </mxCell>
        </object>
        <mxCell id="fX_pwpKQDAoQoc5Cvztt-23" style="edgeStyle=orthogonalEdgeStyle;rounded=0;orthogonalLoop=1;jettySize=auto;html=1;exitX=0.5;exitY=1;exitDx=0;exitDy=0;exitPerimeter=0;entryX=0.5;entryY=0;entryDx=0;entryDy=0;entryPerimeter=0;" parent="1" source="fX_pwpKQDAoQoc5Cvztt-20" target="fX_pwpKQDAoQoc5Cvztt-1" edge="1">
          <mxGeometry relative="1" as="geometry" />
        </mxCell>
      </root>
    </mxGraphModel>
  </diagram>
  <diagram id="ZoVLwLgJUw3h0xaJ72Nk" name="login">
    <mxGraphModel dx="1418" dy="828" grid="1" gridSize="10" guides="1" tooltips="1" connect="1" arrows="1" fold="1" page="1" pageScale="1" pageWidth="850" pageHeight="1100" math="0" shadow="0">
      <root>
        <mxCell id="0" />
        <mxCell id="1" parent="0" />
        <object placeholders="1" c4Name="Frontend" c4Type="Container" c4Technology="React, TypeScript" c4Description="Web interface utilizing NexusMeals backend functionalities" label="&lt;font style=&quot;font-size: 16px&quot;&gt;&lt;b&gt;%c4Name%&lt;/b&gt;&lt;/font&gt;&lt;div&gt;[%c4Type%: %c4Technology%]&lt;/div&gt;&lt;br&gt;&lt;div&gt;&lt;font style=&quot;font-size: 11px&quot;&gt;&lt;font color=&quot;#E6E6E6&quot;&gt;%c4Description%&lt;/font&gt;&lt;/div&gt;" id="_AJas53ffk_aQXCj0V_U-1">
          <mxCell style="rounded=1;whiteSpace=wrap;html=1;fontSize=11;labelBackgroundColor=none;fillColor=#23A2D9;fontColor=#ffffff;align=center;arcSize=10;strokeColor=#0E7DAD;metaEdit=1;resizable=0;points=[[0.25,0,0],[0.5,0,0],[0.75,0,0],[1,0.25,0],[1,0.5,0],[1,0.75,0],[0.75,1,0],[0.5,1,0],[0.25,1,0],[0,0.75,0],[0,0.5,0],[0,0.25,0]];" parent="1" vertex="1">
            <mxGeometry x="85" y="440" width="240" height="120" as="geometry" />
          </mxCell>
        </object>
        <mxCell id="xhcmt6_d5q8Ha636NSSm-1" style="edgeStyle=orthogonalEdgeStyle;rounded=0;orthogonalLoop=1;jettySize=auto;html=1;exitX=0.25;exitY=1;exitDx=0;exitDy=0;exitPerimeter=0;entryX=0.5;entryY=0;entryDx=0;entryDy=0;dashed=1;dashPattern=1 4;" parent="1" source="_AJas53ffk_aQXCj0V_U-2" target="tt4gwo77zQlZ1MMWyrOU-2" edge="1">
          <mxGeometry relative="1" as="geometry">
            <mxPoint x="241.93499999999995" y="630" as="targetPoint" />
          </mxGeometry>
        </mxCell>
        <object placeholders="1" c4Name="API Gateway" c4Type="Container" c4Technology="NestJS" c4Description="Receives requests and routes them to microservices." label="&lt;font style=&quot;font-size: 16px&quot;&gt;&lt;b&gt;%c4Name%&lt;/b&gt;&lt;/font&gt;&lt;div&gt;[%c4Type%: %c4Technology%]&lt;/div&gt;&lt;br&gt;&lt;div&gt;&lt;font style=&quot;font-size: 11px&quot;&gt;&lt;font color=&quot;#E6E6E6&quot;&gt;%c4Description%&lt;/font&gt;&lt;/div&gt;" id="_AJas53ffk_aQXCj0V_U-2">
          <mxCell style="rounded=1;whiteSpace=wrap;html=1;fontSize=11;labelBackgroundColor=none;fillColor=#23A2D9;fontColor=#ffffff;align=center;arcSize=10;strokeColor=#0E7DAD;metaEdit=1;resizable=0;points=[[0.25,0,0],[0.5,0,0],[0.75,0,0],[1,0.25,0],[1,0.5,0],[1,0.75,0],[0.75,1,0],[0.5,1,0],[0.25,1,0],[0,0.75,0],[0,0.5,0],[0,0.25,0]];" parent="1" vertex="1">
            <mxGeometry x="445" y="440" width="240" height="120" as="geometry" />
          </mxCell>
        </object>
        <mxCell id="_AJas53ffk_aQXCj0V_U-3" value="" style="group" parent="1" vertex="1" connectable="0">
          <mxGeometry x="444.99999999999994" y="650" width="240" height="340" as="geometry" />
        </mxCell>
        <object placeholders="1" c4Type="User" c4Container="Container" c4Technology="NestJS" c4Description="Handles user data." label="&lt;font style=&quot;font-size: 16px&quot;&gt;&lt;b&gt;%c4Type%&lt;/b&gt;&lt;/font&gt;&lt;div&gt;[%c4Container%:&amp;nbsp;%c4Technology%]&lt;/div&gt;&lt;br&gt;&lt;div&gt;&lt;font style=&quot;font-size: 11px&quot;&gt;&lt;font color=&quot;#E6E6E6&quot;&gt;%c4Description%&lt;/font&gt;&lt;/div&gt;" id="_AJas53ffk_aQXCj0V_U-4">
          <mxCell style="shape=hexagon;size=50;perimeter=hexagonPerimeter2;whiteSpace=wrap;html=1;fixedSize=1;rounded=1;labelBackgroundColor=none;fillColor=#23A2D9;fontSize=12;fontColor=#ffffff;align=center;strokeColor=#0E7DAD;metaEdit=1;points=[[0.5,0,0],[1,0.25,0],[1,0.5,0],[1,0.75,0],[0.5,1,0],[0,0.75,0],[0,0.5,0],[0,0.25,0]];resizable=0;" parent="_AJas53ffk_aQXCj0V_U-3" vertex="1">
            <mxGeometry x="20" width="200" height="170" as="geometry" />
          </mxCell>
        </object>
        <object placeholders="1" c4Type="UserDB" c4Container="Container" c4Technology="MySQL" c4Description="Stores authentication credentials, and roles of users." label="&lt;font style=&quot;font-size: 16px&quot;&gt;&lt;b&gt;%c4Type%&lt;/b&gt;&lt;/font&gt;&lt;div&gt;[%c4Container%:&amp;nbsp;%c4Technology%]&lt;/div&gt;&lt;br&gt;&lt;div&gt;&lt;font style=&quot;font-size: 11px&quot;&gt;&lt;font color=&quot;#E6E6E6&quot;&gt;%c4Description%&lt;/font&gt;&lt;/div&gt;" id="_AJas53ffk_aQXCj0V_U-5">
          <mxCell style="shape=cylinder3;size=15;whiteSpace=wrap;html=1;boundedLbl=1;rounded=0;labelBackgroundColor=none;fillColor=#23A2D9;fontSize=12;fontColor=#ffffff;align=center;strokeColor=#0E7DAD;metaEdit=1;points=[[0.5,0,0],[1,0.25,0],[1,0.5,0],[1,0.75,0],[0.5,1,0],[0,0.75,0],[0,0.5,0],[0,0.25,0]];resizable=0;" parent="_AJas53ffk_aQXCj0V_U-3" vertex="1">
            <mxGeometry y="220" width="240" height="120" as="geometry" />
          </mxCell>
        </object>
        <mxCell id="_AJas53ffk_aQXCj0V_U-6" value="" style="edgeStyle=orthogonalEdgeStyle;rounded=0;orthogonalLoop=1;jettySize=auto;html=1;exitX=0.5;exitY=1;exitDx=0;exitDy=0;exitPerimeter=0;endArrow=none;endFill=0;entryX=0.5;entryY=0;entryDx=0;entryDy=0;entryPerimeter=0;" parent="_AJas53ffk_aQXCj0V_U-3" source="_AJas53ffk_aQXCj0V_U-4" target="_AJas53ffk_aQXCj0V_U-5" edge="1">
          <mxGeometry relative="1" as="geometry">
            <mxPoint x="155" y="200" as="targetPoint" />
            <Array as="points">
              <mxPoint x="120" y="210" />
              <mxPoint x="120" y="210" />
            </Array>
          </mxGeometry>
        </mxCell>
        <mxCell id="_AJas53ffk_aQXCj0V_U-9" style="edgeStyle=orthogonalEdgeStyle;rounded=0;orthogonalLoop=1;jettySize=auto;html=1;exitX=1;exitY=0.5;exitDx=0;exitDy=0;exitPerimeter=0;entryX=0;entryY=0.5;entryDx=0;entryDy=0;entryPerimeter=0;" parent="1" source="_AJas53ffk_aQXCj0V_U-1" target="_AJas53ffk_aQXCj0V_U-2" edge="1">
          <mxGeometry relative="1" as="geometry" />
        </mxCell>
        <mxCell id="IjJ349cTrGDkSFmgCavY-3" value="https" style="edgeLabel;html=1;align=center;verticalAlign=middle;resizable=0;points=[];" parent="_AJas53ffk_aQXCj0V_U-9" vertex="1" connectable="0">
          <mxGeometry x="-0.2" y="-2" relative="1" as="geometry">
            <mxPoint x="12" y="-2" as="offset" />
          </mxGeometry>
        </mxCell>
        <mxCell id="IjJ349cTrGDkSFmgCavY-2" value="(1) login&lt;br&gt;[credentials]" style="text;html=1;strokeColor=none;fillColor=#E6E6E6;align=center;verticalAlign=middle;whiteSpace=wrap;rounded=0;fontColor=#009900;fontStyle=1" parent="1" vertex="1">
          <mxGeometry x="340" y="460" width="90" height="30" as="geometry" />
        </mxCell>
        <mxCell id="IjJ349cTrGDkSFmgCavY-4" style="edgeStyle=orthogonalEdgeStyle;rounded=0;orthogonalLoop=1;jettySize=auto;html=1;exitX=0.5;exitY=1;exitDx=0;exitDy=0;exitPerimeter=0;entryX=0.5;entryY=0;entryDx=0;entryDy=0;entryPerimeter=0;" parent="1" source="_AJas53ffk_aQXCj0V_U-2" target="_AJas53ffk_aQXCj0V_U-4" edge="1">
          <mxGeometry relative="1" as="geometry" />
        </mxCell>
        <mxCell id="IjJ349cTrGDkSFmgCavY-5" value="amqp-rpc" style="edgeLabel;html=1;align=center;verticalAlign=middle;resizable=0;points=[];" parent="IjJ349cTrGDkSFmgCavY-4" vertex="1" connectable="0">
          <mxGeometry x="-0.0889" y="-3" relative="1" as="geometry">
            <mxPoint as="offset" />
          </mxGeometry>
        </mxCell>
        <mxCell id="IjJ349cTrGDkSFmgCavY-8" value="(2) verifyPassword&lt;br&gt;[credentials]&lt;br&gt;&lt;br&gt;(3) return: UserDTO" style="text;html=1;strokeColor=none;fillColor=#E6E6E6;align=center;verticalAlign=middle;whiteSpace=wrap;rounded=0;fontColor=#009900;fontStyle=1" parent="1" vertex="1">
          <mxGeometry x="605" y="570" width="160" height="70" as="geometry" />
        </mxCell>
        <mxCell id="Q4XEVA-dvfHRDyXfNCwf-2" value="&lt;div style=&quot;text-align: left;&quot;&gt;&lt;span style=&quot;background-color: initial;&quot;&gt;(5) return:&amp;nbsp;&lt;/span&gt;&lt;span style=&quot;background-color: initial;&quot;&gt;UserDTO +&amp;nbsp;&lt;/span&gt;&lt;/div&gt;&lt;div style=&quot;text-align: left;&quot;&gt;&lt;span style=&quot;background-color: initial;&quot;&gt;httpOnlyCookie(&lt;/span&gt;&lt;span style=&quot;background-color: initial;&quot;&gt;accessToken,&amp;nbsp;&lt;/span&gt;&lt;/div&gt;&lt;div style=&quot;text-align: left;&quot;&gt;&lt;span style=&quot;background-color: initial;&quot;&gt;refreshToken&lt;/span&gt;&lt;span style=&quot;background-color: initial;&quot;&gt;)&lt;/span&gt;&lt;/div&gt;&lt;div&gt;&lt;/div&gt;" style="text;html=1;strokeColor=none;fillColor=#E6E6E6;align=center;verticalAlign=middle;whiteSpace=wrap;rounded=0;fontColor=#009900;fontStyle=1" parent="1" vertex="1">
          <mxGeometry x="375" y="390" width="190" height="60" as="geometry" />
        </mxCell>
        <mxCell id="8j2D1UKSxRV3CXa8J0e3-4" style="edgeStyle=orthogonalEdgeStyle;rounded=0;orthogonalLoop=1;jettySize=auto;html=1;exitX=0.5;exitY=1;exitDx=0;exitDy=0;exitPerimeter=0;entryX=0.5;entryY=0;entryDx=0;entryDy=0;entryPerimeter=0;" parent="1" source="8Xx1QfL2VHSzOQFCI0ut-2" target="_AJas53ffk_aQXCj0V_U-1" edge="1">
          <mxGeometry relative="1" as="geometry">
            <mxPoint x="195" y="400" as="targetPoint" />
          </mxGeometry>
        </mxCell>
        <object placeholders="1" c4Name="Customer" c4Type="Person" c4Description="Responsible for placing orders." label="&lt;font style=&quot;font-size: 16px&quot;&gt;&lt;b&gt;%c4Name%&lt;/b&gt;&lt;/font&gt;&lt;div&gt;[%c4Type%]&lt;/div&gt;&lt;br&gt;&lt;div&gt;&lt;font style=&quot;font-size: 11px&quot;&gt;&lt;font color=&quot;#cccccc&quot;&gt;%c4Description%&lt;/font&gt;&lt;/div&gt;" id="8Xx1QfL2VHSzOQFCI0ut-2">
          <mxCell style="html=1;fontSize=11;dashed=0;whiteSpace=wrap;fillColor=#083F75;strokeColor=#06315C;fontColor=#ffffff;shape=mxgraph.c4.person2;align=center;metaEdit=1;points=[[0.5,0,0],[1,0.5,0],[1,0.75,0],[0.75,1,0],[0.5,1,0],[0.25,1,0],[0,0.75,0],[0,0.5,0]];resizable=0;rounded=1;" parent="1" vertex="1">
            <mxGeometry x="545" y="90" width="200" height="180" as="geometry" />
          </mxCell>
        </object>
        <mxCell id="8j2D1UKSxRV3CXa8J0e3-5" style="edgeStyle=orthogonalEdgeStyle;rounded=0;orthogonalLoop=1;jettySize=auto;html=1;exitX=0.5;exitY=1;exitDx=0;exitDy=0;exitPerimeter=0;entryX=0.5;entryY=0;entryDx=0;entryDy=0;entryPerimeter=0;" parent="1" source="8Xx1QfL2VHSzOQFCI0ut-4" target="_AJas53ffk_aQXCj0V_U-1" edge="1">
          <mxGeometry relative="1" as="geometry">
            <mxPoint x="185" y="380" as="targetPoint" />
          </mxGeometry>
        </mxCell>
        <object placeholders="1" c4Name="Courier" c4Type="Person" c4Description="Responsible for delivering customer orders." label="&lt;font style=&quot;font-size: 16px&quot;&gt;&lt;b&gt;%c4Name%&lt;/b&gt;&lt;/font&gt;&lt;div&gt;[%c4Type%]&lt;/div&gt;&lt;br&gt;&lt;div&gt;&lt;font style=&quot;font-size: 11px&quot;&gt;&lt;font color=&quot;#cccccc&quot;&gt;%c4Description%&lt;/font&gt;&lt;/div&gt;" id="8Xx1QfL2VHSzOQFCI0ut-4">
          <mxCell style="html=1;fontSize=11;dashed=0;whiteSpace=wrap;fillColor=#083F75;strokeColor=#06315C;fontColor=#ffffff;shape=mxgraph.c4.person2;align=center;metaEdit=1;points=[[0.5,0,0],[1,0.5,0],[1,0.75,0],[0.75,1,0],[0.5,1,0],[0.25,1,0],[0,0.75,0],[0,0.5,0]];resizable=0;rounded=1;" parent="1" vertex="1">
            <mxGeometry x="105" y="90" width="200" height="180" as="geometry" />
          </mxCell>
        </object>
        <object placeholders="1" c4Name="Chef" c4Type="Person" c4Description="Responsible for CRUD-ing orders." label="&lt;font style=&quot;font-size: 16px&quot;&gt;&lt;b&gt;%c4Name%&lt;/b&gt;&lt;/font&gt;&lt;div&gt;[%c4Type%]&lt;/div&gt;&lt;br&gt;&lt;div&gt;&lt;font style=&quot;font-size: 11px&quot;&gt;&lt;font color=&quot;#cccccc&quot;&gt;%c4Description%&lt;/font&gt;&lt;/div&gt;" id="8Xx1QfL2VHSzOQFCI0ut-5">
          <mxCell style="html=1;fontSize=11;dashed=0;whiteSpace=wrap;fillColor=#083F75;strokeColor=#06315C;fontColor=#ffffff;shape=mxgraph.c4.person2;align=center;metaEdit=1;points=[[0.5,0,0],[1,0.5,0],[1,0.75,0],[0.75,1,0],[0.5,1,0],[0.25,1,0],[0,0.75,0],[0,0.5,0]];resizable=0;rounded=1;" parent="1" vertex="1">
            <mxGeometry x="325" y="90" width="200" height="180" as="geometry" />
          </mxCell>
        </object>
        <mxCell id="Q4XEVA-dvfHRDyXfNCwf-1" value="(4) create session&lt;br&gt;[UserDTO]" style="text;html=1;strokeColor=none;fillColor=#E6E6E6;align=center;verticalAlign=middle;whiteSpace=wrap;rounded=0;fontColor=#009900;fontStyle=1" parent="1" vertex="1">
          <mxGeometry x="350" y="580" width="150" height="30" as="geometry" />
        </mxCell>
        <mxCell id="8j2D1UKSxRV3CXa8J0e3-6" style="edgeStyle=orthogonalEdgeStyle;rounded=0;orthogonalLoop=1;jettySize=auto;html=1;exitX=0.5;exitY=1;exitDx=0;exitDy=0;exitPerimeter=0;entryX=0.5;entryY=0;entryDx=0;entryDy=0;entryPerimeter=0;" parent="1" source="8Xx1QfL2VHSzOQFCI0ut-5" target="_AJas53ffk_aQXCj0V_U-1" edge="1">
          <mxGeometry relative="1" as="geometry" />
        </mxCell>
        <mxCell id="tt4gwo77zQlZ1MMWyrOU-1" value="" style="group" parent="1" vertex="1" connectable="0">
          <mxGeometry x="170" y="640" width="140" height="115.89999999999998" as="geometry" />
        </mxCell>
        <mxCell id="tt4gwo77zQlZ1MMWyrOU-2" value="" style="shape=image;verticalLabelPosition=bottom;labelBackgroundColor=default;verticalAlign=top;aspect=fixed;imageAspect=0;image=data:image/png,iVBORw0KGgoAAAANSUhEUgAAAlQAAAIACAMAAABzWQL6AAAABGdBTUEAALGPC/xhBQAAAAFzUkdCAK7OHOkAAAMAUExURUdwTKcoKLcwJZAmJpEmJqc2NqwoKJEmJuEAAI8lJY8mJsYvKpAlJY8nJ8YvKsYvKsYwKpIjI8UvKpEnJ5AjI8YvKZImJo8mJsUuK5AlJZElJZElJccuLJAlJZQlJccvKsYvKsYvKsUuKsUwKZEmJsYtKMgxKo8kJJElJZAlJcMuKMYvKpElJZAlJcYvKsYuK48jI5ElJZAlJcUvKsYvKcYvKpAlJZElJcUvKZElJY4mJpAlJZElJcYuKZElJZEkJJAlJcYvK8YuKpAlJY8jI8YvK8UvKsUyKMYvKsUuKsQvKMcvK8YvKpAlJZElJcYwKZElJcUvKsYvKZAmJpElJccvKpElJZAlJcUxK5AkJMYvKsUvKsUvKsUvKpElJZElJcYvKsMwK5AkJJAlJcUxKpEkJJElJcMtKsYvKpAlJZElJZEkJJAlJcYvKY4mJpEkJMQuK8MuKJElJbssJ8UtK8MtKI4mJpEkJI4mJo4jI6YqKJslJa0rKLMqKbItKbYqJ6UrKKAoJ54nJbcsKJEmJsYwK////5opKGIbHMUwK5ImJponJr8vKpYnJpQmJsMvKrIsKaApJ6wrKMIvKrgtKaIpJ7wuKqUpKKgqKLQsKa8sKbUtKb4uKsEvKpknJp4oJ64rKKkqKMAuKrktKsQwK7otKacqKLArKJwoJ50oJ5QnJ5MmJaoqKKMpJ8YvKscyLZcnJsQvKpsoJsYxLLctKY8lI8g1MP/+/s5LR9RiXv35+dt7eN6EgdFYVM9QTMtCPfnp6d+Jhtduatp3c+u1s40kI/329uGRj//9/ck6NfDIxtVmY9ZqZu/Ew/fg39NcWNBUUOahn+CNi9x/fPvw8Pbb29lzcO7Av+mvrcg3Mso9OOqysOKVkvjm5WMbHPHKyco/O/fj4vz09PPS0fHNzIskI81IRNhxbsxFQfrt7eisqueopf76+uSbmey5uOSem3EeHuakomsdHWccHe29vPPU03cfH+OYlfTX1n0gIIIhIPLPzv78/PTZ2IUiIYgjIZywpiYAAACEdFJOUwAGCP7iAwzoAeD3ZtQTS5xaD1Im+rYY8S2SOqwcKwondZLrOCD8FBxzqPWBRcCvvPN9mMhEPYJY3l78eLPMh9m3e5bF7fiNGdPn4yBwz1LwTDLYMqNgP2kP56qGoqduNsL5jcgj3rzxbZ4vnGK/6u/a1mb61fr4Mdze8Orz9vf1Hv375ypRf0YAACAASURBVHja7J1bTJPZFsfRCIeEBAwJCQ9kuAUeJMEHIPGFB0m8mxhMSAxigomJvJhoxnmZc87bt7+C0aPoKDOgx6NUzjjqMA5SoC2UtiiXcr9f5aog18OIeJ2Z0wKjXNrS9tt77f21+/dcWr7df9Ze/a+11/by4nA49PAJjU8JOx4ekJaWFhB+PCzFP9iHLwrHVY4lZCSlH0AbOZCe5Be5lS8Qxym8g/3SjiK7RCWGB0bzleI4hG9oRmwEcoz9e/15xOJstuUFBhxETrEnyG8fXzeOLUIydn6DXCEu7BBfPc5GgncnIgkkhoXwNeSsTqOCY44iyaT78cSds0JozDmEh29iA3nezvEKCUtEOIlIivTlq+rRv/VSzigRds6H8Z+DnsoW/9Q9iAxRQYFb+AJ7XmqeHB6BSBKxN5ivsoclUucQeRL9jvGl9hC+2h6kRDDsSYv35gvu/tteQsBpBMmu3dwUdfNtb/dZBI6SZ+3uy1a4bY9n7Z6x7UUmHUE0ifPjDaPuxb6w84g6OwISuNfuLmwJjI1CbHA0jJec3YHgvRGIIaJi/bnJIG+O+SUi5jgYwzv6ZIt3/Ik9iEmUO3mHjCw5FLMLMQw3GWRoSe1EzBOXwk0G+VhSyUmnkSw4EsAb+mRB9OH9SEbsP8xNBtZzc//Uk0hmnDzBOxkY5lTMQSRLeCcDs7n5GSRflEHcE3WL3HyiiCldHTh+in+Rss/NyxqrdWzFq53buSfKRm4e73Ju3iXWLBgK2TIZwrknyoBvLiE3r6gRRbFyppR7ohx8vnm3uESdUSVZCoVNLZ3cE5U9yeGSWzkn1MuqEtvnmyUpqmy+UlT34vREM7gnCs6xDCw9LXPiZ0bbal1UlGnqleUNujGf7jrB+0Rhc3NcPS297V9UJY5MNjltMqjqJ/96i3Ls2dVZPpMBipDdGHta9OIaOvRDzijK0P1FlKO8T1SubAnEe8xKNbBWVaK6yuSYydAzXjWy+g81vE9UnoTi7zfXiBsYrp7Y7K9qO2dH1v7RKxUiBT+MSg6flDgC31jhu42qEmu67HmitcYF9YY/mSPcJxrKBYAd38gAQmdBTaJVbHmivZoutTUZviTtiabzEg5eoklO/qkTbTBo7Fn30qG2hmnrr10AsNpP8xIOPgPBPzWK5HdVLtpkjSeq09bV2HylCaaEwydeYeEQ+ca7KtEOK57ohH6wxs6rGsHK0jt4CUciMIdiSqftqUp81m3Sfyyx+xJRz9vaZUJwONCclnlRIljLfg6VcHhbu0vFPcAD60MjEkXVjcDZxUs4zhoICWk7IL+haomiKkcU4CUcZ9gXdhT4++mplKSpj7T6+XgJx1EDgcYwqTZJotIgavASzuacOn6AyndT2CFBUwTLfryEIw8DwToGCaKaQbThJRzaBoJVisZc1hT5sh8v4TBvIFij4u2Ay6JaQGyQyMcfUzQQ1qPTj0pJ002IFXgJ5y+iwQ2EtW6CseuTpJ9+jUydRuUlHFoGwpcffaY+qWY6bNmPl3BY6ECwR3NLpSidlpeINTy3hEN5LOdE6+8iHkrqNLWsycozSzjB4TRH5tdq6kpEjIx0lxWxpitPK+H4+MVRXG2VYVYtYme4n7lt0INKOL6RARQNhKKm5TPqJBhkbxv0jBJO9OFzFNe4tL9RJAmL26C7l3C841O/obe6Q9qPInmG+0tZk5U7l3BCaBoIqs6FaREIBrdB9zyFg3sGgnMeZ9lkuwjJSF9ZIWOycr8STijNO/cqZgZEeAbeMrcNnnejEo5PSjrNYvE7kRbsbYMnU92ihOObTPE+7FpNQ41Ik2fsbYPyv1ziWAbVy4dUpU0Gbf/U7FhjOzVdsbcNKoMC5RuufBPS9jCzkqqX5Ya26vnZwQ54fY21sbYNyvVyiX1hZxGbqCbK6zXVLVV1Ha9KwLZBE2vb4BnZeaKU26Qc9xp0zSZNa0tfw7tKYslXTeXowlS1poK5h5fX5RK0zllJ09dQs8mon+s26wuLS9re0dA9ozWU6woZfug4mbS1y+L24k2Kzr0VZS4ehFcPj1W1tBrLSntk8qxy8ETpnrPCKaw6p3a4NwtT/W31zb1FMnxUttva6bZJ4fbhpx3Y4er6ZrTjTROFMn9WZi/cpdsmRYA5eyaBnHY42XqiMrti3SE7foCx0UHkPVGW+kS940+cdMNV7mRmdFDWDShPlJU+UaxXxTCVqzfYEpUR9P+4m3v7xWL2LZgPS0/5yrPbpGjl6pCjg7K+K1AoFC8yM1+/uALziaeTkqmaDEsuZ5HbigrN0B4ddDH3tkKxLCozi7fvApkMGbT6RLduP4PcnJ4BmqODsp7kKFZYFpU5XP353yyQz6Zzdt5tXE67jNMbHXTz6n2FYr2ozPzvV6BwBW0yuJXL6XSuDjA6SJmXo1jNKlFlZj7/4z8w4QrQZHA7l9MeVi6DID86aE2Q2igqS7j6902Y54/YC9HJEH34PESE6C1tbqofN2q0Wr0ZbZvG2GkwNVXowF3sjbl6K+kg9UixgfWisoSrhzDhCsURPt3lHZ9K0uVUlZo0/VMLY43ttpubptsbB5f7AGAKbhtydbI3hty4+qNC4YioLOHqFyBPdEcauXvnybmcRaWG1snBAef65D4NN0zp61+SdjQMcDeGXP7husI6VkVlDlcf7jyWc9ZOyuVUlWsnR6VMs2sfm28rJ+hGFnUBlf1sBCl7ojLz24N7MLJSBuHuPybTy6nrnB/FcxZd/XHOQGpbKl0zd2iUzIdcu3JdYQfbojKHq/cFQEWNIxi9diIuZ61hqgNvL3hJx5SBSB7/lviNITceKuxjT1RL4Sof6HfLfjyDH0m4nKWtY5+IHDJQN+jxn7Jbnau39xAIUtkKhTRRmXn/CChcKYMCt7Lnclb0dxA9DvV7Ne4yyqpcfQ7zW2fd+17hAJuLyhyuip8gsG2QKZdzSPsG4vSmdgjrf/05Vy/BGwev5WYrHOJppkMsXr8GpCsXb5cg0MtZ1NSnFmFQd+P8lfY5V+/C+KY/53+vcJQXmQ7y+ukPQLI6HX7KaZcTfy9noXFUhGTMiM8e7V95z3ps73jL0SDlnKgs4Qqqn08ZG+nMiXUCLqeqbRh8hkEjNln1LP/zw5jeb7nzjpCoAPv50M4EiifWizobRRp0jGMy3Osxlv2cC1IuiMoSru4DNcgEOZCzHyLicjaPibQYwzTDYMGSqGFI/7OeFCicx2lRwfXzKQOiNynFEDmxrpqjOXlMXY2lhmPJ1fskv8vdlfZgAFEt9fNdhJBVxHbbPvu+GDJjNZo7RLp0YAlW5ly9Sdo7PH6So3CRp5mu8fyPqxDhKs3HxoCy1CgyH6hRi7QZMeCIt8NvJP39xQ2ddwCigurn2x9iLTkn1R5c9FZkgJJ+DPl6fZuExMNa5x2MqCwNMuT7+Q6uv1zJezuxI+uFUyIbtGBQlct+wg0pQUq6qCzh6hLpfr6ja9pDff0J3jbbIrJCP6LEZYlBaoniTKkQ7+cLWKWpZJKH97QiO2ipSMpe5x2oqMj3830+IeGTRLJhonyaIVE9g588rbTfeQe4/UH084WvaCqB6GiNwjciSwwCjybbtPMOXlRLDTLfEXrexOVsKoZsX5dGZAvIWS2OdN5RERW5fr4dS/55GuGFfceYqOqgFJWVf0eBF6yisoQrApXBry2d56SHCFeIrAGTVd3CG6TwJeqrmq7yCDz3P8yiCiC9uHrmRAXwA9CZzjtKonp//TIRm/vvXl4pxNd3kjlRzREPUrnZCiI8xbfxkWpkv7LNayv5Sx0XmBPVLGmfE48pRS5Svc8h9tPs2qVtXn7kd4Iq5kRFfrCUEod9TkhURA8HZmUL27xiyYvqLXOimoTI0y9KLvSRENXzDwVEqzQFgllU58ivrsYTE3ULj/NyGBPVbw8I15PNmjKL6mvya6v7xJqogGZ1Itc7PEmI6vmHh4RHwygfCUui+ifAyrKWqY9BFmlc60XHLyqAIVa37gvLovoWYF1NjInKgGC5hS9cuSgqkG7i/EvCiqj+BnGCZ5atKg38wPes/AKKogJpJP756gXhs6gKANZU186QpkboXLqOxw91XlSv/wQZYXzzR0H4IioB4sy9oYYZTZWMI0rgqNw4K6pFmGHrX8LUiqj+BTGFlB1bQY8oIrnGXOxckLoCM7j43q+CsFZUAshsW1aqytWILhK7YZwQ1eJtoPkc13IuCBtEJVy6BxGr1AxI6lMboo+Uvj1HRfX6BdQkoazcnwTBiqiEB3kAn14+QF1Tr8oQG7jcYeyYqBazoWaeobxfBMG6qIQLdwA2X10DbS9Bh5jBxbMQxY40teSBPUX+fUGwKSpBuA8wwqHI+IqmlaBl7EJCV05tbSoqsDmylgfIFgS7ohJ+ygX4N4a6qWmqSoeYw/kGmWJKJ2SsSerRBWEzUZmDFcSvwPIuOseyWL2W/aZzDTLFLMzmX5JUjg1JrROV8ODh/9k799im7iuOX2h4bcA6tUPTGO02jRUmDU1jncTUtRJjrJ1aqWWdVtFJm/YH07pp0lZ10x7aX8ed7NiJ7cROYucdx0kcJ3GekJKEEqLyCgRCSRpSNB4VUFpAlaiIRCftOg/iJH7cx+/8zrlOzt+QXN98fM75nd/3nCPjqYZOyEeq28bXQnoEMp3kW0SmA19KpOZDBeCSUi0bGpDZsXzs9pCNuWnX8wHxvqOp9NwD6Ww+VAC5Uga7H3r/bVlVhFvXbBYwu0Z3BSSTXOYWERoAdEIFUCHFj3YNDlxBJ+rj2/1dNquYM9BgACoZM6cS4XfnAhiACsAjJzyPHRnFrLJ/PHrwgs1SpmEANswXtUh1UqFADMAgVNKwso3138Sps384fv24zYKWSX7cSbGXe+Z6yZsHYAIqNQjKqni09w2PipVbXTl1tLfdZlVLr+frlD1xeLb2EXYAmIQKoK2kWdYDt/T1DIjxWBdvH+5tsVnc0uj5OuXORk848GlFCmBNGqgAYgGJ1TTbhe7D4xPGaw3Hzt8+OnjJlh3WnGpRW+eUqKVa7tOUtIEOSw8VQCQq9/FtXX39wzdP6NrMvf/iB+NHR8502bLLkgtkOiXum9GVneuACsDR5Cd4o13XhkYO3xk/8enpD1P4risXJ04MnB0+2H0g22iaza78C/V89bI2Yz04OVRFAERDFb8TDNop3+3Yob7eoe7uk/3XR65f7x88OdTbd+N4i21R2Fx3VRFwSv79aW74TEKlJleV+bYl03Xy6B8W1LTzQCAT7pD83bZnrJ2bggqgMVy6hIoWuzR07s7d02rMHhVW1QiV+P7jCUhObvWnUvqhUpMrT8cSMhmOGO/df1Bxe1eofMvZLPnTGEiljEClWrnUEoN1nFP3uTujp+dNIRmx8ieqbXIASIIKIFLlXIIowTldP5rgnOboTC1cIytpAFOmF6r4teBSFJx0TmcXOKcEe/uCVT+Z8VTKDFSLOwrGndP41Yx3lYMW/Xil4TwAEqjUKFi86M6C7YcmnZO2Uv9Na37GDo8DgAyqRXUW1OicEm+1rai6aa3LBTFmGKrJKJif9c6p5+zoZd0Da/Z3W++zVkfzABhAFa+I+rPUOZ0Z0emcEu3sIishiIUqruULNmebc/rk1GVT07ROj1nrM9vdbSDUTEMFEPMWZANOY6pzGrgqoBfj2JClPneB1wXADio1aS+qtbJzumHeOSXaLSt9eEMqBClQqVbvtlvSOb0/8KngRrEJ68i77MEKwDBRUAG4qqot5JxOqs7p4n6MvrAzVnkJ+ZUxAOZQqebrsIBzOiLeOXGa/qi9dN4IYAWoAMrr8hk7p49wnFOi3beGIlVQ6VwOVBxLV2O9qnOawG+xj9s7ByxAVChQDqgmHKq4pL3Ezsc5nZA6aLSHP1LO4giA9aBSk3ZvGbVzujcw8c5i2E+i02p8gG84UMUbu2qo3tuhm1RTkK8wH1rU6s4FsDBU8UFXVKqrlsHR/SRQHWSNVHVVHoDVoQLIK6ZK2g/cIdiwdJdz8Cv0OQCyASrK++axg1clM/XuIbZE2SXFPUlQxe+bqZL23vekLi5h2z5THXWBVFuLDhVAI9l984XDp+WNaed63mtygGTbKgGqeNJeR5S0t5+8K2fTIM/2mZC7HuTbDjlQUSbt127J2F3CsX2mzBshQApWPSYLKsqkvevIB9hMMWyfqW1qBBL7iyIRKsqk/cxHqJd/7Npn7CRxb9L2rZALVbzSXkj0mo/3nMdby9zNLe65qJCCnA2KbKgoK+3t3bc/w4GKV/uMnyruxW3XJoUCKjVpJ5PH4Gwv4dQ+Y3c3AKHtei3OlLKG5JdXUGnaW64L3+F1jM/WtwLCuBe3vz8yyZSyj+j3u6JUmva+T8Qm7ffYxL0iBylS8J11U0wpW8geweEjS9rPTWRd+4zpqVLm7bfLpplS1n2X8DHIxjG0C1s5yKN9pswbo0bqTy8qs7aF9FEIk/ajQsR8w0txb9Ke2pDAlLJiH/HjNLip1Hz9p0yr+ejbZ5pLKsiJgl07VitzbN0z1I8UIUvaD5w1p+Yjb58poI97qv1+nTLfnniG/rHIZqiZU/P1UMe9CAOkXviKksQ2vMDg0WKVVNNjjKv5SNtnsEYh6I18v1yhJLXHNnJ4vEgRVdJ+afiyofaZG4RSKRZxD/769BeVVLZ6y6McHpFuekzLoAE1H137jD/MIe7BQy9/U0lnf1vLgirIq6IafKxbzUfWPsMj7gE8tUnJYMt/8EMej+rwUK2C6zpyX8/ub5r2GbwRQHqR+rmiwV77MTAxupGPZ25q7pYnaZ/BHAGkD6lfK9psxY5VXLCi65vX2oJD0T7T4WHy52nyb//8KxqpUlY+/TkuWEFbHWc1n/z2mVBdOZMv/NQp/Sd716/QiNUTf3iIDVZ0F4M37mVS8w1Kj3t5PP4okeLZ64/ndj+uEatHtgIfq6AadtU18l9G7TO4o+/0fM/n96785uHl2rDatJERVnTDrvpSt+Bcltk+0yp3FEK6A1Sy/oJvvPpVjVht5RMEweGjStqP9/yPvH1G3gigjEluqqjxxq++rDEIfu9RRu4ql2pCbXt3MjWfvPaZGh+TuJfhyn/bS9qw2vAyJ6w4qfnOS2qfCYneGmP2wJfO9mrI2b/1tT0iVp+KNEo1XyJTn8lpnymLRpi8+EhUS1q7eXf6ytXq7+99Y0peUVLPCSseaj4p7TOkLaGZs/Ok9rP1qZF65fk9Cf+ytokTVnRrJcZmWnAktM80uxvYhAddY1V2pqgvvPSFby84f0Q4YUW3EXVo/K0333yrD/vX8JAIT12W1ep89u0/TRL3nvxS0owxUM4qClKq+bDbZ5hIpeJnIyM7rPbMp2r1+u2p/q2dzV3mTNJOpebDbZ8JsnnNMYMB4dmVc5h68kcW+QpNVdqjTluWGaOA0GB8Qt3OBKQe35b5Q1eyKjHQteAglc65fGkdptKL0IOC1fJXN2s6lnBRss746MqCLEGqlk3pPM9s3Wb3zJHvWQsmksRJu0AjnKa44GxtXsW2fSpBf36zLv/GLApacoEzyxKCmlCYf5Wh302qiHfqLs4FeZ0FXVXWTdpL2Xj+iKDr1ddVppZtM/I//VwU+NZO2gu5qO8gFhCVnv5LherrBv9vPq+KqJq0hyxGlJ2N+k5o3e+fivKwiZdSyCsKWitpL/CyKSE0iXxvwRxl2XOmfoKTjS5xJmm3iLviMKhspoosVK+dH8tRfmH2h7SyUZJNuyuvBZJ2PpdeuaKPzj7IUfaKKNw1OThhRTehVuOZm00qhfCmikGF6s9CflQZ8QDvhfIYtlGwgM2riiAUYqIQh+p1USeZEl4XOHSadotUpTC+d81hmITq3wJzT14XOHS74CxwwSeidL4wrk9lijnKP4Rm/txKV15G9832YAMbL44yA8w/fduUo6wS2/9rZ9OgPVOCqeWBVCubzqQYkhy7cuYPr0IVFv3DpW8Xz2BtDO6b+RxksHKC6tmUWoXKEUS4fmhghRW1SNTJJdl0oJ1eAgk1cBUqiGAEWD4FY/LSFZtXIe7KeMFHnONE4lBBDOV7XMBMdZXrbqWRIXC5MkabpJpfPPdbMwkVuHCcIrcOnDz5qqsgE0WnA/Gq3T0/tk9BBRGsWT3c7pulRkE2yhYXYmWlY+HN7zRU4PCiHaXd9YszCtrdTGp2mC2S/mSxKOfBYu4KvHl1zJJ2Q423+pGKZX3cs5Um/8POQgURN+IlKq+k3eFDrog2M0EKdbSlM5WvSIAKwIOYx3JL2jE7cLh4KVTBojOcMvzMgQoiXszas5NXpR0te+WRSzmKML1xabqMZi5UADE3bqLBqtIeQbhXZXLii6COdPanH1k2HyrVZ+KmG7ySdoenUDBS5TziHmbEqcmUyCyECsCHq24r4CWPqRd39clDiICsy9BQzk0GlXo4wsXK3uHj5K7KxeSzZSxSRpcXs14S0uSJk0KFj5WtOspJJOoyrzDiEdZxVT75GvU7KaCSgBWvpL2x2EzOHiph8Vlwq2/ab9xSQhWvsWNPJ2ClaXd4jKrX/FUc4h7yPYEeT7xGWZX2ngxZM5lfxylpd3n1u6uyAItW2jbcG80OXZ1S6aHCvd+e1hv5OJ0FGwJ66jsFbhaCfOSFULpLb5mgwqkQzkvaeTWiVlRq+8D+QAWLMyxy3CvTP0YkM1TiK4TJTqq8GlHLw8H0DtrpLmJyQ46s5DHU+6oFKhnJFbsZalBeFKhJEgqbS4NeDxfPiq28NziRTSNUwufNJHNXgVzgZpE2X9gbcJcEg0G3uzJa5IkxqtpGcNXRxseIaIZKSltmLS81H2vLxR3EZWaMiA6oQMYY4DJvbIkXLXXOQuRkxEwFUR9UMrZk25kNPmZo2F1BZvWUeqECaCxCj4KlvFbBMTPk0Vut5kUk+qGSEgW5jXzkYygjgBIv+gW01BmCSkYUXErak0WJYtxCtKAxmwahip8Fa7CxKqtcStoTLYa7kVXcfhzDUIGMET3cWnBI4x7uWECR+3HMQCVlJQyzFhyqOifyAFOxIiRzUIGM5evchl0RxD1kqYjoHY6moRKyIM5Saj7ZhjcCaPp2THjmKgAqKdOluU2olXbeQ962UxpGmMojBCqIT5JEn6vJS80nxbAlkkh74URBJWW6NDM1H7Yh725qReulFgeVFBkDNzUfoiG/TGcUbxqdSKhAyjZjdmo+lLgXxR2hhbt5QjBUUkpX+QzVfEINWSIcwp5tKByquKQdf5txYVMWl85x77/K8PehIkAFUrYZl2Vn0t6I3Lvkb5KQPOBAJWWbsT2YdUk7+pWxnLsJLKhAyjZjfzgvi5CqwL4yluXbEaFS3VUUfQxwKFuSdgeya5c5lQYVKpAyDL8mC9R8yKLHZrlTabChikuq8/GTdmur+ZBLCAWyX89adKik3DdbOWlHrsD4i6QrPDZKgArimyyWkvbkaSduCYHmy/ZHOVAtJe0pUinUS/gQjch/10pZUIEMkai15DHINRcyZeP/2bvWprauK3owwpYpJENkQ4DY0+mQAWrTAFOb2jCYDPbUTcepOzh2/aE4L2dqO03appO6j5l+uXyQEEIPEHoBFpIACfAIqh9YCbDNQ6DHPeucJeH9A+yry7pnr7P32muPC4WgUkLaK0YeA+7G6COZo3VqQaWk0l4J8hgwlZrWONx2plOoBpWBXT9XGZp2MJXSemVpGRM6QKVk+Tqxph3sAaTX36SlLYcpYanG4swE7SAq9odPa15k8vDpNqZEj6b/P/0CrmlnW+CMbvBFdJfq7nTuYEoM6mOrc3BNO9UC5xTW4TKj3X772cVdTInmeq2lGjhpl+RkYv5khtpKxfVvOWgZEG+iT+ujuKJom3YKkSjW3jkS0J/nezr2YErUjGomGh74IKpd80Ii7JafDMHaid4HdWJfNJ/Vnhrwg6j+ZW1vHrqPLE5RO2nvFAfDZtH+VA48afdpKTM7oLVzZ4Chyvv8rsgTHQ3VXxTMCSCVN8Swe2NmKNYt9Q7WiLzRNEJx5w748VlQ4aedQmb1TQ6hT21/szgq6vpqKS7e4IkSlVlwyguUZDhJXMGHLojjou2fHCXCNNz4WEkWnELO08ZIOlA9baJAnG7lOKzQOxF3hNtYNuLy4iCFswAqMZIzf/n4g0KoEm0NBklMwtV8yNHKFDDxLa2T9DOT27W3+Pn3agqgqm78exZYrcFHcOygL94FhFRslmTGcY9u9TeXfl0AVo2t51hgpWAEB8BNgDc+O81ulQPl3A//+PsCsLK106BKwQiOZAs14I1vfp1EzZpXv/PRlQKwGhvigRVezTcvj6QAhQiJDRL/wFTgCNXu54Vg1TZCBCu4mm86JIWzrwbtsLzHsp7g2OT+i68LwWqUCFbwERy723RXFlcG8dEMnaVXjvd8+OLSqWMg9Yc/3Z7wzxHBCq7mM6doB/q++mk8bVaLaHb8/f2jIPX+u7eIWuCvb+poh9pItMwTAacHs4dp1vLMFqciufVZ3lLVO39mPHm3rx2eMDoLlt72Xw3BGN80jUNSKbOvl6yHIPXZX9VUCMtuDIJJ+3yolLNhy4sTS/G42JToyPbxQUj9Kq9alQlW+LUSzlBR51XKEwIW0Xheeunq+nf2Yuqd2wwipCLOB6zxXK5nm4kmjwOWy+ONAS8OcZ7x6nLKhJ+8uQN+ff7Yay2VAWIqAB/BmdhMhOaShz4mR9oTdfuhmi8WqVROCl1eKecnrzLfT28VIrGrTLAy8CM4O2TZn3GHvOvRQNTrDbkTTrghYIzGYat8G5HzO5j64PNiWgVcNsB4NZ/yiNO0jE1tXf9kG1NXflbk3chLRa7WNmLVBCmiAo45R7Yfcph674sSSjlcWXAL71CrKHhK56Yd2f6bxdQvPyyxYU6VBVWQdnzwWHabX1b1v38J8dvflVwhJPPVxI/ggKkUTwkhKUFqsWQR1o/KamhwZcFKJu1LPCUE0V2zDAAADiBJREFUOWqQDYu4UjYHoFo7W6mknYdMyNqPEzQs4l0TtxWulTCT8Eq77HhJo76T9/L8qSyobptp6weTVLCqLNKu05j6QMiTGPqzdNsifm62mU5VunIoqrRL6MYEWFQIroA8pVoOU1lQ/WD+7sKVBSuCtPN0Y9IrEgeAwts82yL+Y/6fYnOXduDXSpikUjR3Z7kHu3fn0mER/5byz0WiXDsWtty0WZDnZE/JnQKff3W0WMQZSRrdTS6NKHIYoTqqUmnJQujw6x+WBVVaWveMrIFjeGbYIMXT4EtKnlL07Rm+yoLKmJV4ApI1cBTsgishMiwNvjXppDO49++eA5URlfivs20zxrvHFN3ZYqEH8lfLR/Zf1LZBJRVV0k0vqqLfHKcpdMoXC8WjB/7eO6Ay5uQmWLbFaLpLVzSOLcZcQv4JfIjx7ILKSMp+6zGubcY6S1eRZQdL3pN/Ic7kSeqvQGVMSbfsWVrnIu2rekpXfhbzO8R6nEReAv0aVIYjIL3HHw9ykfYp9VmQxUfYMZsAfC9H/DjLnnW3aYAiiazfvDaXUAmpMEk7xoUoBB99BFv27VCeAzgVsJF2dVkwOMmS9zbVZvX9oDJSIcQbn5l1cGVBnwJIsZSlIG5siWOzuuXgtvcFiF2Pk2tgEH8XJIFUCmLqVagzcAhUhpGE0A420r6I9LoKc0BqEmFsay+c1fOAyjA8mO+Yx3Fpt0sPmkMNc8yuQ9rp9mJ0O3lBlX0gzCWJjLRDtvFx3PgwZpa+4ljMEaCCwYqs0u7Y8FfjKbUAOYSXilXVHwmqLLcCsY4lLnnMorwsIcE5W0reyyCu8P7ixXJnjwYVbgGtnYu0b8nRq3H4vrowO5tLskk+FlTAkg6XPCYdMl0ejFDcQjCixFJP4AKgkuArc2SNIcSkaTfXyLCHKVZkY/Ker+QaY0FQ5eYzUTuHYkzWfI7ZmbJJYhXnvXJU9UWAysCoJrZjnsqOIV2G3ijuXmT4MtIYMf5MWSKL4kAFVI1kMwcTafe4S/njbIZnKdpPHohgumxVfbGgQrriR6h24Kx53MV9P063h+K5XZjRDl/57driQZWrXKGyYJxrENWxtZ45vpjiCy+TPDEo7/nNSKBLAhVSNZLg8lAzHKvLbn8+ZM1nQnM0RBCT98wuMSkRVEjVCJuHWu7HphfnoiF3OJOJzYTdK97l2S2inngKk/c2TTdoSwaVAdROvuQi7dxh3kU4f30kav6zKQdUyAkCZ9T1Fi9FBGhAVo4bRnmgQk4QbJIZHxOGA5P3pFlOlwsqA2kB5edagsOW9zC7UCVSWhOgyjLFddRaYx/ZCA5PJDGeplJH6UyBKtcwQ7mX22c8b4+rw6QDc/WW7NRjElQGSF2/26hNvcURvkgof4mJeVAB1TETcTKfdq15Lwj5eBHO2zJAte1ePoEi7ctvawy5kjPmsj0DKQzKAVXuTgJr4EyHJk84pFLrkLIgzPpXGqiyPx039hvbOMGkHVS6cUZh8ycSQZXL+7A9oWwOtcry3iwm70GNpOWCKndSo9zL7SewMejCvM04uGkhG1Q50g5zL4+cLNIOmpDDH/ryQZWNhRWUe3ncvXVSIAUaN1Gx+xMCKqh7eeIkNAbXMIsLFe1nBIHKAGqPyUZwAAGSCCt7bzhQIVVXVU3aQVIphdIPJKjMDGgWJu3RqmwMglrGL8Mq+11YUBnIfvNm9ZF20NnuU7xh8DEaVLC5NMYRHMrSuXrX8R48qHI0IYgi7b6qIe0YZZqWpWbDSkCFJO1VMYIjc+H63l68nt1dFxSBCikSzZL2yq60w6aM9byWIaEMVGDSXrkjOKASgrYDvLdDKajAlfZKJO3SnWxfadD0Uc1rQjGo3pL2/VQKo0KI6PS+HBYaQJUl7TB5TGWR9oXQJuIlZLSOIfVb9YAKW2kPVEilfREywBfXPDDZWpfDlGjQ9Zni5DH8mnaQd04koPcaXNu1fU4J8UQboTix8hiQPDaje/z2+8tiN+5rfIoTqWnHLFqK6zcKGO14hSlh7anCj3aCbq3E6+8IUpVy6meS16/WiTdhq9f7NDCbdrYFztnAzMYw2E40PBL7YkB7QniBG0Qlco9xQOwBKDZnnOurEQeiSz91hQ2i2jMkpSuMvYaTQqv4jU0cjnGCB8NtYWd48WlIoXOG4oM5+6lV5IuBeoKHc0VR7jG6RaKrQQA731yhqMf1Dl4UR8TYYwrW4QmjjiuNG1Eh07VLHHKf6/3N4uho6iap4sDcY5x6SlcQGcIMydLgdps4NqwDN0kuSRswy0flqivIhc/OMvExNCYKRjPJYYXbs5tr4Ki80waWENcOkl7ByCNRVFy+wQKrVABVY1C2F9yFsCqLzZJ0NdvHRLFR09VCUyuEqfnsKmQMawBuGGcRTdd2XxClRGPrORpY4UZw0B98Kir/yedZzJrP9dtEqdFxr5answFT8yGX4Dii8k8pP4sEv3e4WZQTF7p5YIUzu0INB6wtSz+l7DTW3w8Hm0S5QQUrmJoPYVvhkH/j47FOuvFtjTATtic83Aqo5kvIrSKuyedSPNufRu/WCbPR+WUvEaxgaj6J80zyhQharBDyX/ja24SUaBp8SAQrmJpvfl0KZ19YkS1E0GSFkCfqW21CWtRca2CC1QJmxauMv578VjiPF/PDwUYhNayXh5hghVLzmbtfpeT7vmZoNtM1XKsR8sPWX8+EK5Sar2yTlEW37LwX51FBj1y2Ckw0DlqYYDUVxWxEnXaXflwteKU/i5PGzvTHZxcEMGoGRplg5UCR9oi3lL5gOio/GcdmWV7ymb5mgY62bqbKFU7N5/cWdV45kl75iCLaaNHw7SmhIjqvfkd1XM0lMLCa8AWXjz2wHKvRMKB55OMZqx6CUanDceraHSZYAUdwJuYz3o3JwzewqeRyKIFxEaYpndf324TSsLZ1X2eClQtE2ne7g85EMOSNLudi3evO+FFWNRM0pXPDIrsqVZFZELfAWVUQlRC+GqgReoItC6Zhaj4VsURTQrje3SY0hrXtHtVdEEfa0ZGg2Q99c7hT6I7mPqp2M5K04zgbjfrOaPjbRcEQZBVRWKUdFdM8dsoqSwgF4x/PqPqCDpzZlXyVfIDF+L231Sa4orHrMdVxlX4RrwRIxWjMuR93NQm+qLs7QgUrnNmVNCrF043p+bROkIattYUKV6tu4uOKR9D545OngjlOP2jgOq68S5yQWqJZ+fWwr1Gwh/V+O1UDB7gLrhoafPpK5yU3cLhKV7hdcBXe4Dt375GonGArXbkCERZE8aw3+e5qs6iweMolaTdwlo+lFTpZtFJ3rp0SFRhN4zeoYJUO+TRDiqbQWdt+3yoqNOouD9UywUpv6YqGnd8c7hAVHR3DN6mOq6SufnOCpXbO0jI2qbr6iqvf7NWQBTMkMoTaocrNewdi7AlXv1lxFrQHSdoxLV92iCqKxq7nXA2coLIsaHeTiIRvPDgtqizYSLuiLBhfIenwUUmlqpe0K8iC9hAHpPikUlVM2hehFVG7mwNSN8ZPi+oOMtKehvUFWSA1crdOVH80dlFV2l0BZ/XS86rOe9Sk3bEhe7DrJQekno83iZMUHcNU883JcPXR829ORN6jlsdMyurf/L+9M2hNI4qisEmtWomL0JCgElcFDShUFxOM0Ai6VQYUgxuFBANtQoUsmnbvRmKDkCYNBrpJEWpJ6KI/sKWFlLSxOvpm3pn3zvcLBC9zz9x77pnPEEaEYGbdoydY9hghmr13iWATfpdY9ugLlj3mdN5QfYzcVx373n0CSSRP+9c5whjOIEJb9O1794kbfiRxNZglfap7dY5gwPMmQqynO9GeAiqr0c33W4uHxpcQMUDAJ6FyWM9AfQNn+GHal8Hb6yHEBCF48IpV9K9oxzpEHd30J8v2Xv8cI6pMTpqiK0R7DStPu3My7I+97epeDD6iHK6z7/2X1bS3g8Xoy3BwdXH2pxt2e9f9ByOLJYEehQCxGCzvdxA5/Xbyk0/vR1g/i31vStDSY3AplBdYLtMSOyyxYiax8rLCSrEm2sGCj+Gop1dZJdYJ5VqsnXF9b5N9b1bRbmKd4KD0PVdFAAGCdjcvH7/Bvjc3i9kCK+mOUpZ9TwwVrJx2aWxtRAKsBnGLQbCwKxm0Ab4ao5poT0a1Fu1LhzEWgQ1gufmcRKEIIDyw3HxOoVgEECBYbj4HUDACCFG0g31WwlbyJq1SDi0Ga1EtFoM8jXEWtC+i2oBX65NQSaK9rLRoL9AiLEm0hxUV7StVWqXk4VNRtL/myli2aI+AneDMvzJe5L+KINq9HJ0T0aCe4FhEozRFd+D+E5wnHCHgETtys2jnCIGiXbT7jq5zinahFOm+wxft7pq0b+/QfcdJu1BSdCFw0i54G3PMv8pVor2GlFBLKaUK0J72FqWUSwH7rASnUopwjHeI+iga4f/ickIJqPSYYJi3MUqMrsw8Skn504xTVIanuwj75u0jeqWUQv6+eY/qXMnRlcQ4BtrvVEVWhtpWlRd8KndBCcHHfOFTvwtGNhxd4Ky94HGMDsSd64LFNE3C7IJiT/hyjGzhu6DYp1SOS2P93gVtnYi2+ZTSE1/jrV3ynFpKXx6bdlja1wyu+PSmKXrE0OZTiniehQWaruq8NCa/CBltGhGI8MlVQ8AZKi+uyF+afXNvvhUfc1/JQ5p99u+hlnYopcgYcZWYxctXDFfoliLjCTTD1tbNz6smP8JHJqqrZGbamHb/gckFH5myrprpwqSZaDCVq/Btj1hiOWnkx3XCVjQRYdMjsymseLKxGy202r8fW2/qS/tVI9ukAYGIqK6FmC/GZkeIRH4Aq2RQGIWzs8IAAAAASUVORK5CYII=;" parent="tt4gwo77zQlZ1MMWyrOU-1" vertex="1">
          <mxGeometry x="20" width="100" height="85.9" as="geometry" />
        </mxCell>
        <mxCell id="tt4gwo77zQlZ1MMWyrOU-3" value="&lt;font style=&quot;font-size: 18px;&quot;&gt;Redis Sessions&lt;/font&gt;" style="text;html=1;align=center;verticalAlign=middle;whiteSpace=wrap;rounded=0;fontSize=18;" parent="tt4gwo77zQlZ1MMWyrOU-1" vertex="1">
          <mxGeometry y="85.89999999999998" width="140" height="30" as="geometry" />
        </mxCell>
      </root>
    </mxGraphModel>
  </diagram>
  <diagram id="VSsPIpICJT1oGgdbhTO-" name="refresh-token">
    <mxGraphModel dx="1434" dy="844" grid="1" gridSize="10" guides="1" tooltips="1" connect="1" arrows="1" fold="1" page="1" pageScale="1" pageWidth="850" pageHeight="1100" math="0" shadow="0">
      <root>
        <mxCell id="0" />
        <mxCell id="1" parent="0" />
        <object placeholders="1" c4Name="Frontend" c4Type="Container" c4Technology="React, TypeScript" c4Description="Web interface utilizing NexusMeals backend functionalities" label="&lt;font style=&quot;font-size: 16px&quot;&gt;&lt;b&gt;%c4Name%&lt;/b&gt;&lt;/font&gt;&lt;div&gt;[%c4Type%: %c4Technology%]&lt;/div&gt;&lt;br&gt;&lt;div&gt;&lt;font style=&quot;font-size: 11px&quot;&gt;&lt;font color=&quot;#E6E6E6&quot;&gt;%c4Description%&lt;/font&gt;&lt;/div&gt;" id="2OP7rRh1nuFDzXFdCpIF-1">
          <mxCell style="rounded=1;whiteSpace=wrap;html=1;fontSize=11;labelBackgroundColor=none;fillColor=#23A2D9;fontColor=#ffffff;align=center;arcSize=10;strokeColor=#0E7DAD;metaEdit=1;resizable=0;points=[[0.25,0,0],[0.5,0,0],[0.75,0,0],[1,0.25,0],[1,0.5,0],[1,0.75,0],[0.75,1,0],[0.5,1,0],[0.25,1,0],[0,0.75,0],[0,0.5,0],[0,0.25,0]];" parent="1" vertex="1">
            <mxGeometry x="85" y="440" width="240" height="120" as="geometry" />
          </mxCell>
        </object>
        <object placeholders="1" c4Name="API Gateway" c4Type="Container" c4Technology="NestJS" c4Description="Receives requests and routes them to microservices." label="&lt;font style=&quot;font-size: 16px&quot;&gt;&lt;b&gt;%c4Name%&lt;/b&gt;&lt;/font&gt;&lt;div&gt;[%c4Type%: %c4Technology%]&lt;/div&gt;&lt;br&gt;&lt;div&gt;&lt;font style=&quot;font-size: 11px&quot;&gt;&lt;font color=&quot;#E6E6E6&quot;&gt;%c4Description%&lt;/font&gt;&lt;/div&gt;" id="2OP7rRh1nuFDzXFdCpIF-3">
          <mxCell style="rounded=1;whiteSpace=wrap;html=1;fontSize=11;labelBackgroundColor=none;fillColor=#23A2D9;fontColor=#ffffff;align=center;arcSize=10;strokeColor=#0E7DAD;metaEdit=1;resizable=0;points=[[0.25,0,0],[0.5,0,0],[0.75,0,0],[1,0.25,0],[1,0.5,0],[1,0.75,0],[0.75,1,0],[0.5,1,0],[0.25,1,0],[0,0.75,0],[0,0.5,0],[0,0.25,0]];" parent="1" vertex="1">
            <mxGeometry x="490" y="440" width="240" height="120" as="geometry" />
          </mxCell>
        </object>
        <mxCell id="2OP7rRh1nuFDzXFdCpIF-8" style="edgeStyle=orthogonalEdgeStyle;rounded=0;orthogonalLoop=1;jettySize=auto;html=1;exitX=1;exitY=0.5;exitDx=0;exitDy=0;exitPerimeter=0;entryX=0;entryY=0.5;entryDx=0;entryDy=0;entryPerimeter=0;" parent="1" source="2OP7rRh1nuFDzXFdCpIF-1" target="2OP7rRh1nuFDzXFdCpIF-3" edge="1">
          <mxGeometry relative="1" as="geometry" />
        </mxCell>
        <mxCell id="2OP7rRh1nuFDzXFdCpIF-9" value="https" style="edgeLabel;html=1;align=center;verticalAlign=middle;resizable=0;points=[];" parent="2OP7rRh1nuFDzXFdCpIF-8" vertex="1" connectable="0">
          <mxGeometry x="-0.2" y="-2" relative="1" as="geometry">
            <mxPoint x="12" y="-2" as="offset" />
          </mxGeometry>
        </mxCell>
        <mxCell id="2OP7rRh1nuFDzXFdCpIF-11" value="(1) refresh token&lt;br&gt;[cookie]&lt;div&gt;(2) return: updated token&lt;/div&gt;" style="text;html=1;strokeColor=none;fillColor=#E6E6E6;align=center;verticalAlign=middle;whiteSpace=wrap;rounded=0;fontColor=#009900;fontStyle=1" parent="1" vertex="1">
          <mxGeometry x="350" y="420" width="110" height="70" as="geometry" />
        </mxCell>
      </root>
    </mxGraphModel>
  </diagram>
  <diagram id="3c-7a43G0y_9lUdPxCaE" name="logout">
    <mxGraphModel dx="1418" dy="828" grid="1" gridSize="10" guides="1" tooltips="1" connect="1" arrows="1" fold="1" page="1" pageScale="1" pageWidth="850" pageHeight="1100" math="0" shadow="0">
      <root>
        <mxCell id="0" />
        <mxCell id="1" parent="0" />
        <object placeholders="1" c4Name="Frontend" c4Type="Container" c4Technology="React, TypeScript" c4Description="Web interface utilizing NexusMeals backend functionalities" label="&lt;font style=&quot;font-size: 16px&quot;&gt;&lt;b&gt;%c4Name%&lt;/b&gt;&lt;/font&gt;&lt;div&gt;[%c4Type%: %c4Technology%]&lt;/div&gt;&lt;br&gt;&lt;div&gt;&lt;font style=&quot;font-size: 11px&quot;&gt;&lt;font color=&quot;#E6E6E6&quot;&gt;%c4Description%&lt;/font&gt;&lt;/div&gt;" id="4lZ33DG7_WMA5u04_QAH-1">
          <mxCell style="rounded=1;whiteSpace=wrap;html=1;fontSize=11;labelBackgroundColor=none;fillColor=#23A2D9;fontColor=#ffffff;align=center;arcSize=10;strokeColor=#0E7DAD;metaEdit=1;resizable=0;points=[[0.25,0,0],[0.5,0,0],[0.75,0,0],[1,0.25,0],[1,0.5,0],[1,0.75,0],[0.75,1,0],[0.5,1,0],[0.25,1,0],[0,0.75,0],[0,0.5,0],[0,0.25,0]];" parent="1" vertex="1">
            <mxGeometry x="85" y="440" width="240" height="120" as="geometry" />
          </mxCell>
        </object>
        <mxCell id="yX1wMtCwgjgCgUWOS8MC-1" style="edgeStyle=orthogonalEdgeStyle;rounded=0;orthogonalLoop=1;jettySize=auto;html=1;exitX=0.5;exitY=1;exitDx=0;exitDy=0;exitPerimeter=0;entryX=0.5;entryY=0;entryDx=0;entryDy=0;dashed=1;dashPattern=1 4;" parent="1" source="4lZ33DG7_WMA5u04_QAH-3" target="Jn26WBhDu1piC7xwgi1e-2" edge="1">
          <mxGeometry relative="1" as="geometry">
            <mxPoint x="564.9950000000001" y="670" as="targetPoint" />
          </mxGeometry>
        </mxCell>
        <object placeholders="1" c4Name="API Gateway" c4Type="Container" c4Technology="NestJS" c4Description="Receives requests and routes them to microservices." label="&lt;font style=&quot;font-size: 16px&quot;&gt;&lt;b&gt;%c4Name%&lt;/b&gt;&lt;/font&gt;&lt;div&gt;[%c4Type%: %c4Technology%]&lt;/div&gt;&lt;br&gt;&lt;div&gt;&lt;font style=&quot;font-size: 11px&quot;&gt;&lt;font color=&quot;#E6E6E6&quot;&gt;%c4Description%&lt;/font&gt;&lt;/div&gt;" id="4lZ33DG7_WMA5u04_QAH-3">
          <mxCell style="rounded=1;whiteSpace=wrap;html=1;fontSize=11;labelBackgroundColor=none;fillColor=#23A2D9;fontColor=#ffffff;align=center;arcSize=10;strokeColor=#0E7DAD;metaEdit=1;resizable=0;points=[[0.25,0,0],[0.5,0,0],[0.75,0,0],[1,0.25,0],[1,0.5,0],[1,0.75,0],[0.75,1,0],[0.5,1,0],[0.25,1,0],[0,0.75,0],[0,0.5,0],[0,0.25,0]];" parent="1" vertex="1">
            <mxGeometry x="445" y="440" width="240" height="120" as="geometry" />
          </mxCell>
        </object>
        <mxCell id="4lZ33DG7_WMA5u04_QAH-8" style="edgeStyle=orthogonalEdgeStyle;rounded=0;orthogonalLoop=1;jettySize=auto;html=1;exitX=1;exitY=0.5;exitDx=0;exitDy=0;exitPerimeter=0;entryX=0;entryY=0.5;entryDx=0;entryDy=0;entryPerimeter=0;" parent="1" source="4lZ33DG7_WMA5u04_QAH-1" target="4lZ33DG7_WMA5u04_QAH-3" edge="1">
          <mxGeometry relative="1" as="geometry" />
        </mxCell>
        <mxCell id="4lZ33DG7_WMA5u04_QAH-9" value="https" style="edgeLabel;html=1;align=center;verticalAlign=middle;resizable=0;points=[];" parent="4lZ33DG7_WMA5u04_QAH-8" vertex="1" connectable="0">
          <mxGeometry x="-0.2" y="-2" relative="1" as="geometry">
            <mxPoint x="12" y="-2" as="offset" />
          </mxGeometry>
        </mxCell>
        <mxCell id="4lZ33DG7_WMA5u04_QAH-11" value="&lt;div&gt;(1) logout&lt;/div&gt;&lt;div&gt;[cookie]&lt;/div&gt;&lt;div&gt;&lt;br&gt;&lt;/div&gt;&lt;div&gt;(3) return OK&lt;/div&gt;" style="text;html=1;strokeColor=none;fillColor=#E6E6E6;align=center;verticalAlign=middle;whiteSpace=wrap;rounded=0;fontColor=#009900;fontStyle=1" parent="1" vertex="1">
          <mxGeometry x="340" y="420" width="90" height="70" as="geometry" />
        </mxCell>
        <mxCell id="4lZ33DG7_WMA5u04_QAH-16" style="edgeStyle=orthogonalEdgeStyle;rounded=0;orthogonalLoop=1;jettySize=auto;html=1;exitX=0.5;exitY=1;exitDx=0;exitDy=0;exitPerimeter=0;entryX=0.5;entryY=0;entryDx=0;entryDy=0;entryPerimeter=0;" parent="1" source="4lZ33DG7_WMA5u04_QAH-17" target="4lZ33DG7_WMA5u04_QAH-1" edge="1">
          <mxGeometry relative="1" as="geometry">
            <mxPoint x="195" y="400" as="targetPoint" />
          </mxGeometry>
        </mxCell>
        <object placeholders="1" c4Name="Customer" c4Type="Person" c4Description="Responsible for placing orders." label="&lt;font style=&quot;font-size: 16px&quot;&gt;&lt;b&gt;%c4Name%&lt;/b&gt;&lt;/font&gt;&lt;div&gt;[%c4Type%]&lt;/div&gt;&lt;br&gt;&lt;div&gt;&lt;font style=&quot;font-size: 11px&quot;&gt;&lt;font color=&quot;#cccccc&quot;&gt;%c4Description%&lt;/font&gt;&lt;/div&gt;" id="4lZ33DG7_WMA5u04_QAH-17">
          <mxCell style="html=1;fontSize=11;dashed=0;whiteSpace=wrap;fillColor=#083F75;strokeColor=#06315C;fontColor=#ffffff;shape=mxgraph.c4.person2;align=center;metaEdit=1;points=[[0.5,0,0],[1,0.5,0],[1,0.75,0],[0.75,1,0],[0.5,1,0],[0.25,1,0],[0,0.75,0],[0,0.5,0]];resizable=0;rounded=1;" parent="1" vertex="1">
            <mxGeometry x="545" y="90" width="200" height="180" as="geometry" />
          </mxCell>
        </object>
        <mxCell id="4lZ33DG7_WMA5u04_QAH-18" style="edgeStyle=orthogonalEdgeStyle;rounded=0;orthogonalLoop=1;jettySize=auto;html=1;exitX=0.5;exitY=1;exitDx=0;exitDy=0;exitPerimeter=0;entryX=0.5;entryY=0;entryDx=0;entryDy=0;entryPerimeter=0;" parent="1" source="4lZ33DG7_WMA5u04_QAH-19" target="4lZ33DG7_WMA5u04_QAH-1" edge="1">
          <mxGeometry relative="1" as="geometry">
            <mxPoint x="185" y="380" as="targetPoint" />
          </mxGeometry>
        </mxCell>
        <object placeholders="1" c4Name="Courier" c4Type="Person" c4Description="Responsible for delivering customer orders." label="&lt;font style=&quot;font-size: 16px&quot;&gt;&lt;b&gt;%c4Name%&lt;/b&gt;&lt;/font&gt;&lt;div&gt;[%c4Type%]&lt;/div&gt;&lt;br&gt;&lt;div&gt;&lt;font style=&quot;font-size: 11px&quot;&gt;&lt;font color=&quot;#cccccc&quot;&gt;%c4Description%&lt;/font&gt;&lt;/div&gt;" id="4lZ33DG7_WMA5u04_QAH-19">
          <mxCell style="html=1;fontSize=11;dashed=0;whiteSpace=wrap;fillColor=#083F75;strokeColor=#06315C;fontColor=#ffffff;shape=mxgraph.c4.person2;align=center;metaEdit=1;points=[[0.5,0,0],[1,0.5,0],[1,0.75,0],[0.75,1,0],[0.5,1,0],[0.25,1,0],[0,0.75,0],[0,0.5,0]];resizable=0;rounded=1;" parent="1" vertex="1">
            <mxGeometry x="105" y="90" width="200" height="180" as="geometry" />
          </mxCell>
        </object>
        <object placeholders="1" c4Name="Chef" c4Type="Person" c4Description="Responsible for CRUD-ing orders." label="&lt;font style=&quot;font-size: 16px&quot;&gt;&lt;b&gt;%c4Name%&lt;/b&gt;&lt;/font&gt;&lt;div&gt;[%c4Type%]&lt;/div&gt;&lt;br&gt;&lt;div&gt;&lt;font style=&quot;font-size: 11px&quot;&gt;&lt;font color=&quot;#cccccc&quot;&gt;%c4Description%&lt;/font&gt;&lt;/div&gt;" id="4lZ33DG7_WMA5u04_QAH-20">
          <mxCell style="html=1;fontSize=11;dashed=0;whiteSpace=wrap;fillColor=#083F75;strokeColor=#06315C;fontColor=#ffffff;shape=mxgraph.c4.person2;align=center;metaEdit=1;points=[[0.5,0,0],[1,0.5,0],[1,0.75,0],[0.75,1,0],[0.5,1,0],[0.25,1,0],[0,0.75,0],[0,0.5,0]];resizable=0;rounded=1;" parent="1" vertex="1">
            <mxGeometry x="325" y="90" width="200" height="180" as="geometry" />
          </mxCell>
        </object>
        <mxCell id="4lZ33DG7_WMA5u04_QAH-22" value="(2) deleteSession sessionId" style="text;html=1;strokeColor=none;fillColor=#E6E6E6;align=center;verticalAlign=middle;whiteSpace=wrap;rounded=0;fontColor=#009900;fontStyle=1" parent="1" vertex="1">
          <mxGeometry x="460" y="590" width="150" height="30" as="geometry" />
        </mxCell>
        <mxCell id="4lZ33DG7_WMA5u04_QAH-23" style="edgeStyle=orthogonalEdgeStyle;rounded=0;orthogonalLoop=1;jettySize=auto;html=1;exitX=0.5;exitY=1;exitDx=0;exitDy=0;exitPerimeter=0;entryX=0.5;entryY=0;entryDx=0;entryDy=0;entryPerimeter=0;" parent="1" source="4lZ33DG7_WMA5u04_QAH-20" target="4lZ33DG7_WMA5u04_QAH-1" edge="1">
          <mxGeometry relative="1" as="geometry" />
        </mxCell>
        <mxCell id="Jn26WBhDu1piC7xwgi1e-1" value="" style="group" parent="1" vertex="1" connectable="0">
          <mxGeometry x="495" y="680" width="140" height="115.89999999999998" as="geometry" />
        </mxCell>
        <mxCell id="Jn26WBhDu1piC7xwgi1e-2" value="" style="shape=image;verticalLabelPosition=bottom;labelBackgroundColor=default;verticalAlign=top;aspect=fixed;imageAspect=0;image=data:image/png,iVBORw0KGgoAAAANSUhEUgAAAlQAAAIACAMAAABzWQL6AAAABGdBTUEAALGPC/xhBQAAAAFzUkdCAK7OHOkAAAMAUExURUdwTKcoKLcwJZAmJpEmJqc2NqwoKJEmJuEAAI8lJY8mJsYvKpAlJY8nJ8YvKsYvKsYwKpIjI8UvKpEnJ5AjI8YvKZImJo8mJsUuK5AlJZElJZElJccuLJAlJZQlJccvKsYvKsYvKsUuKsUwKZEmJsYtKMgxKo8kJJElJZAlJcMuKMYvKpElJZAlJcYvKsYuK48jI5ElJZAlJcUvKsYvKcYvKpAlJZElJcUvKZElJY4mJpAlJZElJcYuKZElJZEkJJAlJcYvK8YuKpAlJY8jI8YvK8UvKsUyKMYvKsUuKsQvKMcvK8YvKpAlJZElJcYwKZElJcUvKsYvKZAmJpElJccvKpElJZAlJcUxK5AkJMYvKsUvKsUvKsUvKpElJZElJcYvKsMwK5AkJJAlJcUxKpEkJJElJcMtKsYvKpAlJZElJZEkJJAlJcYvKY4mJpEkJMQuK8MuKJElJbssJ8UtK8MtKI4mJpEkJI4mJo4jI6YqKJslJa0rKLMqKbItKbYqJ6UrKKAoJ54nJbcsKJEmJsYwK////5opKGIbHMUwK5ImJponJr8vKpYnJpQmJsMvKrIsKaApJ6wrKMIvKrgtKaIpJ7wuKqUpKKgqKLQsKa8sKbUtKb4uKsEvKpknJp4oJ64rKKkqKMAuKrktKsQwK7otKacqKLArKJwoJ50oJ5QnJ5MmJaoqKKMpJ8YvKscyLZcnJsQvKpsoJsYxLLctKY8lI8g1MP/+/s5LR9RiXv35+dt7eN6EgdFYVM9QTMtCPfnp6d+Jhtduatp3c+u1s40kI/329uGRj//9/ck6NfDIxtVmY9ZqZu/Ew/fg39NcWNBUUOahn+CNi9x/fPvw8Pbb29lzcO7Av+mvrcg3Mso9OOqysOKVkvjm5WMbHPHKyco/O/fj4vz09PPS0fHNzIskI81IRNhxbsxFQfrt7eisqueopf76+uSbmey5uOSem3EeHuakomsdHWccHe29vPPU03cfH+OYlfTX1n0gIIIhIPLPzv78/PTZ2IUiIYgjIZywpiYAAACEdFJOUwAGCP7iAwzoAeD3ZtQTS5xaD1Im+rYY8S2SOqwcKwondZLrOCD8FBxzqPWBRcCvvPN9mMhEPYJY3l78eLPMh9m3e5bF7fiNGdPn4yBwz1LwTDLYMqNgP2kP56qGoqduNsL5jcgj3rzxbZ4vnGK/6u/a1mb61fr4Mdze8Orz9vf1Hv375ypRf0YAACAASURBVHja7J1bTJPZFsfRCIeEBAwJCQ9kuAUeJMEHIPGFB0m8mxhMSAxigomJvJhoxnmZc87bt7+C0aPoKDOgx6NUzjjqMA5SoC2UtiiXcr9f5aog18OIeJ2Z0wKjXNrS9tt77f21+/dcWr7df9Ze/a+11/by4nA49PAJjU8JOx4ekJaWFhB+PCzFP9iHLwrHVY4lZCSlH0AbOZCe5Be5lS8Qxym8g/3SjiK7RCWGB0bzleI4hG9oRmwEcoz9e/15xOJstuUFBhxETrEnyG8fXzeOLUIydn6DXCEu7BBfPc5GgncnIgkkhoXwNeSsTqOCY44iyaT78cSds0JozDmEh29iA3nezvEKCUtEOIlIivTlq+rRv/VSzigRds6H8Z+DnsoW/9Q9iAxRQYFb+AJ7XmqeHB6BSBKxN5ivsoclUucQeRL9jvGl9hC+2h6kRDDsSYv35gvu/tteQsBpBMmu3dwUdfNtb/dZBI6SZ+3uy1a4bY9n7Z6x7UUmHUE0ifPjDaPuxb6w84g6OwISuNfuLmwJjI1CbHA0jJec3YHgvRGIIaJi/bnJIG+O+SUi5jgYwzv6ZIt3/Ik9iEmUO3mHjCw5FLMLMQw3GWRoSe1EzBOXwk0G+VhSyUmnkSw4EsAb+mRB9OH9SEbsP8xNBtZzc//Uk0hmnDzBOxkY5lTMQSRLeCcDs7n5GSRflEHcE3WL3HyiiCldHTh+in+Rss/NyxqrdWzFq53buSfKRm4e73Ju3iXWLBgK2TIZwrknyoBvLiE3r6gRRbFyppR7ohx8vnm3uESdUSVZCoVNLZ3cE5U9yeGSWzkn1MuqEtvnmyUpqmy+UlT34vREM7gnCs6xDCw9LXPiZ0bbal1UlGnqleUNujGf7jrB+0Rhc3NcPS297V9UJY5MNjltMqjqJ/96i3Ls2dVZPpMBipDdGHta9OIaOvRDzijK0P1FlKO8T1SubAnEe8xKNbBWVaK6yuSYydAzXjWy+g81vE9UnoTi7zfXiBsYrp7Y7K9qO2dH1v7RKxUiBT+MSg6flDgC31jhu42qEmu67HmitcYF9YY/mSPcJxrKBYAd38gAQmdBTaJVbHmivZoutTUZviTtiabzEg5eoklO/qkTbTBo7Fn30qG2hmnrr10AsNpP8xIOPgPBPzWK5HdVLtpkjSeq09bV2HylCaaEwydeYeEQ+ca7KtEOK57ohH6wxs6rGsHK0jt4CUciMIdiSqftqUp81m3Sfyyx+xJRz9vaZUJwONCclnlRIljLfg6VcHhbu0vFPcAD60MjEkXVjcDZxUs4zhoICWk7IL+haomiKkcU4CUcZ9gXdhT4++mplKSpj7T6+XgJx1EDgcYwqTZJotIgavASzuacOn6AyndT2CFBUwTLfryEIw8DwToGCaKaQbThJRzaBoJVisZc1hT5sh8v4TBvIFij4u2Ay6JaQGyQyMcfUzQQ1qPTj0pJ002IFXgJ5y+iwQ2EtW6CseuTpJ9+jUydRuUlHFoGwpcffaY+qWY6bNmPl3BY6ECwR3NLpSidlpeINTy3hEN5LOdE6+8iHkrqNLWsycozSzjB4TRH5tdq6kpEjIx0lxWxpitPK+H4+MVRXG2VYVYtYme4n7lt0INKOL6RARQNhKKm5TPqJBhkbxv0jBJO9OFzFNe4tL9RJAmL26C7l3C841O/obe6Q9qPInmG+0tZk5U7l3BCaBoIqs6FaREIBrdB9zyFg3sGgnMeZ9lkuwjJSF9ZIWOycr8STijNO/cqZgZEeAbeMrcNnnejEo5PSjrNYvE7kRbsbYMnU92ihOObTPE+7FpNQ41Ik2fsbYPyv1ziWAbVy4dUpU0Gbf/U7FhjOzVdsbcNKoMC5RuufBPS9jCzkqqX5Ya26vnZwQ54fY21sbYNyvVyiX1hZxGbqCbK6zXVLVV1Ha9KwLZBE2vb4BnZeaKU26Qc9xp0zSZNa0tfw7tKYslXTeXowlS1poK5h5fX5RK0zllJ09dQs8mon+s26wuLS9re0dA9ozWU6woZfug4mbS1y+L24k2Kzr0VZS4ehFcPj1W1tBrLSntk8qxy8ETpnrPCKaw6p3a4NwtT/W31zb1FMnxUttva6bZJ4fbhpx3Y4er6ZrTjTROFMn9WZi/cpdsmRYA5eyaBnHY42XqiMrti3SE7foCx0UHkPVGW+kS940+cdMNV7mRmdFDWDShPlJU+UaxXxTCVqzfYEpUR9P+4m3v7xWL2LZgPS0/5yrPbpGjl6pCjg7K+K1AoFC8yM1+/uALziaeTkqmaDEsuZ5HbigrN0B4ddDH3tkKxLCozi7fvApkMGbT6RLduP4PcnJ4BmqODsp7kKFZYFpU5XP353yyQz6Zzdt5tXE67jNMbHXTz6n2FYr2ozPzvV6BwBW0yuJXL6XSuDjA6SJmXo1jNKlFlZj7/4z8w4QrQZHA7l9MeVi6DID86aE2Q2igqS7j6902Y54/YC9HJEH34PESE6C1tbqofN2q0Wr0ZbZvG2GkwNVXowF3sjbl6K+kg9UixgfWisoSrhzDhCsURPt3lHZ9K0uVUlZo0/VMLY43ttpubptsbB5f7AGAKbhtydbI3hty4+qNC4YioLOHqFyBPdEcauXvnybmcRaWG1snBAef65D4NN0zp61+SdjQMcDeGXP7husI6VkVlDlcf7jyWc9ZOyuVUlWsnR6VMs2sfm28rJ+hGFnUBlf1sBCl7ojLz24N7MLJSBuHuPybTy6nrnB/FcxZd/XHOQGpbKl0zd2iUzIdcu3JdYQfbojKHq/cFQEWNIxi9diIuZ61hqgNvL3hJx5SBSB7/lviNITceKuxjT1RL4Sof6HfLfjyDH0m4nKWtY5+IHDJQN+jxn7Jbnau39xAIUtkKhTRRmXn/CChcKYMCt7Lnclb0dxA9DvV7Ne4yyqpcfQ7zW2fd+17hAJuLyhyuip8gsG2QKZdzSPsG4vSmdgjrf/05Vy/BGwev5WYrHOJppkMsXr8GpCsXb5cg0MtZ1NSnFmFQd+P8lfY5V+/C+KY/53+vcJQXmQ7y+ukPQLI6HX7KaZcTfy9noXFUhGTMiM8e7V95z3ps73jL0SDlnKgs4Qqqn08ZG+nMiXUCLqeqbRh8hkEjNln1LP/zw5jeb7nzjpCoAPv50M4EiifWizobRRp0jGMy3Osxlv2cC1IuiMoSru4DNcgEOZCzHyLicjaPibQYwzTDYMGSqGFI/7OeFCicx2lRwfXzKQOiNynFEDmxrpqjOXlMXY2lhmPJ1fskv8vdlfZgAFEt9fNdhJBVxHbbPvu+GDJjNZo7RLp0YAlW5ly9Sdo7PH6So3CRp5mu8fyPqxDhKs3HxoCy1CgyH6hRi7QZMeCIt8NvJP39xQ2ddwCigurn2x9iLTkn1R5c9FZkgJJ+DPl6fZuExMNa5x2MqCwNMuT7+Q6uv1zJezuxI+uFUyIbtGBQlct+wg0pQUq6qCzh6hLpfr6ja9pDff0J3jbbIrJCP6LEZYlBaoniTKkQ7+cLWKWpZJKH97QiO2ipSMpe5x2oqMj3830+IeGTRLJhonyaIVE9g588rbTfeQe4/UH084WvaCqB6GiNwjciSwwCjybbtPMOXlRLDTLfEXrexOVsKoZsX5dGZAvIWS2OdN5RERW5fr4dS/55GuGFfceYqOqgFJWVf0eBF6yisoQrApXBry2d56SHCFeIrAGTVd3CG6TwJeqrmq7yCDz3P8yiCiC9uHrmRAXwA9CZzjtKonp//TIRm/vvXl4pxNd3kjlRzREPUrnZCiI8xbfxkWpkv7LNayv5Sx0XmBPVLGmfE48pRS5Svc8h9tPs2qVtXn7kd4Iq5kRFfrCUEod9TkhURA8HZmUL27xiyYvqLXOimoTI0y9KLvSRENXzDwVEqzQFgllU58ivrsYTE3ULj/NyGBPVbw8I15PNmjKL6mvya6v7xJqogGZ1Itc7PEmI6vmHh4RHwygfCUui+ifAyrKWqY9BFmlc60XHLyqAIVa37gvLovoWYF1NjInKgGC5hS9cuSgqkG7i/EvCiqj+BnGCZ5atKg38wPes/AKKogJpJP756gXhs6gKANZU186QpkboXLqOxw91XlSv/wQZYXzzR0H4IioB4sy9oYYZTZWMI0rgqNw4K6pFmGHrX8LUiqj+BTGFlB1bQY8oIrnGXOxckLoCM7j43q+CsFZUAshsW1aqytWILhK7YZwQ1eJtoPkc13IuCBtEJVy6BxGr1AxI6lMboo+Uvj1HRfX6BdQkoazcnwTBiqiEB3kAn14+QF1Tr8oQG7jcYeyYqBazoWaeobxfBMG6qIQLdwA2X10DbS9Bh5jBxbMQxY40teSBPUX+fUGwKSpBuA8wwqHI+IqmlaBl7EJCV05tbSoqsDmylgfIFgS7ohJ+ygX4N4a6qWmqSoeYw/kGmWJKJ2SsSerRBWEzUZmDFcSvwPIuOseyWL2W/aZzDTLFLMzmX5JUjg1JrROV8ODh/9k799im7iuOX2h4bcA6tUPTGO02jRUmDU1jncTUtRJjrJ1aqWWdVtFJm/YH07pp0lZ10x7aX8ed7NiJ7cROYucdx0kcJ3GekJKEEqLyCgRCSRpSNB4VUFpAlaiIRCftOg/iJH7cx+/8zrlOzt+QXN98fM75nd/3nCPjqYZOyEeq28bXQnoEMp3kW0SmA19KpOZDBeCSUi0bGpDZsXzs9pCNuWnX8wHxvqOp9NwD6Ww+VAC5Uga7H3r/bVlVhFvXbBYwu0Z3BSSTXOYWERoAdEIFUCHFj3YNDlxBJ+rj2/1dNquYM9BgACoZM6cS4XfnAhiACsAjJzyPHRnFrLJ/PHrwgs1SpmEANswXtUh1UqFADMAgVNKwso3138Sps384fv24zYKWSX7cSbGXe+Z6yZsHYAIqNQjKqni09w2PipVbXTl1tLfdZlVLr+frlD1xeLb2EXYAmIQKoK2kWdYDt/T1DIjxWBdvH+5tsVnc0uj5OuXORk848GlFCmBNGqgAYgGJ1TTbhe7D4xPGaw3Hzt8+OnjJlh3WnGpRW+eUqKVa7tOUtIEOSw8VQCQq9/FtXX39wzdP6NrMvf/iB+NHR8502bLLkgtkOiXum9GVneuACsDR5Cd4o13XhkYO3xk/8enpD1P4risXJ04MnB0+2H0g22iaza78C/V89bI2Yz04OVRFAERDFb8TDNop3+3Yob7eoe7uk/3XR65f7x88OdTbd+N4i21R2Fx3VRFwSv79aW74TEKlJleV+bYl03Xy6B8W1LTzQCAT7pD83bZnrJ2bggqgMVy6hIoWuzR07s7d02rMHhVW1QiV+P7jCUhObvWnUvqhUpMrT8cSMhmOGO/df1Bxe1eofMvZLPnTGEiljEClWrnUEoN1nFP3uTujp+dNIRmx8ieqbXIASIIKIFLlXIIowTldP5rgnOboTC1cIytpAFOmF6r4teBSFJx0TmcXOKcEe/uCVT+Z8VTKDFSLOwrGndP41Yx3lYMW/Xil4TwAEqjUKFi86M6C7YcmnZO2Uv9Na37GDo8DgAyqRXUW1OicEm+1rai6aa3LBTFmGKrJKJif9c6p5+zoZd0Da/Z3W++zVkfzABhAFa+I+rPUOZ0Z0emcEu3sIishiIUqruULNmebc/rk1GVT07ROj1nrM9vdbSDUTEMFEPMWZANOY6pzGrgqoBfj2JClPneB1wXADio1aS+qtbJzumHeOSXaLSt9eEMqBClQqVbvtlvSOb0/8KngRrEJ68i77MEKwDBRUAG4qqot5JxOqs7p4n6MvrAzVnkJ+ZUxAOZQqebrsIBzOiLeOXGa/qi9dN4IYAWoAMrr8hk7p49wnFOi3beGIlVQ6VwOVBxLV2O9qnOawG+xj9s7ByxAVChQDqgmHKq4pL3Ezsc5nZA6aLSHP1LO4giA9aBSk3ZvGbVzujcw8c5i2E+i02p8gG84UMUbu2qo3tuhm1RTkK8wH1rU6s4FsDBU8UFXVKqrlsHR/SRQHWSNVHVVHoDVoQLIK6ZK2g/cIdiwdJdz8Cv0OQCyASrK++axg1clM/XuIbZE2SXFPUlQxe+bqZL23vekLi5h2z5THXWBVFuLDhVAI9l984XDp+WNaed63mtygGTbKgGqeNJeR5S0t5+8K2fTIM/2mZC7HuTbDjlQUSbt127J2F3CsX2mzBshQApWPSYLKsqkvevIB9hMMWyfqW1qBBL7iyIRKsqk/cxHqJd/7Npn7CRxb9L2rZALVbzSXkj0mo/3nMdby9zNLe65qJCCnA2KbKgoK+3t3bc/w4GKV/uMnyruxW3XJoUCKjVpJ5PH4Gwv4dQ+Y3c3AKHtei3OlLKG5JdXUGnaW64L3+F1jM/WtwLCuBe3vz8yyZSyj+j3u6JUmva+T8Qm7ffYxL0iBylS8J11U0wpW8geweEjS9rPTWRd+4zpqVLm7bfLpplS1n2X8DHIxjG0C1s5yKN9pswbo0bqTy8qs7aF9FEIk/ajQsR8w0txb9Ke2pDAlLJiH/HjNLip1Hz9p0yr+ejbZ5pLKsiJgl07VitzbN0z1I8UIUvaD5w1p+Yjb58poI97qv1+nTLfnniG/rHIZqiZU/P1UMe9CAOkXviKksQ2vMDg0WKVVNNjjKv5SNtnsEYh6I18v1yhJLXHNnJ4vEgRVdJ+afiyofaZG4RSKRZxD/769BeVVLZ6y6McHpFuekzLoAE1H137jD/MIe7BQy9/U0lnf1vLgirIq6IafKxbzUfWPsMj7gE8tUnJYMt/8EMej+rwUK2C6zpyX8/ub5r2GbwRQHqR+rmiwV77MTAxupGPZ25q7pYnaZ/BHAGkD6lfK9psxY5VXLCi65vX2oJD0T7T4WHy52nyb//8KxqpUlY+/TkuWEFbHWc1n/z2mVBdOZMv/NQp/Sd716/QiNUTf3iIDVZ0F4M37mVS8w1Kj3t5PP4okeLZ64/ndj+uEatHtgIfq6AadtU18l9G7TO4o+/0fM/n96785uHl2rDatJERVnTDrvpSt+Bcltk+0yp3FEK6A1Sy/oJvvPpVjVht5RMEweGjStqP9/yPvH1G3gigjEluqqjxxq++rDEIfu9RRu4ql2pCbXt3MjWfvPaZGh+TuJfhyn/bS9qw2vAyJ6w4qfnOS2qfCYneGmP2wJfO9mrI2b/1tT0iVp+KNEo1XyJTn8lpnymLRpi8+EhUS1q7eXf6ytXq7+99Y0peUVLPCSseaj4p7TOkLaGZs/Ok9rP1qZF65fk9Cf+ytokTVnRrJcZmWnAktM80uxvYhAddY1V2pqgvvPSFby84f0Q4YUW3EXVo/K0333yrD/vX8JAIT12W1ep89u0/TRL3nvxS0owxUM4qClKq+bDbZ5hIpeJnIyM7rPbMp2r1+u2p/q2dzV3mTNJOpebDbZ8JsnnNMYMB4dmVc5h68kcW+QpNVdqjTluWGaOA0GB8Qt3OBKQe35b5Q1eyKjHQteAglc65fGkdptKL0IOC1fJXN2s6lnBRss746MqCLEGqlk3pPM9s3Wb3zJHvWQsmksRJu0AjnKa44GxtXsW2fSpBf36zLv/GLApacoEzyxKCmlCYf5Wh302qiHfqLs4FeZ0FXVXWTdpL2Xj+iKDr1ddVppZtM/I//VwU+NZO2gu5qO8gFhCVnv5LherrBv9vPq+KqJq0hyxGlJ2N+k5o3e+fivKwiZdSyCsKWitpL/CyKSE0iXxvwRxl2XOmfoKTjS5xJmm3iLviMKhspoosVK+dH8tRfmH2h7SyUZJNuyuvBZJ2PpdeuaKPzj7IUfaKKNw1OThhRTehVuOZm00qhfCmikGF6s9CflQZ8QDvhfIYtlGwgM2riiAUYqIQh+p1USeZEl4XOHSadotUpTC+d81hmITq3wJzT14XOHS74CxwwSeidL4wrk9lijnKP4Rm/txKV15G9832YAMbL44yA8w/fduUo6wS2/9rZ9OgPVOCqeWBVCubzqQYkhy7cuYPr0IVFv3DpW8Xz2BtDO6b+RxksHKC6tmUWoXKEUS4fmhghRW1SNTJJdl0oJ1eAgk1cBUqiGAEWD4FY/LSFZtXIe7KeMFHnONE4lBBDOV7XMBMdZXrbqWRIXC5MkabpJpfPPdbMwkVuHCcIrcOnDz5qqsgE0WnA/Gq3T0/tk9BBRGsWT3c7pulRkE2yhYXYmWlY+HN7zRU4PCiHaXd9YszCtrdTGp2mC2S/mSxKOfBYu4KvHl1zJJ2Q423+pGKZX3cs5Um/8POQgURN+IlKq+k3eFDrog2M0EKdbSlM5WvSIAKwIOYx3JL2jE7cLh4KVTBojOcMvzMgQoiXszas5NXpR0te+WRSzmKML1xabqMZi5UADE3bqLBqtIeQbhXZXLii6COdPanH1k2HyrVZ+KmG7ySdoenUDBS5TziHmbEqcmUyCyECsCHq24r4CWPqRd39clDiICsy9BQzk0GlXo4wsXK3uHj5K7KxeSzZSxSRpcXs14S0uSJk0KFj5WtOspJJOoyrzDiEdZxVT75GvU7KaCSgBWvpL2x2EzOHiph8Vlwq2/ab9xSQhWvsWNPJ2ClaXd4jKrX/FUc4h7yPYEeT7xGWZX2ngxZM5lfxylpd3n1u6uyAItW2jbcG80OXZ1S6aHCvd+e1hv5OJ0FGwJ66jsFbhaCfOSFULpLb5mgwqkQzkvaeTWiVlRq+8D+QAWLMyxy3CvTP0YkM1TiK4TJTqq8GlHLw8H0DtrpLmJyQ46s5DHU+6oFKhnJFbsZalBeFKhJEgqbS4NeDxfPiq28NziRTSNUwufNJHNXgVzgZpE2X9gbcJcEg0G3uzJa5IkxqtpGcNXRxseIaIZKSltmLS81H2vLxR3EZWaMiA6oQMYY4DJvbIkXLXXOQuRkxEwFUR9UMrZk25kNPmZo2F1BZvWUeqECaCxCj4KlvFbBMTPk0Vut5kUk+qGSEgW5jXzkYygjgBIv+gW01BmCSkYUXErak0WJYtxCtKAxmwahip8Fa7CxKqtcStoTLYa7kVXcfhzDUIGMET3cWnBI4x7uWECR+3HMQCVlJQyzFhyqOifyAFOxIiRzUIGM5evchl0RxD1kqYjoHY6moRKyIM5Saj7ZhjcCaPp2THjmKgAqKdOluU2olXbeQ962UxpGmMojBCqIT5JEn6vJS80nxbAlkkh74URBJWW6NDM1H7Yh725qReulFgeVFBkDNzUfoiG/TGcUbxqdSKhAyjZjdmo+lLgXxR2hhbt5QjBUUkpX+QzVfEINWSIcwp5tKByquKQdf5txYVMWl85x77/K8PehIkAFUrYZl2Vn0t6I3Lvkb5KQPOBAJWWbsT2YdUk7+pWxnLsJLKhAyjZjfzgvi5CqwL4yluXbEaFS3VUUfQxwKFuSdgeya5c5lQYVKpAyDL8mC9R8yKLHZrlTabChikuq8/GTdmur+ZBLCAWyX89adKik3DdbOWlHrsD4i6QrPDZKgArimyyWkvbkaSduCYHmy/ZHOVAtJe0pUinUS/gQjch/10pZUIEMkai15DHINRcyZeP/2bvWprauK3owwpYpJENkQ4DY0+mQAWrTAFOb2jCYDPbUTcepOzh2/aE4L2dqO03appO6j5l+uXyQEEIPEHoBFpIACfAIqh9YCbDNQ6DHPeucJeH9A+yry7pnr7P32muPC4WgUkLaK0YeA+7G6COZo3VqQaWk0l4J8hgwlZrWONx2plOoBpWBXT9XGZp2MJXSemVpGRM6QKVk+Tqxph3sAaTX36SlLYcpYanG4swE7SAq9odPa15k8vDpNqZEj6b/P/0CrmlnW+CMbvBFdJfq7nTuYEoM6mOrc3BNO9UC5xTW4TKj3X772cVdTInmeq2lGjhpl+RkYv5khtpKxfVvOWgZEG+iT+ujuKJom3YKkSjW3jkS0J/nezr2YErUjGomGh74IKpd80Ii7JafDMHaid4HdWJfNJ/Vnhrwg6j+ZW1vHrqPLE5RO2nvFAfDZtH+VA48afdpKTM7oLVzZ4Chyvv8rsgTHQ3VXxTMCSCVN8Swe2NmKNYt9Q7WiLzRNEJx5w748VlQ4aedQmb1TQ6hT21/szgq6vpqKS7e4IkSlVlwyguUZDhJXMGHLojjou2fHCXCNNz4WEkWnELO08ZIOlA9baJAnG7lOKzQOxF3hNtYNuLy4iCFswAqMZIzf/n4g0KoEm0NBklMwtV8yNHKFDDxLa2T9DOT27W3+Pn3agqgqm78exZYrcFHcOygL94FhFRslmTGcY9u9TeXfl0AVo2t51hgpWAEB8BNgDc+O81ulQPl3A//+PsCsLK106BKwQiOZAs14I1vfp1EzZpXv/PRlQKwGhvigRVezTcvj6QAhQiJDRL/wFTgCNXu54Vg1TZCBCu4mm86JIWzrwbtsLzHsp7g2OT+i68LwWqUCFbwERy723RXFlcG8dEMnaVXjvd8+OLSqWMg9Yc/3Z7wzxHBCq7mM6doB/q++mk8bVaLaHb8/f2jIPX+u7eIWuCvb+poh9pItMwTAacHs4dp1vLMFqciufVZ3lLVO39mPHm3rx2eMDoLlt72Xw3BGN80jUNSKbOvl6yHIPXZX9VUCMtuDIJJ+3yolLNhy4sTS/G42JToyPbxQUj9Kq9alQlW+LUSzlBR51XKEwIW0Xheeunq+nf2Yuqd2wwipCLOB6zxXK5nm4kmjwOWy+ONAS8OcZ7x6nLKhJ+8uQN+ff7Yay2VAWIqAB/BmdhMhOaShz4mR9oTdfuhmi8WqVROCl1eKecnrzLfT28VIrGrTLAy8CM4O2TZn3GHvOvRQNTrDbkTTrghYIzGYat8G5HzO5j64PNiWgVcNsB4NZ/yiNO0jE1tXf9kG1NXflbk3chLRa7WNmLVBCmiAo45R7Yfcph674sSSjlcWXAL71CrKHhK56Yd2f6bxdQvPyyxYU6VBVWQdnzwWHabX1b1v38J8dvflVwhJPPVxI/ggKkUTwkhKUFqsWQR1o/KamhwZcFKJu1LPCUE0V2zDAAADiBJREFUOWqQDYu4UjYHoFo7W6mknYdMyNqPEzQs4l0TtxWulTCT8Eq77HhJo76T9/L8qSyobptp6weTVLCqLNKu05j6QMiTGPqzdNsifm62mU5VunIoqrRL6MYEWFQIroA8pVoOU1lQ/WD+7sKVBSuCtPN0Y9IrEgeAwts82yL+Y/6fYnOXduDXSpikUjR3Z7kHu3fn0mER/5byz0WiXDsWtty0WZDnZE/JnQKff3W0WMQZSRrdTS6NKHIYoTqqUmnJQujw6x+WBVVaWveMrIFjeGbYIMXT4EtKnlL07Rm+yoLKmJV4ApI1cBTsgishMiwNvjXppDO49++eA5URlfivs20zxrvHFN3ZYqEH8lfLR/Zf1LZBJRVV0k0vqqLfHKcpdMoXC8WjB/7eO6Ay5uQmWLbFaLpLVzSOLcZcQv4JfIjx7ILKSMp+6zGubcY6S1eRZQdL3pN/Ic7kSeqvQGVMSbfsWVrnIu2rekpXfhbzO8R6nEReAv0aVIYjIL3HHw9ykfYp9VmQxUfYMZsAfC9H/DjLnnW3aYAiiazfvDaXUAmpMEk7xoUoBB99BFv27VCeAzgVsJF2dVkwOMmS9zbVZvX9oDJSIcQbn5l1cGVBnwJIsZSlIG5siWOzuuXgtvcFiF2Pk2tgEH8XJIFUCmLqVagzcAhUhpGE0A420r6I9LoKc0BqEmFsay+c1fOAyjA8mO+Yx3Fpt0sPmkMNc8yuQ9rp9mJ0O3lBlX0gzCWJjLRDtvFx3PgwZpa+4ljMEaCCwYqs0u7Y8FfjKbUAOYSXilXVHwmqLLcCsY4lLnnMorwsIcE5W0reyyCu8P7ixXJnjwYVbgGtnYu0b8nRq3H4vrowO5tLskk+FlTAkg6XPCYdMl0ejFDcQjCixFJP4AKgkuArc2SNIcSkaTfXyLCHKVZkY/Ker+QaY0FQ5eYzUTuHYkzWfI7ZmbJJYhXnvXJU9UWAysCoJrZjnsqOIV2G3ijuXmT4MtIYMf5MWSKL4kAFVI1kMwcTafe4S/njbIZnKdpPHohgumxVfbGgQrriR6h24Kx53MV9P063h+K5XZjRDl/57driQZWrXKGyYJxrENWxtZ45vpjiCy+TPDEo7/nNSKBLAhVSNZLg8lAzHKvLbn8+ZM1nQnM0RBCT98wuMSkRVEjVCJuHWu7HphfnoiF3OJOJzYTdK97l2S2inngKk/c2TTdoSwaVAdROvuQi7dxh3kU4f30kav6zKQdUyAkCZ9T1Fi9FBGhAVo4bRnmgQk4QbJIZHxOGA5P3pFlOlwsqA2kB5edagsOW9zC7UCVSWhOgyjLFddRaYx/ZCA5PJDGeplJH6UyBKtcwQ7mX22c8b4+rw6QDc/WW7NRjElQGSF2/26hNvcURvkgof4mJeVAB1TETcTKfdq15Lwj5eBHO2zJAte1ePoEi7ctvawy5kjPmsj0DKQzKAVXuTgJr4EyHJk84pFLrkLIgzPpXGqiyPx039hvbOMGkHVS6cUZh8ycSQZXL+7A9oWwOtcry3iwm70GNpOWCKndSo9zL7SewMejCvM04uGkhG1Q50g5zL4+cLNIOmpDDH/ryQZWNhRWUe3ncvXVSIAUaN1Gx+xMCKqh7eeIkNAbXMIsLFe1nBIHKAGqPyUZwAAGSCCt7bzhQIVVXVU3aQVIphdIPJKjMDGgWJu3RqmwMglrGL8Mq+11YUBnIfvNm9ZF20NnuU7xh8DEaVLC5NMYRHMrSuXrX8R48qHI0IYgi7b6qIe0YZZqWpWbDSkCFJO1VMYIjc+H63l68nt1dFxSBCikSzZL2yq60w6aM9byWIaEMVGDSXrkjOKASgrYDvLdDKajAlfZKJO3SnWxfadD0Uc1rQjGo3pL2/VQKo0KI6PS+HBYaQJUl7TB5TGWR9oXQJuIlZLSOIfVb9YAKW2kPVEilfREywBfXPDDZWpfDlGjQ9Zni5DH8mnaQd04koPcaXNu1fU4J8UQboTix8hiQPDaje/z2+8tiN+5rfIoTqWnHLFqK6zcKGO14hSlh7anCj3aCbq3E6+8IUpVy6meS16/WiTdhq9f7NDCbdrYFztnAzMYw2E40PBL7YkB7QniBG0Qlco9xQOwBKDZnnOurEQeiSz91hQ2i2jMkpSuMvYaTQqv4jU0cjnGCB8NtYWd48WlIoXOG4oM5+6lV5IuBeoKHc0VR7jG6RaKrQQA731yhqMf1Dl4UR8TYYwrW4QmjjiuNG1Eh07VLHHKf6/3N4uho6iap4sDcY5x6SlcQGcIMydLgdps4NqwDN0kuSRswy0flqivIhc/OMvExNCYKRjPJYYXbs5tr4Ki80waWENcOkl7ByCNRVFy+wQKrVABVY1C2F9yFsCqLzZJ0NdvHRLFR09VCUyuEqfnsKmQMawBuGGcRTdd2XxClRGPrORpY4UZw0B98Kir/yedZzJrP9dtEqdFxr5answFT8yGX4Dii8k8pP4sEv3e4WZQTF7p5YIUzu0INB6wtSz+l7DTW3w8Hm0S5QQUrmJoPYVvhkH/j47FOuvFtjTATtic83Aqo5kvIrSKuyedSPNufRu/WCbPR+WUvEaxgaj6J80zyhQharBDyX/ja24SUaBp8SAQrmJpvfl0KZ19YkS1E0GSFkCfqW21CWtRca2CC1QJmxauMv578VjiPF/PDwUYhNayXh5hghVLzmbtfpeT7vmZoNtM1XKsR8sPWX8+EK5Sar2yTlEW37LwX51FBj1y2Ckw0DlqYYDUVxWxEnXaXflwteKU/i5PGzvTHZxcEMGoGRplg5UCR9oi3lL5gOio/GcdmWV7ymb5mgY62bqbKFU7N5/cWdV45kl75iCLaaNHw7SmhIjqvfkd1XM0lMLCa8AWXjz2wHKvRMKB55OMZqx6CUanDceraHSZYAUdwJuYz3o3JwzewqeRyKIFxEaYpndf324TSsLZ1X2eClQtE2ne7g85EMOSNLudi3evO+FFWNRM0pXPDIrsqVZFZELfAWVUQlRC+GqgReoItC6Zhaj4VsURTQrje3SY0hrXtHtVdEEfa0ZGg2Q99c7hT6I7mPqp2M5K04zgbjfrOaPjbRcEQZBVRWKUdFdM8dsoqSwgF4x/PqPqCDpzZlXyVfIDF+L231Sa4orHrMdVxlX4RrwRIxWjMuR93NQm+qLs7QgUrnNmVNCrF043p+bROkIattYUKV6tu4uOKR9D545OngjlOP2jgOq68S5yQWqJZ+fWwr1Gwh/V+O1UDB7gLrhoafPpK5yU3cLhKV7hdcBXe4Dt375GonGArXbkCERZE8aw3+e5qs6iweMolaTdwlo+lFTpZtFJ3rp0SFRhN4zeoYJUO+TRDiqbQWdt+3yoqNOouD9UywUpv6YqGnd8c7hAVHR3DN6mOq6SufnOCpXbO0jI2qbr6iqvf7NWQBTMkMoTaocrNewdi7AlXv1lxFrQHSdoxLV92iCqKxq7nXA2coLIsaHeTiIRvPDgtqizYSLuiLBhfIenwUUmlqpe0K8iC9hAHpPikUlVM2hehFVG7mwNSN8ZPi+oOMtKehvUFWSA1crdOVH80dlFV2l0BZ/XS86rOe9Sk3bEhe7DrJQekno83iZMUHcNU883JcPXR829ORN6jlsdMyurf/L+9M2hNI4qisEmtWomL0JCgElcFDShUFxOM0Ai6VQYUgxuFBANtQoUsmnbvRmKDkCYNBrpJEWpJ6KI/sKWFlLSxOvpm3pn3zvcLBC9zz9x77pnPEEaEYGbdoydY9hghmr13iWATfpdY9ugLlj3mdN5QfYzcVx373n0CSSRP+9c5whjOIEJb9O1794kbfiRxNZglfap7dY5gwPMmQqynO9GeAiqr0c33W4uHxpcQMUDAJ6FyWM9AfQNn+GHal8Hb6yHEBCF48IpV9K9oxzpEHd30J8v2Xv8cI6pMTpqiK0R7DStPu3My7I+97epeDD6iHK6z7/2X1bS3g8Xoy3BwdXH2pxt2e9f9ByOLJYEehQCxGCzvdxA5/Xbyk0/vR1g/i31vStDSY3AplBdYLtMSOyyxYiax8rLCSrEm2sGCj+Gop1dZJdYJ5VqsnXF9b5N9b1bRbmKd4KD0PVdFAAGCdjcvH7/Bvjc3i9kCK+mOUpZ9TwwVrJx2aWxtRAKsBnGLQbCwKxm0Ab4ao5poT0a1Fu1LhzEWgQ1gufmcRKEIIDyw3HxOoVgEECBYbj4HUDACCFG0g31WwlbyJq1SDi0Ga1EtFoM8jXEWtC+i2oBX65NQSaK9rLRoL9AiLEm0hxUV7StVWqXk4VNRtL/myli2aI+AneDMvzJe5L+KINq9HJ0T0aCe4FhEozRFd+D+E5wnHCHgETtys2jnCIGiXbT7jq5zinahFOm+wxft7pq0b+/QfcdJu1BSdCFw0i54G3PMv8pVor2GlFBLKaUK0J72FqWUSwH7rASnUopwjHeI+iga4f/ickIJqPSYYJi3MUqMrsw8Skn504xTVIanuwj75u0jeqWUQv6+eY/qXMnRlcQ4BtrvVEVWhtpWlRd8KndBCcHHfOFTvwtGNhxd4Ky94HGMDsSd64LFNE3C7IJiT/hyjGzhu6DYp1SOS2P93gVtnYi2+ZTSE1/jrV3ynFpKXx6bdlja1wyu+PSmKXrE0OZTiniehQWaruq8NCa/CBltGhGI8MlVQ8AZKi+uyF+afXNvvhUfc1/JQ5p99u+hlnYopcgYcZWYxctXDFfoliLjCTTD1tbNz6smP8JHJqqrZGbamHb/gckFH5myrprpwqSZaDCVq/Btj1hiOWnkx3XCVjQRYdMjsymseLKxGy202r8fW2/qS/tVI9ukAYGIqK6FmC/GZkeIRH4Aq2RQGIWzs8IAAAAASUVORK5CYII=;" parent="Jn26WBhDu1piC7xwgi1e-1" vertex="1">
          <mxGeometry x="20" width="100" height="85.9" as="geometry" />
        </mxCell>
        <mxCell id="Jn26WBhDu1piC7xwgi1e-3" value="&lt;font style=&quot;font-size: 18px;&quot;&gt;Redis Sessions&lt;/font&gt;" style="text;html=1;align=center;verticalAlign=middle;whiteSpace=wrap;rounded=0;fontSize=18;" parent="Jn26WBhDu1piC7xwgi1e-1" vertex="1">
          <mxGeometry y="85.89999999999998" width="140" height="30" as="geometry" />
        </mxCell>
      </root>
    </mxGraphModel>
  </diagram>
  <diagram id="ZXEDdeoMdRvU_DJ2KvOW" name="manage-product">
    <mxGraphModel dx="1418" dy="828" grid="1" gridSize="10" guides="1" tooltips="1" connect="1" arrows="1" fold="1" page="1" pageScale="1" pageWidth="850" pageHeight="1100" math="0" shadow="0">
      <root>
        <mxCell id="0" />
        <mxCell id="1" parent="0" />
        <object placeholders="1" c4Name="Chef" c4Type="Person" c4Description="Responsible for CRUD-ing orders." label="&lt;font style=&quot;font-size: 16px&quot;&gt;&lt;b&gt;%c4Name%&lt;/b&gt;&lt;/font&gt;&lt;div&gt;[%c4Type%]&lt;/div&gt;&lt;br&gt;&lt;div&gt;&lt;font style=&quot;font-size: 11px&quot;&gt;&lt;font color=&quot;#cccccc&quot;&gt;%c4Description%&lt;/font&gt;&lt;/div&gt;" id="1SpXLOVBmO9OT0gcV-nt-1">
          <mxCell style="html=1;fontSize=11;dashed=0;whiteSpace=wrap;fillColor=#083F75;strokeColor=#06315C;fontColor=#ffffff;shape=mxgraph.c4.person2;align=center;metaEdit=1;points=[[0.5,0,0],[1,0.5,0],[1,0.75,0],[0.75,1,0],[0.5,1,0],[0.25,1,0],[0,0.75,0],[0,0.5,0]];resizable=0;rounded=1;" parent="1" vertex="1">
            <mxGeometry x="10" y="190" width="200" height="180" as="geometry" />
          </mxCell>
        </object>
        <object placeholders="1" c4Name="Frontend" c4Type="Container" c4Technology="React, TypeScript" c4Description="Web interface utilizing NexusMeals backend functionalities" label="&lt;font style=&quot;font-size: 16px&quot;&gt;&lt;b&gt;%c4Name%&lt;/b&gt;&lt;/font&gt;&lt;div&gt;[%c4Type%: %c4Technology%]&lt;/div&gt;&lt;br&gt;&lt;div&gt;&lt;font style=&quot;font-size: 11px&quot;&gt;&lt;font color=&quot;#E6E6E6&quot;&gt;%c4Description%&lt;/font&gt;&lt;/div&gt;" id="HoEG8NnRRy3x6OMkLReZ-1">
          <mxCell style="rounded=1;whiteSpace=wrap;html=1;fontSize=11;labelBackgroundColor=none;fillColor=#23A2D9;fontColor=#ffffff;align=center;arcSize=10;strokeColor=#0E7DAD;metaEdit=1;resizable=0;points=[[0.25,0,0],[0.5,0,0],[0.75,0,0],[1,0.25,0],[1,0.5,0],[1,0.75,0],[0.75,1,0],[0.5,1,0],[0.25,1,0],[0,0.75,0],[0,0.5,0],[0,0.25,0]];" parent="1" vertex="1">
            <mxGeometry x="300" y="250" width="240" height="120" as="geometry" />
          </mxCell>
        </object>
        <object placeholders="1" c4Name="API Gateway" c4Type="Container" c4Technology="NestJS" c4Description="Receives requests and routes them to microservices." label="&lt;font style=&quot;font-size: 16px&quot;&gt;&lt;b&gt;%c4Name%&lt;/b&gt;&lt;/font&gt;&lt;div&gt;[%c4Type%: %c4Technology%]&lt;/div&gt;&lt;br&gt;&lt;div&gt;&lt;font style=&quot;font-size: 11px&quot;&gt;&lt;font color=&quot;#E6E6E6&quot;&gt;%c4Description%&lt;/font&gt;&lt;/div&gt;" id="GV5NTBCFTNcXPKEubXq4-1">
          <mxCell style="rounded=1;whiteSpace=wrap;html=1;fontSize=11;labelBackgroundColor=none;fillColor=#23A2D9;fontColor=#ffffff;align=center;arcSize=10;strokeColor=#0E7DAD;metaEdit=1;resizable=0;points=[[0.25,0,0],[0.5,0,0],[0.75,0,0],[1,0.25,0],[1,0.5,0],[1,0.75,0],[0.75,1,0],[0.5,1,0],[0.25,1,0],[0,0.75,0],[0,0.5,0],[0,0.25,0]];" parent="1" vertex="1">
            <mxGeometry x="600" y="250" width="240" height="120" as="geometry" />
          </mxCell>
        </object>
        <mxCell id="KNKauYkVU9GJWXXC8kxU-1" value="" style="group" parent="1" vertex="1" connectable="0">
          <mxGeometry x="600" y="490" width="240" height="340" as="geometry" />
        </mxCell>
        <object placeholders="1" c4Type="Inventory" c4Container="Container" c4Technology="NestJS" c4Description="Handles operations for products, including price and stock." label="&lt;font style=&quot;font-size: 16px&quot;&gt;&lt;b&gt;%c4Type%&lt;/b&gt;&lt;/font&gt;&lt;div&gt;[%c4Container%:&amp;nbsp;%c4Technology%]&lt;/div&gt;&lt;br&gt;&lt;div&gt;&lt;font style=&quot;font-size: 11px&quot;&gt;&lt;font color=&quot;#E6E6E6&quot;&gt;%c4Description%&lt;/font&gt;&lt;/div&gt;" id="KNKauYkVU9GJWXXC8kxU-2">
          <mxCell style="shape=hexagon;size=50;perimeter=hexagonPerimeter2;whiteSpace=wrap;html=1;fixedSize=1;rounded=1;labelBackgroundColor=none;fillColor=#23A2D9;fontSize=12;fontColor=#ffffff;align=center;strokeColor=#0E7DAD;metaEdit=1;points=[[0.5,0,0],[1,0.25,0],[1,0.5,0],[1,0.75,0],[0.5,1,0],[0,0.75,0],[0,0.5,0],[0,0.25,0]];resizable=0;container=0;" parent="KNKauYkVU9GJWXXC8kxU-1" vertex="1">
            <mxGeometry x="20" width="200" height="170" as="geometry" />
          </mxCell>
        </object>
        <object placeholders="1" c4Type="InventoryDB" c4Container="Container" c4Technology="MySQL" c4Description="Stores data about products." label="&lt;font style=&quot;font-size: 16px&quot;&gt;&lt;b&gt;%c4Type%&lt;/b&gt;&lt;/font&gt;&lt;div&gt;[%c4Container%:&amp;nbsp;%c4Technology%]&lt;/div&gt;&lt;br&gt;&lt;div&gt;&lt;font style=&quot;font-size: 11px&quot;&gt;&lt;font color=&quot;#E6E6E6&quot;&gt;%c4Description%&lt;/font&gt;&lt;/div&gt;" id="KNKauYkVU9GJWXXC8kxU-3">
          <mxCell style="shape=cylinder3;size=15;whiteSpace=wrap;html=1;boundedLbl=1;rounded=0;labelBackgroundColor=none;fillColor=#23A2D9;fontSize=12;fontColor=#ffffff;align=center;strokeColor=#0E7DAD;metaEdit=1;points=[[0.5,0,0],[1,0.25,0],[1,0.5,0],[1,0.75,0],[0.5,1,0],[0,0.75,0],[0,0.5,0],[0,0.25,0]];resizable=0;container=0;" parent="KNKauYkVU9GJWXXC8kxU-1" vertex="1">
            <mxGeometry y="220" width="240" height="120" as="geometry" />
          </mxCell>
        </object>
        <mxCell id="KNKauYkVU9GJWXXC8kxU-4" value="" style="edgeStyle=orthogonalEdgeStyle;rounded=0;orthogonalLoop=1;jettySize=auto;html=1;exitX=0.5;exitY=1;exitDx=0;exitDy=0;exitPerimeter=0;entryX=0.5;entryY=0;entryDx=0;entryDy=0;entryPerimeter=0;endArrow=none;endFill=0;" parent="KNKauYkVU9GJWXXC8kxU-1" source="KNKauYkVU9GJWXXC8kxU-2" target="KNKauYkVU9GJWXXC8kxU-3" edge="1">
          <mxGeometry relative="1" as="geometry" />
        </mxCell>
        <mxCell id="XrtNEGSSge5w6MQ4LODC-2" value="(1) CUD product&lt;br&gt;[ProductInput]" style="text;html=1;strokeColor=none;fillColor=#E6E6E6;align=center;verticalAlign=middle;whiteSpace=wrap;rounded=0;fontColor=#009900;fontStyle=1" parent="1" vertex="1">
          <mxGeometry x="500" y="220" width="120" height="30" as="geometry" />
        </mxCell>
        <mxCell id="XrtNEGSSge5w6MQ4LODC-4" style="edgeStyle=orthogonalEdgeStyle;rounded=0;orthogonalLoop=1;jettySize=auto;html=1;exitX=0;exitY=0.5;exitDx=0;exitDy=0;exitPerimeter=0;entryX=0.985;entryY=0.667;entryDx=0;entryDy=0;entryPerimeter=0;startArrow=classic;startFill=1;endArrow=none;endFill=0;" parent="1" source="HoEG8NnRRy3x6OMkLReZ-1" target="1SpXLOVBmO9OT0gcV-nt-1" edge="1">
          <mxGeometry relative="1" as="geometry" />
        </mxCell>
        <mxCell id="XrtNEGSSge5w6MQ4LODC-5" style="edgeStyle=orthogonalEdgeStyle;rounded=0;orthogonalLoop=1;jettySize=auto;html=1;exitX=1;exitY=0.5;exitDx=0;exitDy=0;exitPerimeter=0;entryX=0;entryY=0.5;entryDx=0;entryDy=0;entryPerimeter=0;" parent="1" source="HoEG8NnRRy3x6OMkLReZ-1" target="GV5NTBCFTNcXPKEubXq4-1" edge="1">
          <mxGeometry relative="1" as="geometry" />
        </mxCell>
        <mxCell id="cogyu6Q3D0ifjXmU8qWM-1" value="https" style="edgeLabel;html=1;align=center;verticalAlign=middle;resizable=0;points=[];" parent="XrtNEGSSge5w6MQ4LODC-5" vertex="1" connectable="0">
          <mxGeometry x="-0.0667" y="-4" relative="1" as="geometry">
            <mxPoint as="offset" />
          </mxGeometry>
        </mxCell>
        <mxCell id="XrtNEGSSge5w6MQ4LODC-7" style="edgeStyle=orthogonalEdgeStyle;rounded=0;orthogonalLoop=1;jettySize=auto;html=1;exitX=0.5;exitY=1;exitDx=0;exitDy=0;exitPerimeter=0;entryX=0.5;entryY=0;entryDx=0;entryDy=0;entryPerimeter=0;" parent="1" source="GV5NTBCFTNcXPKEubXq4-1" target="KNKauYkVU9GJWXXC8kxU-2" edge="1">
          <mxGeometry relative="1" as="geometry" />
        </mxCell>
        <mxCell id="cogyu6Q3D0ifjXmU8qWM-2" value="tcp" style="edgeLabel;html=1;align=center;verticalAlign=middle;resizable=0;points=[];" parent="XrtNEGSSge5w6MQ4LODC-7" vertex="1" connectable="0">
          <mxGeometry x="-0.0333" y="4" relative="1" as="geometry">
            <mxPoint as="offset" />
          </mxGeometry>
        </mxCell>
        <mxCell id="XrtNEGSSge5w6MQ4LODC-8" value="(3) CUD product&lt;br&gt;[ProductInput]&lt;div&gt;&lt;br&gt;&lt;div&gt;(5) return: ProductDTO&lt;/div&gt;&lt;/div&gt;" style="text;html=1;strokeColor=none;fillColor=#E6E6E6;align=center;verticalAlign=middle;whiteSpace=wrap;rounded=0;fontColor=#009900;fontStyle=1" parent="1" vertex="1">
          <mxGeometry x="560" y="410" width="140" height="60" as="geometry" />
        </mxCell>
        <mxCell id="9J2H6oIzEK35RlL1boBz-1" value="" style="group" parent="1" vertex="1" connectable="0">
          <mxGeometry x="119.99999999999994" y="490" width="240" height="340" as="geometry" />
        </mxCell>
        <object placeholders="1" c4Type="User" c4Container="Container" c4Technology="NestJS" c4Description="Handles user data." label="&lt;font style=&quot;font-size: 16px&quot;&gt;&lt;b&gt;%c4Type%&lt;/b&gt;&lt;/font&gt;&lt;div&gt;[%c4Container%:&amp;nbsp;%c4Technology%]&lt;/div&gt;&lt;br&gt;&lt;div&gt;&lt;font style=&quot;font-size: 11px&quot;&gt;&lt;font color=&quot;#E6E6E6&quot;&gt;%c4Description%&lt;/font&gt;&lt;/div&gt;" id="9J2H6oIzEK35RlL1boBz-2">
          <mxCell style="shape=hexagon;size=50;perimeter=hexagonPerimeter2;whiteSpace=wrap;html=1;fixedSize=1;rounded=1;labelBackgroundColor=none;fillColor=#23A2D9;fontSize=12;fontColor=#ffffff;align=center;strokeColor=#0E7DAD;metaEdit=1;points=[[0.5,0,0],[1,0.25,0],[1,0.5,0],[1,0.75,0],[0.5,1,0],[0,0.75,0],[0,0.5,0],[0,0.25,0]];resizable=0;" parent="9J2H6oIzEK35RlL1boBz-1" vertex="1">
            <mxGeometry x="20" width="200" height="170" as="geometry" />
          </mxCell>
        </object>
        <object placeholders="1" c4Type="UserDB" c4Container="Container" c4Technology="MySQL" c4Description="Stores authentication credentials, and roles of users." label="&lt;font style=&quot;font-size: 16px&quot;&gt;&lt;b&gt;%c4Type%&lt;/b&gt;&lt;/font&gt;&lt;div&gt;[%c4Container%:&amp;nbsp;%c4Technology%]&lt;/div&gt;&lt;br&gt;&lt;div&gt;&lt;font style=&quot;font-size: 11px&quot;&gt;&lt;font color=&quot;#E6E6E6&quot;&gt;%c4Description%&lt;/font&gt;&lt;/div&gt;" id="9J2H6oIzEK35RlL1boBz-3">
          <mxCell style="shape=cylinder3;size=15;whiteSpace=wrap;html=1;boundedLbl=1;rounded=0;labelBackgroundColor=none;fillColor=#23A2D9;fontSize=12;fontColor=#ffffff;align=center;strokeColor=#0E7DAD;metaEdit=1;points=[[0.5,0,0],[1,0.25,0],[1,0.5,0],[1,0.75,0],[0.5,1,0],[0,0.75,0],[0,0.5,0],[0,0.25,0]];resizable=0;" parent="9J2H6oIzEK35RlL1boBz-1" vertex="1">
            <mxGeometry y="220" width="240" height="120" as="geometry" />
          </mxCell>
        </object>
        <mxCell id="9J2H6oIzEK35RlL1boBz-4" value="" style="edgeStyle=orthogonalEdgeStyle;rounded=0;orthogonalLoop=1;jettySize=auto;html=1;exitX=0.5;exitY=1;exitDx=0;exitDy=0;exitPerimeter=0;endArrow=none;endFill=0;entryX=0.5;entryY=0;entryDx=0;entryDy=0;entryPerimeter=0;" parent="9J2H6oIzEK35RlL1boBz-1" source="9J2H6oIzEK35RlL1boBz-2" target="9J2H6oIzEK35RlL1boBz-3" edge="1">
          <mxGeometry relative="1" as="geometry">
            <mxPoint x="155" y="200" as="targetPoint" />
            <Array as="points">
              <mxPoint x="120" y="210" />
              <mxPoint x="120" y="210" />
            </Array>
          </mxGeometry>
        </mxCell>
        <mxCell id="9J2H6oIzEK35RlL1boBz-5" style="edgeStyle=orthogonalEdgeStyle;rounded=0;orthogonalLoop=1;jettySize=auto;html=1;exitX=0;exitY=0.5;exitDx=0;exitDy=0;exitPerimeter=0;entryX=1;entryY=0.5;entryDx=0;entryDy=0;entryPerimeter=0;" parent="1" source="KNKauYkVU9GJWXXC8kxU-2" target="9J2H6oIzEK35RlL1boBz-2" edge="1">
          <mxGeometry relative="1" as="geometry" />
        </mxCell>
        <mxCell id="9J2H6oIzEK35RlL1boBz-7" value="amqp-pub" style="edgeLabel;html=1;align=center;verticalAlign=middle;resizable=0;points=[];" parent="9J2H6oIzEK35RlL1boBz-5" vertex="1" connectable="0">
          <mxGeometry x="-0.3923" y="-4" relative="1" as="geometry">
            <mxPoint as="offset" />
          </mxGeometry>
        </mxCell>
        <mxCell id="9J2H6oIzEK35RlL1boBz-6" value="(2) validate accessToken" style="text;html=1;strokeColor=none;fillColor=#E6E6E6;align=center;verticalAlign=middle;whiteSpace=wrap;rounded=0;fontColor=#009900;fontStyle=1" parent="1" vertex="1">
          <mxGeometry x="600" y="330" width="150" height="40" as="geometry" />
        </mxCell>
        <mxCell id="XrtNEGSSge5w6MQ4LODC-6" value="(4) duplicate category&lt;div&gt;overview&lt;/div&gt;" style="text;html=1;strokeColor=none;fillColor=#E6E6E6;align=center;verticalAlign=middle;whiteSpace=wrap;rounded=0;fontColor=#009900;fontStyle=1" parent="1" vertex="1">
          <mxGeometry x="360" y="560" width="150" height="40" as="geometry" />
        </mxCell>
      </root>
    </mxGraphModel>
  </diagram>
  <diagram id="5sKxFmpRyzqdboi_lJrl" name="view-chefs">
    <mxGraphModel dx="1418" dy="828" grid="1" gridSize="10" guides="1" tooltips="1" connect="1" arrows="1" fold="1" page="1" pageScale="1" pageWidth="850" pageHeight="1100" math="0" shadow="0">
      <root>
        <mxCell id="0" />
        <mxCell id="1" parent="0" />
        <object placeholders="1" c4Name="Frontend" c4Type="Container" c4Technology="React, TypeScript" c4Description="Web interface utilizing NexusMeals backend functionalities" label="&lt;font style=&quot;font-size: 16px&quot;&gt;&lt;b&gt;%c4Name%&lt;/b&gt;&lt;/font&gt;&lt;div&gt;[%c4Type%: %c4Technology%]&lt;/div&gt;&lt;br&gt;&lt;div&gt;&lt;font style=&quot;font-size: 11px&quot;&gt;&lt;font color=&quot;#E6E6E6&quot;&gt;%c4Description%&lt;/font&gt;&lt;/div&gt;" id="W7yrQmO0KJ1eyZW0DqSP-2">
          <mxCell style="rounded=1;whiteSpace=wrap;html=1;fontSize=11;labelBackgroundColor=none;fillColor=#23A2D9;fontColor=#ffffff;align=center;arcSize=10;strokeColor=#0E7DAD;metaEdit=1;resizable=0;points=[[0.25,0,0],[0.5,0,0],[0.75,0,0],[1,0.25,0],[1,0.5,0],[1,0.75,0],[0.75,1,0],[0.5,1,0],[0.25,1,0],[0,0.75,0],[0,0.5,0],[0,0.25,0]];" parent="1" vertex="1">
            <mxGeometry x="300" y="250" width="240" height="120" as="geometry" />
          </mxCell>
        </object>
        <object placeholders="1" c4Name="API Gateway" c4Type="Container" c4Technology="NestJS" c4Description="Receives requests and routes them to microservices." label="&lt;font style=&quot;font-size: 16px&quot;&gt;&lt;b&gt;%c4Name%&lt;/b&gt;&lt;/font&gt;&lt;div&gt;[%c4Type%: %c4Technology%]&lt;/div&gt;&lt;br&gt;&lt;div&gt;&lt;font style=&quot;font-size: 11px&quot;&gt;&lt;font color=&quot;#E6E6E6&quot;&gt;%c4Description%&lt;/font&gt;&lt;/div&gt;" id="W7yrQmO0KJ1eyZW0DqSP-3">
          <mxCell style="rounded=1;whiteSpace=wrap;html=1;fontSize=11;labelBackgroundColor=none;fillColor=#23A2D9;fontColor=#ffffff;align=center;arcSize=10;strokeColor=#0E7DAD;metaEdit=1;resizable=0;points=[[0.25,0,0],[0.5,0,0],[0.75,0,0],[1,0.25,0],[1,0.5,0],[1,0.75,0],[0.75,1,0],[0.5,1,0],[0.25,1,0],[0,0.75,0],[0,0.5,0],[0,0.25,0]];" parent="1" vertex="1">
            <mxGeometry x="600" y="250" width="240" height="120" as="geometry" />
          </mxCell>
        </object>
        <mxCell id="W7yrQmO0KJ1eyZW0DqSP-10" style="edgeStyle=orthogonalEdgeStyle;rounded=0;orthogonalLoop=1;jettySize=auto;html=1;exitX=-0.005;exitY=0.607;exitDx=0;exitDy=0;exitPerimeter=0;entryX=1;entryY=0.683;entryDx=0;entryDy=0;entryPerimeter=0;startArrow=classic;startFill=1;endArrow=none;endFill=0;" parent="1" source="W7yrQmO0KJ1eyZW0DqSP-2" target="3u98HUcUFullduLvZel3-1" edge="1">
          <mxGeometry relative="1" as="geometry">
            <mxPoint x="207" y="310.05999999999995" as="targetPoint" />
          </mxGeometry>
        </mxCell>
        <mxCell id="W7yrQmO0KJ1eyZW0DqSP-11" style="edgeStyle=orthogonalEdgeStyle;rounded=0;orthogonalLoop=1;jettySize=auto;html=1;exitX=1;exitY=0.5;exitDx=0;exitDy=0;exitPerimeter=0;entryX=0;entryY=0.5;entryDx=0;entryDy=0;entryPerimeter=0;" parent="1" source="W7yrQmO0KJ1eyZW0DqSP-2" target="W7yrQmO0KJ1eyZW0DqSP-3" edge="1">
          <mxGeometry relative="1" as="geometry" />
        </mxCell>
        <mxCell id="W7yrQmO0KJ1eyZW0DqSP-12" value="https" style="edgeLabel;html=1;align=center;verticalAlign=middle;resizable=0;points=[];" parent="W7yrQmO0KJ1eyZW0DqSP-11" vertex="1" connectable="0">
          <mxGeometry x="-0.0667" y="-4" relative="1" as="geometry">
            <mxPoint as="offset" />
          </mxGeometry>
        </mxCell>
        <mxCell id="W7yrQmO0KJ1eyZW0DqSP-14" style="edgeStyle=orthogonalEdgeStyle;rounded=0;orthogonalLoop=1;jettySize=auto;html=1;exitX=0.5;exitY=1;exitDx=0;exitDy=0;exitPerimeter=0;entryX=0.5;entryY=0;entryDx=0;entryDy=0;entryPerimeter=0;" parent="1" source="W7yrQmO0KJ1eyZW0DqSP-3" target="PCZM7916RNEkwE9r6JTB-2" edge="1">
          <mxGeometry relative="1" as="geometry">
            <mxPoint x="720" y="490" as="targetPoint" />
          </mxGeometry>
        </mxCell>
        <mxCell id="W7yrQmO0KJ1eyZW0DqSP-15" value="tcp" style="edgeLabel;html=1;align=center;verticalAlign=middle;resizable=0;points=[];" parent="W7yrQmO0KJ1eyZW0DqSP-14" vertex="1" connectable="0">
          <mxGeometry x="-0.0333" y="4" relative="1" as="geometry">
            <mxPoint as="offset" />
          </mxGeometry>
        </mxCell>
        <mxCell id="PCZM7916RNEkwE9r6JTB-1" value="" style="group" parent="1" vertex="1" connectable="0">
          <mxGeometry x="600" y="500" width="240" height="340" as="geometry" />
        </mxCell>
        <object placeholders="1" c4Type="User" c4Container="Container" c4Technology="NestJS" c4Description="Handles user data." label="&lt;font style=&quot;font-size: 16px&quot;&gt;&lt;b&gt;%c4Type%&lt;/b&gt;&lt;/font&gt;&lt;div&gt;[%c4Container%:&amp;nbsp;%c4Technology%]&lt;/div&gt;&lt;br&gt;&lt;div&gt;&lt;font style=&quot;font-size: 11px&quot;&gt;&lt;font color=&quot;#E6E6E6&quot;&gt;%c4Description%&lt;/font&gt;&lt;/div&gt;" id="PCZM7916RNEkwE9r6JTB-2">
          <mxCell style="shape=hexagon;size=50;perimeter=hexagonPerimeter2;whiteSpace=wrap;html=1;fixedSize=1;rounded=1;labelBackgroundColor=none;fillColor=#23A2D9;fontSize=12;fontColor=#ffffff;align=center;strokeColor=#0E7DAD;metaEdit=1;points=[[0.5,0,0],[1,0.25,0],[1,0.5,0],[1,0.75,0],[0.5,1,0],[0,0.75,0],[0,0.5,0],[0,0.25,0]];resizable=0;" parent="PCZM7916RNEkwE9r6JTB-1" vertex="1">
            <mxGeometry x="20" width="200" height="170" as="geometry" />
          </mxCell>
        </object>
        <object placeholders="1" c4Type="UserDB" c4Container="Container" c4Technology="MySQL" c4Description="Stores authentication credentials, and roles of users." label="&lt;font style=&quot;font-size: 16px&quot;&gt;&lt;b&gt;%c4Type%&lt;/b&gt;&lt;/font&gt;&lt;div&gt;[%c4Container%:&amp;nbsp;%c4Technology%]&lt;/div&gt;&lt;br&gt;&lt;div&gt;&lt;font style=&quot;font-size: 11px&quot;&gt;&lt;font color=&quot;#E6E6E6&quot;&gt;%c4Description%&lt;/font&gt;&lt;/div&gt;" id="PCZM7916RNEkwE9r6JTB-3">
          <mxCell style="shape=cylinder3;size=15;whiteSpace=wrap;html=1;boundedLbl=1;rounded=0;labelBackgroundColor=none;fillColor=#23A2D9;fontSize=12;fontColor=#ffffff;align=center;strokeColor=#0E7DAD;metaEdit=1;points=[[0.5,0,0],[1,0.25,0],[1,0.5,0],[1,0.75,0],[0.5,1,0],[0,0.75,0],[0,0.5,0],[0,0.25,0]];resizable=0;" parent="PCZM7916RNEkwE9r6JTB-1" vertex="1">
            <mxGeometry y="220" width="240" height="120" as="geometry" />
          </mxCell>
        </object>
        <mxCell id="PCZM7916RNEkwE9r6JTB-4" value="" style="edgeStyle=orthogonalEdgeStyle;rounded=0;orthogonalLoop=1;jettySize=auto;html=1;exitX=0.5;exitY=1;exitDx=0;exitDy=0;exitPerimeter=0;endArrow=none;endFill=0;entryX=0.5;entryY=0;entryDx=0;entryDy=0;entryPerimeter=0;" parent="PCZM7916RNEkwE9r6JTB-1" source="PCZM7916RNEkwE9r6JTB-2" target="PCZM7916RNEkwE9r6JTB-3" edge="1">
          <mxGeometry relative="1" as="geometry">
            <mxPoint x="155" y="200" as="targetPoint" />
            <Array as="points">
              <mxPoint x="120" y="210" />
              <mxPoint x="120" y="210" />
            </Array>
          </mxGeometry>
        </mxCell>
        <mxCell id="wu51-uU48_aDlJWO6n0D-1" value="(3) getChefs&lt;br style=&quot;border-color: var(--border-color);&quot;&gt;[DeliveryAddress]&lt;br&gt;&lt;br&gt;(4) return: ChefDTO[]" style="text;html=1;strokeColor=none;fillColor=#E6E6E6;align=center;verticalAlign=middle;whiteSpace=wrap;rounded=0;fontColor=#009900;fontStyle=1" parent="PCZM7916RNEkwE9r6JTB-1" vertex="1">
          <mxGeometry x="-50" y="-40" width="160" height="60" as="geometry" />
        </mxCell>
        <mxCell id="PCZM7916RNEkwE9r6JTB-5" value="(1) getChefs&lt;br&gt;[DeliveryAddress]" style="text;html=1;strokeColor=none;fillColor=#E6E6E6;align=center;verticalAlign=middle;whiteSpace=wrap;rounded=0;fontColor=#009900;fontStyle=1" parent="1" vertex="1">
          <mxGeometry x="440" y="200" width="260" height="30" as="geometry" />
        </mxCell>
        <mxCell id="PCZM7916RNEkwE9r6JTB-6" value="(2) validate accessToken" style="text;html=1;strokeColor=none;fillColor=#E6E6E6;align=center;verticalAlign=middle;whiteSpace=wrap;rounded=0;fontColor=#009900;fontStyle=1" parent="1" vertex="1">
          <mxGeometry x="580" y="340" width="150" height="40" as="geometry" />
        </mxCell>
        <object placeholders="1" c4Name="Customer" c4Type="Person" c4Description="Responsible for placing orders." label="&lt;font style=&quot;font-size: 16px&quot;&gt;&lt;b&gt;%c4Name%&lt;/b&gt;&lt;/font&gt;&lt;div&gt;[%c4Type%]&lt;/div&gt;&lt;br&gt;&lt;div&gt;&lt;font style=&quot;font-size: 11px&quot;&gt;&lt;font color=&quot;#cccccc&quot;&gt;%c4Description%&lt;/font&gt;&lt;/div&gt;" id="3u98HUcUFullduLvZel3-1">
          <mxCell style="html=1;fontSize=11;dashed=0;whiteSpace=wrap;fillColor=#083F75;strokeColor=#06315C;fontColor=#ffffff;shape=mxgraph.c4.person2;align=center;metaEdit=1;points=[[0.5,0,0],[1,0.5,0],[1,0.75,0],[0.75,1,0],[0.5,1,0],[0.25,1,0],[0,0.75,0],[0,0.5,0]];resizable=0;rounded=1;" parent="1" vertex="1">
            <mxGeometry x="20" y="200" width="200" height="180" as="geometry" />
          </mxCell>
        </object>
      </root>
    </mxGraphModel>
  </diagram>
  <diagram id="Fy8mNLTOB7WgtrmpZcYC" name="view-products-by-chef">
    <mxGraphModel dx="1418" dy="828" grid="1" gridSize="10" guides="1" tooltips="1" connect="1" arrows="1" fold="1" page="1" pageScale="1" pageWidth="850" pageHeight="1100" math="0" shadow="0">
      <root>
        <mxCell id="0" />
        <mxCell id="1" parent="0" />
        <object placeholders="1" c4Name="Frontend" c4Type="Container" c4Technology="React, TypeScript" c4Description="Web interface utilizing NexusMeals backend functionalities" label="&lt;font style=&quot;font-size: 16px&quot;&gt;&lt;b&gt;%c4Name%&lt;/b&gt;&lt;/font&gt;&lt;div&gt;[%c4Type%: %c4Technology%]&lt;/div&gt;&lt;br&gt;&lt;div&gt;&lt;font style=&quot;font-size: 11px&quot;&gt;&lt;font color=&quot;#E6E6E6&quot;&gt;%c4Description%&lt;/font&gt;&lt;/div&gt;" id="5XAJ4tgXe7r13WKmVWIO-2">
          <mxCell style="rounded=1;whiteSpace=wrap;html=1;fontSize=11;labelBackgroundColor=none;fillColor=#23A2D9;fontColor=#ffffff;align=center;arcSize=10;strokeColor=#0E7DAD;metaEdit=1;resizable=0;points=[[0.25,0,0],[0.5,0,0],[0.75,0,0],[1,0.25,0],[1,0.5,0],[1,0.75,0],[0.75,1,0],[0.5,1,0],[0.25,1,0],[0,0.75,0],[0,0.5,0],[0,0.25,0]];" parent="1" vertex="1">
            <mxGeometry x="300" y="250" width="240" height="120" as="geometry" />
          </mxCell>
        </object>
        <object placeholders="1" c4Name="API Gateway" c4Type="Container" c4Technology="NestJS" c4Description="Receives requests and routes them to microservices." label="&lt;font style=&quot;font-size: 16px&quot;&gt;&lt;b&gt;%c4Name%&lt;/b&gt;&lt;/font&gt;&lt;div&gt;[%c4Type%: %c4Technology%]&lt;/div&gt;&lt;br&gt;&lt;div&gt;&lt;font style=&quot;font-size: 11px&quot;&gt;&lt;font color=&quot;#E6E6E6&quot;&gt;%c4Description%&lt;/font&gt;&lt;/div&gt;" id="5XAJ4tgXe7r13WKmVWIO-3">
          <mxCell style="rounded=1;whiteSpace=wrap;html=1;fontSize=11;labelBackgroundColor=none;fillColor=#23A2D9;fontColor=#ffffff;align=center;arcSize=10;strokeColor=#0E7DAD;metaEdit=1;resizable=0;points=[[0.25,0,0],[0.5,0,0],[0.75,0,0],[1,0.25,0],[1,0.5,0],[1,0.75,0],[0.75,1,0],[0.5,1,0],[0.25,1,0],[0,0.75,0],[0,0.5,0],[0,0.25,0]];" parent="1" vertex="1">
            <mxGeometry x="600" y="250" width="240" height="120" as="geometry" />
          </mxCell>
        </object>
        <mxCell id="5XAJ4tgXe7r13WKmVWIO-5" style="edgeStyle=orthogonalEdgeStyle;rounded=0;orthogonalLoop=1;jettySize=auto;html=1;exitX=0;exitY=0.5;exitDx=0;exitDy=0;exitPerimeter=0;entryX=0.985;entryY=0.667;entryDx=0;entryDy=0;entryPerimeter=0;startArrow=classic;startFill=1;endArrow=none;endFill=0;" parent="1" source="5XAJ4tgXe7r13WKmVWIO-2" edge="1">
          <mxGeometry relative="1" as="geometry">
            <mxPoint x="207" y="310.05999999999995" as="targetPoint" />
          </mxGeometry>
        </mxCell>
        <mxCell id="5XAJ4tgXe7r13WKmVWIO-6" style="edgeStyle=orthogonalEdgeStyle;rounded=0;orthogonalLoop=1;jettySize=auto;html=1;exitX=1;exitY=0.5;exitDx=0;exitDy=0;exitPerimeter=0;entryX=0;entryY=0.5;entryDx=0;entryDy=0;entryPerimeter=0;" parent="1" source="5XAJ4tgXe7r13WKmVWIO-2" target="5XAJ4tgXe7r13WKmVWIO-3" edge="1">
          <mxGeometry relative="1" as="geometry" />
        </mxCell>
        <mxCell id="5XAJ4tgXe7r13WKmVWIO-7" value="https" style="edgeLabel;html=1;align=center;verticalAlign=middle;resizable=0;points=[];" parent="5XAJ4tgXe7r13WKmVWIO-6" vertex="1" connectable="0">
          <mxGeometry x="-0.0667" y="-4" relative="1" as="geometry">
            <mxPoint as="offset" />
          </mxGeometry>
        </mxCell>
        <mxCell id="5XAJ4tgXe7r13WKmVWIO-8" style="edgeStyle=orthogonalEdgeStyle;rounded=0;orthogonalLoop=1;jettySize=auto;html=1;exitX=0.5;exitY=1;exitDx=0;exitDy=0;exitPerimeter=0;entryX=0.5;entryY=0;entryDx=0;entryDy=0;entryPerimeter=0;" parent="1" source="5XAJ4tgXe7r13WKmVWIO-3" target="HMLUzvXQdl5WbxL6QWUd-2" edge="1">
          <mxGeometry relative="1" as="geometry">
            <mxPoint x="720" y="500" as="targetPoint" />
          </mxGeometry>
        </mxCell>
        <mxCell id="5XAJ4tgXe7r13WKmVWIO-9" value="tcp" style="edgeLabel;html=1;align=center;verticalAlign=middle;resizable=0;points=[];" parent="5XAJ4tgXe7r13WKmVWIO-8" vertex="1" connectable="0">
          <mxGeometry x="-0.0333" y="4" relative="1" as="geometry">
            <mxPoint as="offset" />
          </mxGeometry>
        </mxCell>
        <mxCell id="5XAJ4tgXe7r13WKmVWIO-17" value="(1) getProducts&lt;br&gt;[chefId]" style="text;html=1;strokeColor=none;fillColor=#E6E6E6;align=center;verticalAlign=middle;whiteSpace=wrap;rounded=0;fontColor=#009900;fontStyle=1" parent="1" vertex="1">
          <mxGeometry x="440" y="200" width="260" height="30" as="geometry" />
        </mxCell>
        <mxCell id="5XAJ4tgXe7r13WKmVWIO-18" value="(2) validate accessToken" style="text;html=1;strokeColor=none;fillColor=#E6E6E6;align=center;verticalAlign=middle;whiteSpace=wrap;rounded=0;fontColor=#009900;fontStyle=1" parent="1" vertex="1">
          <mxGeometry x="580" y="340" width="150" height="40" as="geometry" />
        </mxCell>
        <object placeholders="1" c4Name="Customer" c4Type="Person" c4Description="Responsible for placing orders." label="&lt;font style=&quot;font-size: 16px&quot;&gt;&lt;b&gt;%c4Name%&lt;/b&gt;&lt;/font&gt;&lt;div&gt;[%c4Type%]&lt;/div&gt;&lt;br&gt;&lt;div&gt;&lt;font style=&quot;font-size: 11px&quot;&gt;&lt;font color=&quot;#cccccc&quot;&gt;%c4Description%&lt;/font&gt;&lt;/div&gt;" id="Pzgl4dhic0e9u31KKn8z-1">
          <mxCell style="html=1;fontSize=11;dashed=0;whiteSpace=wrap;fillColor=#083F75;strokeColor=#06315C;fontColor=#ffffff;shape=mxgraph.c4.person2;align=center;metaEdit=1;points=[[0.5,0,0],[1,0.5,0],[1,0.75,0],[0.75,1,0],[0.5,1,0],[0.25,1,0],[0,0.75,0],[0,0.5,0]];resizable=0;rounded=1;" parent="1" vertex="1">
            <mxGeometry x="10" y="200" width="200" height="180" as="geometry" />
          </mxCell>
        </object>
        <mxCell id="HMLUzvXQdl5WbxL6QWUd-1" value="" style="group" parent="1" vertex="1" connectable="0">
          <mxGeometry x="600" y="510" width="240" height="340" as="geometry" />
        </mxCell>
        <object placeholders="1" c4Type="Inventory" c4Container="Container" c4Technology="NestJS" c4Description="Handles operations for products, including price and stock." label="&lt;font style=&quot;font-size: 16px&quot;&gt;&lt;b&gt;%c4Type%&lt;/b&gt;&lt;/font&gt;&lt;div&gt;[%c4Container%:&amp;nbsp;%c4Technology%]&lt;/div&gt;&lt;br&gt;&lt;div&gt;&lt;font style=&quot;font-size: 11px&quot;&gt;&lt;font color=&quot;#E6E6E6&quot;&gt;%c4Description%&lt;/font&gt;&lt;/div&gt;" id="HMLUzvXQdl5WbxL6QWUd-2">
          <mxCell style="shape=hexagon;size=50;perimeter=hexagonPerimeter2;whiteSpace=wrap;html=1;fixedSize=1;rounded=1;labelBackgroundColor=none;fillColor=#23A2D9;fontSize=12;fontColor=#ffffff;align=center;strokeColor=#0E7DAD;metaEdit=1;points=[[0.5,0,0],[1,0.25,0],[1,0.5,0],[1,0.75,0],[0.5,1,0],[0,0.75,0],[0,0.5,0],[0,0.25,0]];resizable=0;container=0;" parent="HMLUzvXQdl5WbxL6QWUd-1" vertex="1">
            <mxGeometry x="20" width="200" height="170" as="geometry" />
          </mxCell>
        </object>
        <object placeholders="1" c4Type="InventoryDB" c4Container="Container" c4Technology="MySQL" c4Description="Stores data about products." label="&lt;font style=&quot;font-size: 16px&quot;&gt;&lt;b&gt;%c4Type%&lt;/b&gt;&lt;/font&gt;&lt;div&gt;[%c4Container%:&amp;nbsp;%c4Technology%]&lt;/div&gt;&lt;br&gt;&lt;div&gt;&lt;font style=&quot;font-size: 11px&quot;&gt;&lt;font color=&quot;#E6E6E6&quot;&gt;%c4Description%&lt;/font&gt;&lt;/div&gt;" id="HMLUzvXQdl5WbxL6QWUd-3">
          <mxCell style="shape=cylinder3;size=15;whiteSpace=wrap;html=1;boundedLbl=1;rounded=0;labelBackgroundColor=none;fillColor=#23A2D9;fontSize=12;fontColor=#ffffff;align=center;strokeColor=#0E7DAD;metaEdit=1;points=[[0.5,0,0],[1,0.25,0],[1,0.5,0],[1,0.75,0],[0.5,1,0],[0,0.75,0],[0,0.5,0],[0,0.25,0]];resizable=0;container=0;" parent="HMLUzvXQdl5WbxL6QWUd-1" vertex="1">
            <mxGeometry y="220" width="240" height="120" as="geometry" />
          </mxCell>
        </object>
        <mxCell id="HMLUzvXQdl5WbxL6QWUd-4" value="" style="edgeStyle=orthogonalEdgeStyle;rounded=0;orthogonalLoop=1;jettySize=auto;html=1;exitX=0.5;exitY=1;exitDx=0;exitDy=0;exitPerimeter=0;entryX=0.5;entryY=0;entryDx=0;entryDy=0;entryPerimeter=0;endArrow=none;endFill=0;" parent="HMLUzvXQdl5WbxL6QWUd-1" source="HMLUzvXQdl5WbxL6QWUd-2" target="HMLUzvXQdl5WbxL6QWUd-3" edge="1">
          <mxGeometry relative="1" as="geometry" />
        </mxCell>
        <mxCell id="VAQhoo5hZuVomIlcuXoN-1" value="(3) getProducts&lt;br style=&quot;border-color: var(--border-color);&quot;&gt;[chefId]&lt;br&gt;&lt;br&gt;(4) return: ProductDTO[]" style="text;html=1;strokeColor=none;fillColor=#E6E6E6;align=center;verticalAlign=middle;whiteSpace=wrap;rounded=0;fontColor=#009900;fontStyle=1" parent="1" vertex="1">
          <mxGeometry x="540" y="480" width="160" height="60" as="geometry" />
        </mxCell>
      </root>
    </mxGraphModel>
  </diagram>
  <diagram id="8Oy6OgsWjBb13kn8p7lJ" name="pay-order">
    <mxGraphModel dx="782" dy="290" grid="0" gridSize="10" guides="1" tooltips="1" connect="1" arrows="1" fold="1" page="0" pageScale="1" pageWidth="850" pageHeight="1100" math="0" shadow="0">
      <root>
        <mxCell id="0" />
        <mxCell id="1" parent="0" />
        <mxCell id="ctCrm-KFBOh4pchtV14Y-3" style="edgeStyle=orthogonalEdgeStyle;rounded=0;orthogonalLoop=1;jettySize=auto;html=1;exitX=0.5;exitY=1;exitDx=0;exitDy=0;exitPerimeter=0;entryX=0.5;entryY=0;entryDx=0;entryDy=0;entryPerimeter=0;" parent="1" source="ctCrm-KFBOh4pchtV14Y-5" target="Y0YzausENRD2mUoMiJNV-2" edge="1">
          <mxGeometry relative="1" as="geometry">
            <mxPoint x="1275" y="1310" as="targetPoint" />
          </mxGeometry>
        </mxCell>
        <mxCell id="ctCrm-KFBOh4pchtV14Y-4" value="tcp" style="edgeLabel;html=1;align=center;verticalAlign=middle;resizable=0;points=[];" parent="ctCrm-KFBOh4pchtV14Y-3" vertex="1" connectable="0">
          <mxGeometry x="-0.3" relative="1" as="geometry">
            <mxPoint as="offset" />
          </mxGeometry>
        </mxCell>
        <object placeholders="1" c4Name="API Gateway" c4Type="Container" c4Technology="NestJS" c4Description="Receives requests and routes them to microservices." label="&lt;font style=&quot;font-size: 16px&quot;&gt;&lt;b&gt;%c4Name%&lt;/b&gt;&lt;/font&gt;&lt;div&gt;[%c4Type%: %c4Technology%]&lt;/div&gt;&lt;br&gt;&lt;div&gt;&lt;font style=&quot;font-size: 11px&quot;&gt;&lt;font color=&quot;#E6E6E6&quot;&gt;%c4Description%&lt;/font&gt;&lt;/div&gt;" id="ctCrm-KFBOh4pchtV14Y-5">
          <mxCell style="rounded=1;whiteSpace=wrap;html=1;fontSize=11;labelBackgroundColor=none;fillColor=#23A2D9;fontColor=#ffffff;align=center;arcSize=10;strokeColor=#0E7DAD;metaEdit=1;resizable=0;points=[[0.25,0,0],[0.5,0,0],[0.75,0,0],[1,0.25,0],[1,0.5,0],[1,0.75,0],[0.75,1,0],[0.5,1,0],[0.25,1,0],[0,0.75,0],[0,0.5,0],[0,0.25,0]];" parent="1" vertex="1">
            <mxGeometry x="1155" y="800" width="240" height="120" as="geometry" />
          </mxCell>
        </object>
        <mxCell id="ctCrm-KFBOh4pchtV14Y-10" style="edgeStyle=orthogonalEdgeStyle;rounded=0;orthogonalLoop=1;jettySize=auto;html=1;exitX=1.001;exitY=0.725;exitDx=0;exitDy=0;exitPerimeter=0;entryX=-0.005;entryY=0.593;entryDx=0;entryDy=0;entryPerimeter=0;" parent="1" source="ctCrm-KFBOh4pchtV14Y-11" target="rQRP3qdR7wOcKE78vdVA-1" edge="1">
          <mxGeometry relative="1" as="geometry">
            <mxPoint x="780" y="860" as="targetPoint" />
          </mxGeometry>
        </mxCell>
        <object placeholders="1" c4Name="Customer" c4Type="Person" c4Description="Responsible for placing orders/meal subscriptions." label="&lt;font style=&quot;font-size: 16px&quot;&gt;&lt;b&gt;%c4Name%&lt;/b&gt;&lt;/font&gt;&lt;div&gt;[%c4Type%]&lt;/div&gt;&lt;br&gt;&lt;div&gt;&lt;font style=&quot;font-size: 11px&quot;&gt;&lt;font color=&quot;#cccccc&quot;&gt;%c4Description%&lt;/font&gt;&lt;/div&gt;" id="ctCrm-KFBOh4pchtV14Y-11">
          <mxCell style="html=1;fontSize=11;dashed=0;whiteSpace=wrap;fillColor=#083F75;strokeColor=#06315C;fontColor=#ffffff;shape=mxgraph.c4.person2;align=center;metaEdit=1;points=[[0.5,0,0],[1,0.5,0],[1,0.75,0],[0.75,1,0],[0.5,1,0],[0.25,1,0],[0,0.75,0],[0,0.5,0]];resizable=0;rounded=1;" parent="1" vertex="1">
            <mxGeometry x="470" y="740" width="200" height="180" as="geometry" />
          </mxCell>
        </object>
        <mxCell id="ctCrm-KFBOh4pchtV14Y-12" value="(1) payOrder&lt;br&gt;[OrderDTO]" style="text;html=1;strokeColor=none;fillColor=#E6E6E6;align=center;verticalAlign=middle;whiteSpace=wrap;rounded=0;fontColor=#009900;fontStyle=1" parent="1" vertex="1">
          <mxGeometry x="1030" y="790" width="130" height="30" as="geometry" />
        </mxCell>
        <mxCell id="ctCrm-KFBOh4pchtV14Y-14" value="(2) validate accessToken" style="text;html=1;strokeColor=none;fillColor=#E6E6E6;align=center;verticalAlign=middle;whiteSpace=wrap;rounded=0;fontColor=#009900;fontStyle=1" parent="1" vertex="1">
          <mxGeometry x="1435" y="840" width="150" height="40" as="geometry" />
        </mxCell>
        <mxCell id="ctCrm-KFBOh4pchtV14Y-26" value="tcp" style="rounded=0;orthogonalLoop=1;jettySize=auto;html=1;exitX=1;exitY=0.5;exitDx=0;exitDy=0;exitPerimeter=0;endArrow=none;endFill=0;startArrow=classic;startFill=1;entryX=0;entryY=0.5;entryDx=0;entryDy=0;entryPerimeter=0;" parent="1" source="wwMyxLwJa1QKY-k41hC1-2" target="Y0YzausENRD2mUoMiJNV-2" edge="1">
          <mxGeometry x="0.0473" y="2" relative="1" as="geometry">
            <mxPoint x="1025.0044444444443" y="1149" as="sourcePoint" />
            <mxPoint x="1170.7841989245621" y="1099" as="targetPoint" />
            <mxPoint as="offset" />
          </mxGeometry>
        </mxCell>
        <mxCell id="ctCrm-KFBOh4pchtV14Y-28" value="(4) updateStockAndGetProduct&lt;div&gt;Info&lt;br&gt;[OrderDTO]&lt;/div&gt;" style="text;html=1;strokeColor=none;fillColor=#E6E6E6;align=center;verticalAlign=middle;whiteSpace=wrap;rounded=0;fontColor=#009900;fontStyle=1" parent="1" vertex="1">
          <mxGeometry x="992" y="1132" width="196" height="54" as="geometry" />
        </mxCell>
        <mxCell id="ctCrm-KFBOh4pchtV14Y-18" value="" style="edgeStyle=orthogonalEdgeStyle;rounded=0;orthogonalLoop=1;jettySize=auto;html=1;exitX=0.5;exitY=1;exitDx=0;exitDy=0;exitPerimeter=0;entryX=0.5;entryY=0;entryDx=0;entryDy=0;entryPerimeter=0;" parent="1" edge="1">
          <mxGeometry relative="1" as="geometry">
            <mxPoint x="915.7841989245621" y="1410" as="sourcePoint" />
          </mxGeometry>
        </mxCell>
        <mxCell id="Y0YzausENRD2mUoMiJNV-1" value="" style="group" parent="1" vertex="1" connectable="0">
          <mxGeometry x="1155" y="1024" width="240" height="340" as="geometry" />
        </mxCell>
        <object placeholders="1" c4Type="Order" c4Container="Container" c4Technology="NestJS" c4Description="Handles operations for orders." label="&lt;font style=&quot;font-size: 16px&quot;&gt;&lt;b&gt;%c4Type%&lt;/b&gt;&lt;/font&gt;&lt;div&gt;[%c4Container%:&amp;nbsp;%c4Technology%]&lt;/div&gt;&lt;br&gt;&lt;div&gt;&lt;font style=&quot;font-size: 11px&quot;&gt;&lt;font color=&quot;#E6E6E6&quot;&gt;%c4Description%&lt;/font&gt;&lt;/div&gt;" id="Y0YzausENRD2mUoMiJNV-2">
          <mxCell style="shape=hexagon;size=50;perimeter=hexagonPerimeter2;whiteSpace=wrap;html=1;fixedSize=1;rounded=1;labelBackgroundColor=none;fillColor=#23A2D9;fontSize=12;fontColor=#ffffff;align=center;strokeColor=#0E7DAD;metaEdit=1;points=[[0.5,0,0],[1,0.25,0],[1,0.5,0],[1,0.75,0],[0.5,1,0],[0,0.75,0],[0,0.5,0],[0,0.25,0]];resizable=0;container=0;" parent="Y0YzausENRD2mUoMiJNV-1" vertex="1">
            <mxGeometry x="20" width="200" height="170" as="geometry" />
          </mxCell>
        </object>
        <object placeholders="1" c4Type="OrderDB" c4Container="Container" c4Technology="MySQL" c4Description="Stores data about orders." label="&lt;font style=&quot;font-size: 16px&quot;&gt;&lt;b&gt;%c4Type%&lt;/b&gt;&lt;/font&gt;&lt;div&gt;[%c4Container%:&amp;nbsp;%c4Technology%]&lt;/div&gt;&lt;br&gt;&lt;div&gt;&lt;font style=&quot;font-size: 11px&quot;&gt;&lt;font color=&quot;#E6E6E6&quot;&gt;%c4Description%&lt;/font&gt;&lt;/div&gt;" id="Y0YzausENRD2mUoMiJNV-3">
          <mxCell style="shape=cylinder3;size=15;whiteSpace=wrap;html=1;boundedLbl=1;rounded=0;labelBackgroundColor=none;fillColor=#23A2D9;fontSize=12;fontColor=#ffffff;align=center;strokeColor=#0E7DAD;metaEdit=1;points=[[0.5,0,0],[1,0.25,0],[1,0.5,0],[1,0.75,0],[0.5,1,0],[0,0.75,0],[0,0.5,0],[0,0.25,0]];resizable=0;container=0;" parent="Y0YzausENRD2mUoMiJNV-1" vertex="1">
            <mxGeometry y="220" width="240" height="120" as="geometry" />
          </mxCell>
        </object>
        <mxCell id="Y0YzausENRD2mUoMiJNV-4" value="" style="edgeStyle=orthogonalEdgeStyle;rounded=0;orthogonalLoop=1;jettySize=auto;html=1;exitX=0.5;exitY=1;exitDx=0;exitDy=0;exitPerimeter=0;entryX=0.5;entryY=0;entryDx=0;entryDy=0;entryPerimeter=0;endArrow=none;endFill=0;" parent="Y0YzausENRD2mUoMiJNV-1" source="Y0YzausENRD2mUoMiJNV-2" target="Y0YzausENRD2mUoMiJNV-3" edge="1">
          <mxGeometry relative="1" as="geometry" />
        </mxCell>
        <mxCell id="ctCrm-KFBOh4pchtV14Y-19" value="(5) insert order&lt;br&gt;PENDING" style="text;html=1;strokeColor=none;fillColor=#E6E6E6;align=center;verticalAlign=middle;whiteSpace=wrap;rounded=0;fontColor=#009900;fontStyle=1" parent="Y0YzausENRD2mUoMiJNV-1" vertex="1">
          <mxGeometry x="153.99593220338977" y="183" width="93.22033898305084" height="30" as="geometry" />
        </mxCell>
        <mxCell id="wwMyxLwJa1QKY-k41hC1-1" value="" style="group" parent="1" vertex="1" connectable="0">
          <mxGeometry x="785" y="1024" width="240" height="340" as="geometry" />
        </mxCell>
        <object placeholders="1" c4Type="Product" c4Container="Container" c4Technology="NestJS" c4Description="Handles operations for products, including price and stock." label="&lt;font style=&quot;font-size: 16px&quot;&gt;&lt;b&gt;%c4Type%&lt;/b&gt;&lt;/font&gt;&lt;div&gt;[%c4Container%:&amp;nbsp;%c4Technology%]&lt;/div&gt;&lt;br&gt;&lt;div&gt;&lt;font style=&quot;font-size: 11px&quot;&gt;&lt;font color=&quot;#E6E6E6&quot;&gt;%c4Description%&lt;/font&gt;&lt;/div&gt;" id="wwMyxLwJa1QKY-k41hC1-2">
          <mxCell style="shape=hexagon;size=50;perimeter=hexagonPerimeter2;whiteSpace=wrap;html=1;fixedSize=1;rounded=1;labelBackgroundColor=none;fillColor=#23A2D9;fontSize=12;fontColor=#ffffff;align=center;strokeColor=#0E7DAD;metaEdit=1;points=[[0.5,0,0],[1,0.25,0],[1,0.5,0],[1,0.75,0],[0.5,1,0],[0,0.75,0],[0,0.5,0],[0,0.25,0]];resizable=0;container=0;" parent="wwMyxLwJa1QKY-k41hC1-1" vertex="1">
            <mxGeometry x="20" width="200" height="170" as="geometry" />
          </mxCell>
        </object>
        <object placeholders="1" c4Type="ProductDB" c4Container="Container" c4Technology="MySQL" c4Description="Stores data about products." label="&lt;font style=&quot;font-size: 16px&quot;&gt;&lt;b&gt;%c4Type%&lt;/b&gt;&lt;/font&gt;&lt;div&gt;[%c4Container%:&amp;nbsp;%c4Technology%]&lt;/div&gt;&lt;br&gt;&lt;div&gt;&lt;font style=&quot;font-size: 11px&quot;&gt;&lt;font color=&quot;#E6E6E6&quot;&gt;%c4Description%&lt;/font&gt;&lt;/div&gt;" id="wwMyxLwJa1QKY-k41hC1-3">
          <mxCell style="shape=cylinder3;size=15;whiteSpace=wrap;html=1;boundedLbl=1;rounded=0;labelBackgroundColor=none;fillColor=#23A2D9;fontSize=12;fontColor=#ffffff;align=center;strokeColor=#0E7DAD;metaEdit=1;points=[[0.5,0,0],[1,0.25,0],[1,0.5,0],[1,0.75,0],[0.5,1,0],[0,0.75,0],[0,0.5,0],[0,0.25,0]];resizable=0;container=0;" parent="wwMyxLwJa1QKY-k41hC1-1" vertex="1">
            <mxGeometry y="220" width="240" height="120" as="geometry" />
          </mxCell>
        </object>
        <mxCell id="wwMyxLwJa1QKY-k41hC1-4" value="" style="edgeStyle=orthogonalEdgeStyle;rounded=0;orthogonalLoop=1;jettySize=auto;html=1;exitX=0.5;exitY=1;exitDx=0;exitDy=0;exitPerimeter=0;entryX=0.5;entryY=0;entryDx=0;entryDy=0;entryPerimeter=0;endArrow=none;endFill=0;" parent="wwMyxLwJa1QKY-k41hC1-1" source="wwMyxLwJa1QKY-k41hC1-2" target="wwMyxLwJa1QKY-k41hC1-3" edge="1">
          <mxGeometry relative="1" as="geometry" />
        </mxCell>
        <object placeholders="1" c4Name="Frontend" c4Type="Container" c4Technology="React, TypeScript" c4Description="Web interface utilizing NexusMeals backend functionalities" label="&lt;font style=&quot;font-size: 16px&quot;&gt;&lt;b&gt;%c4Name%&lt;/b&gt;&lt;/font&gt;&lt;div&gt;[%c4Type%: %c4Technology%]&lt;/div&gt;&lt;br&gt;&lt;div&gt;&lt;font style=&quot;font-size: 11px&quot;&gt;&lt;font color=&quot;#E6E6E6&quot;&gt;%c4Description%&lt;/font&gt;&lt;/div&gt;" id="rQRP3qdR7wOcKE78vdVA-1">
          <mxCell style="rounded=1;whiteSpace=wrap;html=1;fontSize=11;labelBackgroundColor=none;fillColor=#23A2D9;fontColor=#ffffff;align=center;arcSize=10;strokeColor=#0E7DAD;metaEdit=1;resizable=0;points=[[0.25,0,0],[0.5,0,0],[0.75,0,0],[1,0.25,0],[1,0.5,0],[1,0.75,0],[0.75,1,0],[0.5,1,0],[0.25,1,0],[0,0.75,0],[0,0.5,0],[0,0.25,0]];" parent="1" vertex="1">
            <mxGeometry x="800" y="800" width="240" height="120" as="geometry" />
          </mxCell>
        </object>
        <mxCell id="rQRP3qdR7wOcKE78vdVA-2" style="edgeStyle=orthogonalEdgeStyle;rounded=0;orthogonalLoop=1;jettySize=auto;html=1;exitX=1;exitY=0.5;exitDx=0;exitDy=0;exitPerimeter=0;entryX=0;entryY=0.5;entryDx=0;entryDy=0;entryPerimeter=0;" parent="1" source="rQRP3qdR7wOcKE78vdVA-1" target="ctCrm-KFBOh4pchtV14Y-5" edge="1">
          <mxGeometry relative="1" as="geometry" />
        </mxCell>
        <mxCell id="5AYoEww9_t8nM36Fc2I1-2" value="(3) payOrder [OrderDTO]" style="text;html=1;strokeColor=none;fillColor=#E6E6E6;align=center;verticalAlign=middle;whiteSpace=wrap;rounded=0;fontColor=#009900;fontStyle=1" parent="1" vertex="1">
          <mxGeometry x="1234.9959322033897" y="972" width="93.22033898305084" height="30" as="geometry" />
        </mxCell>
        <mxCell id="kUhkmZccimX7v15ONiss-1" value="" style="group" vertex="1" connectable="0" parent="1">
          <mxGeometry x="1458" y="1024" width="240" height="340" as="geometry" />
        </mxCell>
        <object placeholders="1" c4Type="User" c4Container="Container" c4Technology="NestJS" c4Description="Handles user data." label="&lt;font style=&quot;font-size: 16px&quot;&gt;&lt;b&gt;%c4Type%&lt;/b&gt;&lt;/font&gt;&lt;div&gt;[%c4Container%:&amp;nbsp;%c4Technology%]&lt;/div&gt;&lt;br&gt;&lt;div&gt;&lt;font style=&quot;font-size: 11px&quot;&gt;&lt;font color=&quot;#E6E6E6&quot;&gt;%c4Description%&lt;/font&gt;&lt;/div&gt;" id="kUhkmZccimX7v15ONiss-2">
          <mxCell style="shape=hexagon;size=50;perimeter=hexagonPerimeter2;whiteSpace=wrap;html=1;fixedSize=1;rounded=1;labelBackgroundColor=none;fillColor=#23A2D9;fontSize=12;fontColor=#ffffff;align=center;strokeColor=#0E7DAD;metaEdit=1;points=[[0.5,0,0],[1,0.25,0],[1,0.5,0],[1,0.75,0],[0.5,1,0],[0,0.75,0],[0,0.5,0],[0,0.25,0]];resizable=0;" vertex="1" parent="kUhkmZccimX7v15ONiss-1">
            <mxGeometry x="20" width="200" height="170" as="geometry" />
          </mxCell>
        </object>
        <object placeholders="1" c4Type="UserDB" c4Container="Container" c4Technology="MySQL" c4Description="Stores authentication credentials, and roles of users." label="&lt;font style=&quot;font-size: 16px&quot;&gt;&lt;b&gt;%c4Type%&lt;/b&gt;&lt;/font&gt;&lt;div&gt;[%c4Container%:&amp;nbsp;%c4Technology%]&lt;/div&gt;&lt;br&gt;&lt;div&gt;&lt;font style=&quot;font-size: 11px&quot;&gt;&lt;font color=&quot;#E6E6E6&quot;&gt;%c4Description%&lt;/font&gt;&lt;/div&gt;" id="kUhkmZccimX7v15ONiss-3">
          <mxCell style="shape=cylinder3;size=15;whiteSpace=wrap;html=1;boundedLbl=1;rounded=0;labelBackgroundColor=none;fillColor=#23A2D9;fontSize=12;fontColor=#ffffff;align=center;strokeColor=#0E7DAD;metaEdit=1;points=[[0.5,0,0],[1,0.25,0],[1,0.5,0],[1,0.75,0],[0.5,1,0],[0,0.75,0],[0,0.5,0],[0,0.25,0]];resizable=0;" vertex="1" parent="kUhkmZccimX7v15ONiss-1">
            <mxGeometry y="220" width="240" height="120" as="geometry" />
          </mxCell>
        </object>
        <mxCell id="kUhkmZccimX7v15ONiss-4" value="" style="edgeStyle=orthogonalEdgeStyle;rounded=0;orthogonalLoop=1;jettySize=auto;html=1;exitX=0.5;exitY=1;exitDx=0;exitDy=0;exitPerimeter=0;endArrow=none;endFill=0;entryX=0.5;entryY=0;entryDx=0;entryDy=0;entryPerimeter=0;" edge="1" parent="kUhkmZccimX7v15ONiss-1" source="kUhkmZccimX7v15ONiss-2" target="kUhkmZccimX7v15ONiss-3">
          <mxGeometry relative="1" as="geometry">
            <mxPoint x="155" y="200" as="targetPoint" />
            <Array as="points">
              <mxPoint x="120" y="210" />
              <mxPoint x="120" y="210" />
            </Array>
          </mxGeometry>
        </mxCell>
        <mxCell id="kUhkmZccimX7v15ONiss-6" style="edgeStyle=orthogonalEdgeStyle;rounded=0;orthogonalLoop=1;jettySize=auto;html=1;exitX=1;exitY=0.5;exitDx=0;exitDy=0;exitPerimeter=0;entryX=0;entryY=0.5;entryDx=0;entryDy=0;entryPerimeter=0;" edge="1" parent="1" source="Y0YzausENRD2mUoMiJNV-2" target="kUhkmZccimX7v15ONiss-2">
          <mxGeometry relative="1" as="geometry" />
        </mxCell>
        <mxCell id="kUhkmZccimX7v15ONiss-7" value="amqp-pub" style="edgeLabel;html=1;align=center;verticalAlign=middle;resizable=0;points=[];" vertex="1" connectable="0" parent="kUhkmZccimX7v15ONiss-6">
          <mxGeometry x="-0.3786" relative="1" as="geometry">
            <mxPoint as="offset" />
          </mxGeometry>
        </mxCell>
        <mxCell id="kUhkmZccimX7v15ONiss-8" value="(6) inform Chef&lt;div&gt;[OrderDTO]&lt;/div&gt;" style="text;html=1;strokeColor=none;fillColor=#E6E6E6;align=center;verticalAlign=middle;whiteSpace=wrap;rounded=0;fontColor=#009900;fontStyle=1" vertex="1" parent="1">
          <mxGeometry x="1375.9959322033897" y="1067" width="93.22033898305084" height="30" as="geometry" />
        </mxCell>
      </root>
    </mxGraphModel>
  </diagram>
  <diagram id="h9Oj0vy_YM5nZT97IdHr" name="change-order-status">
    <mxGraphModel dx="1018" dy="28" grid="0" gridSize="10" guides="1" tooltips="1" connect="1" arrows="1" fold="1" page="0" pageScale="1" pageWidth="850" pageHeight="1100" math="0" shadow="0">
      <root>
        <mxCell id="0" />
        <mxCell id="1" parent="0" />
        <mxCell id="W2Eefb1ADsOYr8-oS2Zn-1" value="" style="group" parent="1" vertex="1" connectable="0">
          <mxGeometry x="878" y="954" width="240" height="340" as="geometry" />
        </mxCell>
        <object placeholders="1" c4Type="Order" c4Container="Container" c4Technology="NestJS" c4Description="Handles operations for orders." label="&lt;font style=&quot;font-size: 16px&quot;&gt;&lt;b&gt;%c4Type%&lt;/b&gt;&lt;/font&gt;&lt;div&gt;[%c4Container%:&amp;nbsp;%c4Technology%]&lt;/div&gt;&lt;br&gt;&lt;div&gt;&lt;font style=&quot;font-size: 11px&quot;&gt;&lt;font color=&quot;#E6E6E6&quot;&gt;%c4Description%&lt;/font&gt;&lt;/div&gt;" id="W2Eefb1ADsOYr8-oS2Zn-2">
          <mxCell style="shape=hexagon;size=50;perimeter=hexagonPerimeter2;whiteSpace=wrap;html=1;fixedSize=1;rounded=1;labelBackgroundColor=none;fillColor=#23A2D9;fontSize=12;fontColor=#ffffff;align=center;strokeColor=#0E7DAD;metaEdit=1;points=[[0.5,0,0],[1,0.25,0],[1,0.5,0],[1,0.75,0],[0.5,1,0],[0,0.75,0],[0,0.5,0],[0,0.25,0]];resizable=0;container=0;" parent="W2Eefb1ADsOYr8-oS2Zn-1" vertex="1">
            <mxGeometry x="20" width="200" height="170" as="geometry" />
          </mxCell>
        </object>
        <object placeholders="1" c4Type="OrderDB" c4Container="Container" c4Technology="MySQL" c4Description="Stores data about orders." label="&lt;font style=&quot;font-size: 16px&quot;&gt;&lt;b&gt;%c4Type%&lt;/b&gt;&lt;/font&gt;&lt;div&gt;[%c4Container%:&amp;nbsp;%c4Technology%]&lt;/div&gt;&lt;br&gt;&lt;div&gt;&lt;font style=&quot;font-size: 11px&quot;&gt;&lt;font color=&quot;#E6E6E6&quot;&gt;%c4Description%&lt;/font&gt;&lt;/div&gt;" id="W2Eefb1ADsOYr8-oS2Zn-3">
          <mxCell style="shape=cylinder3;size=15;whiteSpace=wrap;html=1;boundedLbl=1;rounded=0;labelBackgroundColor=none;fillColor=#23A2D9;fontSize=12;fontColor=#ffffff;align=center;strokeColor=#0E7DAD;metaEdit=1;points=[[0.5,0,0],[1,0.25,0],[1,0.5,0],[1,0.75,0],[0.5,1,0],[0,0.75,0],[0,0.5,0],[0,0.25,0]];resizable=0;container=0;" parent="W2Eefb1ADsOYr8-oS2Zn-1" vertex="1">
            <mxGeometry y="220" width="240" height="120" as="geometry" />
          </mxCell>
        </object>
        <mxCell id="W2Eefb1ADsOYr8-oS2Zn-4" value="" style="edgeStyle=orthogonalEdgeStyle;rounded=0;orthogonalLoop=1;jettySize=auto;html=1;exitX=0.5;exitY=1;exitDx=0;exitDy=0;exitPerimeter=0;entryX=0.5;entryY=0;entryDx=0;entryDy=0;entryPerimeter=0;endArrow=none;endFill=0;" parent="W2Eefb1ADsOYr8-oS2Zn-1" source="W2Eefb1ADsOYr8-oS2Zn-2" target="W2Eefb1ADsOYr8-oS2Zn-3" edge="1">
          <mxGeometry relative="1" as="geometry" />
        </mxCell>
        <mxCell id="isUS0gaYNM-m0ItwaFg8-7" value="(2) change order status" style="text;html=1;strokeColor=none;fillColor=#E6E6E6;align=center;verticalAlign=middle;whiteSpace=wrap;rounded=0;fontColor=#009900;fontStyle=1" parent="W2Eefb1ADsOYr8-oS2Zn-1" vertex="1">
          <mxGeometry x="84" y="163" width="100" height="50" as="geometry" />
        </mxCell>
        <mxCell id="isUS0gaYNM-m0ItwaFg8-21" value="amqp-pub" style="rounded=0;orthogonalLoop=1;jettySize=auto;html=1;exitX=0.258;exitY=1.004;exitDx=0;exitDy=0;exitPerimeter=0;endArrow=none;endFill=0;startArrow=classic;startFill=1;entryX=1;entryY=0.5;entryDx=0;entryDy=0;entryPerimeter=0;" parent="1" edge="1" target="Z04KkkIxAwIBoEQUME_9-2">
          <mxGeometry x="0.1774" y="-5" relative="1" as="geometry">
            <mxPoint x="944.5969387755104" y="1118.68" as="sourcePoint" />
            <mxPoint x="705" y="1224.94" as="targetPoint" />
            <mxPoint as="offset" />
          </mxGeometry>
        </mxCell>
        <mxCell id="Z04KkkIxAwIBoEQUME_9-1" value="" style="group" vertex="1" connectable="0" parent="1">
          <mxGeometry x="569" y="1103" width="240" height="340" as="geometry" />
        </mxCell>
        <object placeholders="1" c4Type="User" c4Container="Container" c4Technology="NestJS" c4Description="Handles user data." label="&lt;font style=&quot;font-size: 16px&quot;&gt;&lt;b&gt;%c4Type%&lt;/b&gt;&lt;/font&gt;&lt;div&gt;[%c4Container%:&amp;nbsp;%c4Technology%]&lt;/div&gt;&lt;br&gt;&lt;div&gt;&lt;font style=&quot;font-size: 11px&quot;&gt;&lt;font color=&quot;#E6E6E6&quot;&gt;%c4Description%&lt;/font&gt;&lt;/div&gt;" id="Z04KkkIxAwIBoEQUME_9-2">
          <mxCell style="shape=hexagon;size=50;perimeter=hexagonPerimeter2;whiteSpace=wrap;html=1;fixedSize=1;rounded=1;labelBackgroundColor=none;fillColor=#23A2D9;fontSize=12;fontColor=#ffffff;align=center;strokeColor=#0E7DAD;metaEdit=1;points=[[0.5,0,0],[1,0.25,0],[1,0.5,0],[1,0.75,0],[0.5,1,0],[0,0.75,0],[0,0.5,0],[0,0.25,0]];resizable=0;" vertex="1" parent="Z04KkkIxAwIBoEQUME_9-1">
            <mxGeometry x="20" width="200" height="170" as="geometry" />
          </mxCell>
        </object>
        <object placeholders="1" c4Type="UserDB" c4Container="Container" c4Technology="MySQL" c4Description="Stores authentication credentials, and roles of users." label="&lt;font style=&quot;font-size: 16px&quot;&gt;&lt;b&gt;%c4Type%&lt;/b&gt;&lt;/font&gt;&lt;div&gt;[%c4Container%:&amp;nbsp;%c4Technology%]&lt;/div&gt;&lt;br&gt;&lt;div&gt;&lt;font style=&quot;font-size: 11px&quot;&gt;&lt;font color=&quot;#E6E6E6&quot;&gt;%c4Description%&lt;/font&gt;&lt;/div&gt;" id="Z04KkkIxAwIBoEQUME_9-3">
          <mxCell style="shape=cylinder3;size=15;whiteSpace=wrap;html=1;boundedLbl=1;rounded=0;labelBackgroundColor=none;fillColor=#23A2D9;fontSize=12;fontColor=#ffffff;align=center;strokeColor=#0E7DAD;metaEdit=1;points=[[0.5,0,0],[1,0.25,0],[1,0.5,0],[1,0.75,0],[0.5,1,0],[0,0.75,0],[0,0.5,0],[0,0.25,0]];resizable=0;" vertex="1" parent="Z04KkkIxAwIBoEQUME_9-1">
            <mxGeometry y="220" width="240" height="120" as="geometry" />
          </mxCell>
        </object>
        <mxCell id="Z04KkkIxAwIBoEQUME_9-4" value="" style="edgeStyle=orthogonalEdgeStyle;rounded=0;orthogonalLoop=1;jettySize=auto;html=1;exitX=0.5;exitY=1;exitDx=0;exitDy=0;exitPerimeter=0;endArrow=none;endFill=0;entryX=0.5;entryY=0;entryDx=0;entryDy=0;entryPerimeter=0;" edge="1" parent="Z04KkkIxAwIBoEQUME_9-1" source="Z04KkkIxAwIBoEQUME_9-2" target="Z04KkkIxAwIBoEQUME_9-3">
          <mxGeometry relative="1" as="geometry">
            <mxPoint x="155" y="200" as="targetPoint" />
            <Array as="points">
              <mxPoint x="120" y="210" />
              <mxPoint x="120" y="210" />
            </Array>
          </mxGeometry>
        </mxCell>
      </root>
    </mxGraphModel>
  </diagram>
</mxfile>
